<?xml version="1.0" encoding="UTF-8" standalone="no"?>
<!DOCTYPE svg PUBLIC "-//W3C//DTD SVG 1.1//EN"
 "http://www.w3.org/Graphics/SVG/1.1/DTD/svg11.dtd">
<!-- Generated by graphviz version 2.38.0 (20140413.2041)
 -->
<!-- Title: g Pages: 1 -->
<svg width="892pt" height="585pt"
 viewBox="0.00 0.00 892.44 584.91" xmlns="http://www.w3.org/2000/svg" xmlns:xlink="http://www.w3.org/1999/xlink">
<g id="graph0" class="graph" transform="scale(1 1) rotate(0) translate(4 580.914)">
<title>g</title>
<polygon fill="white" stroke="none" points="-4,4 -4,-580.914 888.439,-580.914 888.439,4 -4,4"/>
<!-- mdd -->
<g id="node1" class="node"><title>mdd</title>
<ellipse fill="none" stroke="black" cx="561.841" cy="-550.044" rx="70.922" ry="26.7407"/>
<text text-anchor="middle" x="561.841" y="-553.844" font-family="arial" font-size="14.00">Model Driven</text>
<text text-anchor="middle" x="561.841" y="-538.844" font-family="arial" font-size="14.00">Design</text>
</g>
<!-- ul -->
<g id="node2" class="node"><title>ul</title>
<ellipse fill="none" stroke="black" cx="563.841" cy="-293.563" rx="99.3824" ry="18"/>
<text text-anchor="middle" x="563.841" y="-289.863" font-family="arial" font-size="14.00">Ubiquitious Language</text>
</g>
<!-- mdd&#45;&gt;ul -->
<g id="edge1" class="edge"><title>mdd&#45;&gt;ul</title>
<path fill="none" stroke="black" d="M562.047,-522.768C562.428,-474.245 563.24,-371.048 563.627,-321.807"/>
<polygon fill="black" stroke="black" points="567.128,-321.635 563.707,-311.608 560.128,-321.58 567.128,-321.635"/>
<text text-anchor="middle" x="583.341" y="-441.304" font-family="arial" font-size="10.00">model</text>
<text text-anchor="middle" x="583.341" y="-430.304" font-family="arial" font-size="10.00">gives</text>
<text text-anchor="middle" x="583.341" y="-419.304" font-family="arial" font-size="10.00">structure</text>
<text text-anchor="middle" x="583.341" y="-408.304" font-family="arial" font-size="10.00">to</text>
</g>
<!-- bc -->
<g id="node3" class="node"><title>bc</title>
<ellipse fill="none" stroke="black" cx="387.841" cy="-427.304" rx="82.5854" ry="18"/>
<text text-anchor="middle" x="387.841" y="-423.604" font-family="arial" font-size="14.00">Bounded Context</text>
</g>
<!-- mdd&#45;&gt;bc -->
<g id="edge2" class="edge"><title>mdd&#45;&gt;bc</title>
<path fill="none" stroke="black" d="M540.505,-524.282C525.552,-507.995 504.446,-487.024 482.841,-472.174 468.831,-462.544 452.369,-454.093 437.121,-447.245"/>
<polygon fill="black" stroke="black" points="438.382,-443.976 427.816,-443.192 435.586,-450.394 438.382,-443.976"/>
<text text-anchor="middle" x="536.341" y="-497.174" font-family="arial" font-size="10.00">define</text>
<text text-anchor="middle" x="536.341" y="-486.174" font-family="arial" font-size="10.00">model</text>
<text text-anchor="middle" x="536.341" y="-475.174" font-family="arial" font-size="10.00">with</text>
</g>
<!-- bc&#45;&gt;ul -->
<g id="edge3" class="edge"><title>bc&#45;&gt;ul</title>
<path fill="none" stroke="black" d="M411.097,-409.869C420.774,-402.269 431.639,-392.662 439.841,-382.434 453.644,-365.218 446.687,-353.466 462.841,-338.434 474.321,-327.75 488.814,-319.409 503.211,-313.006"/>
<polygon fill="black" stroke="black" points="504.748,-316.157 512.625,-309.073 502.049,-309.698 504.748,-316.157"/>
<text text-anchor="middle" x="477.841" y="-363.434" font-family="arial" font-size="10.00">names</text>
<text text-anchor="middle" x="477.841" y="-352.434" font-family="arial" font-size="10.00">enter</text>
</g>
<!-- ci -->
<g id="node6" class="node"><title>ci</title>
<ellipse fill="none" stroke="black" cx="244.841" cy="-293.563" rx="58.8803" ry="26.7407"/>
<text text-anchor="middle" x="244.841" y="-297.363" font-family="arial" font-size="14.00">Continous</text>
<text text-anchor="middle" x="244.841" y="-282.363" font-family="arial" font-size="14.00">Integration</text>
</g>
<!-- bc&#45;&gt;ci -->
<g id="edge7" class="edge"><title>bc&#45;&gt;ci</title>
<path fill="none" stroke="black" d="M369.73,-409.619C346.618,-388.327 306.216,-351.106 277.63,-324.771"/>
<polygon fill="black" stroke="black" points="279.997,-322.193 270.271,-317.991 275.254,-327.341 279.997,-322.193"/>
<text text-anchor="middle" x="351.841" y="-374.434" font-family="arial" font-size="10.00">keep</text>
<text text-anchor="middle" x="351.841" y="-363.434" font-family="arial" font-size="10.00">model</text>
<text text-anchor="middle" x="351.841" y="-352.434" font-family="arial" font-size="10.00">unified</text>
<text text-anchor="middle" x="351.841" y="-341.434" font-family="arial" font-size="10.00">by</text>
</g>
<!-- cm -->
<g id="node7" class="node"><title>cm</title>
<ellipse fill="none" stroke="black" cx="383.841" cy="-293.563" rx="62.2891" ry="18"/>
<text text-anchor="middle" x="383.841" y="-289.863" font-family="arial" font-size="14.00">Context Map</text>
</g>
<!-- bc&#45;&gt;cm -->
<g id="edge8" class="edge"><title>bc&#45;&gt;cm</title>
<path fill="none" stroke="black" d="M386.447,-409.232C385.842,-401.119 385.193,-391.282 384.841,-382.434 384.031,-362.109 383.793,-339.12 383.751,-321.756"/>
<polygon fill="black" stroke="black" points="387.252,-321.744 383.747,-311.745 380.252,-321.746 387.252,-321.744"/>
<text text-anchor="middle" x="412.341" y="-374.434" font-family="arial" font-size="10.00">assess</text>
<text text-anchor="middle" x="412.341" y="-363.434" font-family="arial" font-size="10.00">/overview</text>
<text text-anchor="middle" x="412.341" y="-352.434" font-family="arial" font-size="10.00">relationships</text>
<text text-anchor="middle" x="412.341" y="-341.434" font-family="arial" font-size="10.00">with</text>
</g>
<!-- cd -->
<g id="node4" class="node"><title>cd</title>
<ellipse fill="none" stroke="black" cx="387.841" cy="-550.044" rx="65.7887" ry="18"/>
<text text-anchor="middle" x="387.841" y="-546.344" font-family="arial" font-size="14.00">Core Domain</text>
</g>
<!-- cd&#45;&gt;ul -->
<g id="edge4" class="edge"><title>cd&#45;&gt;ul</title>
<path fill="none" stroke="black" d="M432.466,-536.573C450.092,-529.743 469.321,-519.642 482.841,-505.174 516.861,-468.764 504.954,-446.943 522.841,-400.434 533.224,-373.435 545.177,-342.598 553.487,-321.197"/>
<polygon fill="black" stroke="black" points="556.782,-322.38 557.14,-311.791 550.257,-319.845 556.782,-322.38"/>
<text text-anchor="middle" x="540.841" y="-441.304" font-family="arial" font-size="10.00">cultivate</text>
<text text-anchor="middle" x="540.841" y="-430.304" font-family="arial" font-size="10.00">rich</text>
<text text-anchor="middle" x="540.841" y="-419.304" font-family="arial" font-size="10.00">model</text>
<text text-anchor="middle" x="540.841" y="-408.304" font-family="arial" font-size="10.00">with</text>
</g>
<!-- cd&#45;&gt;bc -->
<g id="edge5" class="edge"><title>cd&#45;&gt;bc</title>
<path fill="none" stroke="black" d="M387.841,-532.001C387.841,-512.158 387.841,-479.117 387.841,-455.668"/>
<polygon fill="black" stroke="black" points="391.341,-455.651 387.841,-445.651 384.341,-455.651 391.341,-455.651"/>
<text text-anchor="middle" x="433.341" y="-491.674" font-family="arial" font-size="10.00">work in</text>
<text text-anchor="middle" x="433.341" y="-480.674" font-family="arial" font-size="10.00">autnonomous, clean </text>
</g>
<!-- gs -->
<g id="node5" class="node"><title>gs</title>
<ellipse fill="none" stroke="black" cx="219.841" cy="-427.304" rx="67.7647" ry="26.7407"/>
<text text-anchor="middle" x="219.841" y="-431.104" font-family="arial" font-size="14.00">Generic</text>
<text text-anchor="middle" x="219.841" y="-416.104" font-family="arial" font-size="14.00">Subdomains</text>
</g>
<!-- cd&#45;&gt;gs -->
<g id="edge6" class="edge"><title>cd&#45;&gt;gs</title>
<path fill="none" stroke="black" d="M365.532,-533.01C338.739,-513.755 293.285,-481.087 260.26,-457.353"/>
<polygon fill="black" stroke="black" points="261.89,-454.214 251.727,-451.22 257.804,-459.898 261.89,-454.214"/>
<text text-anchor="middle" x="351.341" y="-497.174" font-family="arial" font-size="10.00">avoid</text>
<text text-anchor="middle" x="351.341" y="-486.174" font-family="arial" font-size="10.00">overinvesting</text>
<text text-anchor="middle" x="351.341" y="-475.174" font-family="arial" font-size="10.00">in</text>
</g>
<!-- sk -->
<g id="node8" class="node"><title>sk</title>
<ellipse fill="none" stroke="black" cx="43.8406" cy="-138.217" rx="43.6818" ry="26.7407"/>
<text text-anchor="middle" x="43.8406" y="-142.017" font-family="arial" font-size="14.00">Shared</text>
<text text-anchor="middle" x="43.8406" y="-127.017" font-family="arial" font-size="14.00">Kernel</text>
</g>
<!-- cm&#45;&gt;sk -->
<g id="edge9" class="edge"><title>cm&#45;&gt;sk</title>
<path fill="none" stroke="black" d="M350.053,-278.304C338.444,-273.932 325.246,-269.53 312.841,-266.693 234.896,-248.869 204.334,-286.427 133.841,-248.693 125.091,-244.01 91.6258,-201.75 68.0712,-171.136"/>
<polygon fill="black" stroke="black" points="70.5812,-168.657 61.7192,-162.851 65.0259,-172.916 70.5812,-168.657"/>
<text text-anchor="middle" x="165.841" y="-229.693" font-family="arial" font-size="10.00">interdependent</text>
<text text-anchor="middle" x="165.841" y="-218.693" font-family="arial" font-size="10.00">context</text>
<text text-anchor="middle" x="165.841" y="-207.693" font-family="arial" font-size="10.00">from</text>
</g>
<!-- cm&#45;&gt;sk -->
<g id="edge10" class="edge"><title>cm&#45;&gt;sk</title>
<path fill="none" stroke="black" d="M350.463,-278.202C338.773,-273.766 325.42,-269.351 312.841,-266.693 283.641,-260.523 65.3241,-270.399 44.8406,-248.693 26.6915,-229.461 27.9735,-198.799 32.927,-174.811"/>
<polygon fill="black" stroke="black" points="36.3541,-175.527 35.2288,-164.992 29.5388,-173.929 36.3541,-175.527"/>
<text text-anchor="middle" x="63.8406" y="-235.193" font-family="arial" font-size="10.00">overlap</text>
<text text-anchor="middle" x="63.8406" y="-224.193" font-family="arial" font-size="10.00">allied</text>
<text text-anchor="middle" x="63.8406" y="-213.193" font-family="arial" font-size="10.00">contexts</text>
<text text-anchor="middle" x="63.8406" y="-202.193" font-family="arial" font-size="10.00">through</text>
</g>
<!-- cs -->
<g id="node9" class="node"><title>cs</title>
<ellipse fill="none" stroke="black" cx="161.841" cy="-138.217" rx="55.7232" ry="26.7407"/>
<text text-anchor="middle" x="161.841" y="-142.017" font-family="arial" font-size="14.00">Customer</text>
<text text-anchor="middle" x="161.841" y="-127.017" font-family="arial" font-size="14.00">/Supplier</text>
</g>
<!-- cm&#45;&gt;cs -->
<g id="edge11" class="edge"><title>cm&#45;&gt;cs</title>
<path fill="none" stroke="black" d="M347.059,-278.942C336.074,-274.934 323.989,-270.582 312.841,-266.693 288.954,-258.362 279.949,-262.637 258.841,-248.693 228.515,-228.662 201.778,-196.809 184.097,-172.615"/>
<polygon fill="black" stroke="black" points="186.893,-170.508 178.23,-164.409 181.199,-174.579 186.893,-170.508"/>
<text text-anchor="middle" x="277.841" y="-235.193" font-family="arial" font-size="10.00">relate</text>
<text text-anchor="middle" x="277.841" y="-224.193" font-family="arial" font-size="10.00">allied</text>
<text text-anchor="middle" x="277.841" y="-213.193" font-family="arial" font-size="10.00">contexts</text>
<text text-anchor="middle" x="277.841" y="-202.193" font-family="arial" font-size="10.00">as</text>
</g>
<!-- c -->
<g id="node10" class="node"><title>c</title>
<ellipse fill="none" stroke="black" cx="291.841" cy="-138.217" rx="55.7903" ry="18"/>
<text text-anchor="middle" x="291.841" y="-134.517" font-family="arial" font-size="14.00">Conformist</text>
</g>
<!-- cm&#45;&gt;c -->
<g id="edge12" class="edge"><title>cm&#45;&gt;c</title>
<path fill="none" stroke="black" d="M355.51,-277.369C344.219,-270.046 331.994,-260.312 323.841,-248.693 306.48,-223.955 298.445,-189.801 294.788,-166.252"/>
<polygon fill="black" stroke="black" points="298.241,-165.673 293.397,-156.251 291.308,-166.637 298.241,-165.673"/>
<text text-anchor="middle" x="346.841" y="-224.193" font-family="arial" font-size="10.00">minimize</text>
<text text-anchor="middle" x="346.841" y="-213.193" font-family="arial" font-size="10.00">translation</text>
</g>
<!-- ohs -->
<g id="node11" class="node"><title>ohs</title>
<ellipse fill="none" stroke="black" cx="485.841" cy="-138.217" rx="45.9239" ry="37.4533"/>
<text text-anchor="middle" x="485.841" y="-149.517" font-family="arial" font-size="14.00">Open</text>
<text text-anchor="middle" x="485.841" y="-134.517" font-family="arial" font-size="14.00">Host</text>
<text text-anchor="middle" x="485.841" y="-119.517" font-family="arial" font-size="14.00">Service</text>
</g>
<!-- cm&#45;&gt;ohs -->
<g id="edge13" class="edge"><title>cm&#45;&gt;ohs</title>
<path fill="none" stroke="black" d="M395.146,-275.567C410.365,-252.686 437.926,-211.251 458.686,-180.042"/>
<polygon fill="black" stroke="black" points="461.72,-181.799 464.344,-171.534 455.892,-177.922 461.72,-181.799"/>
<text text-anchor="middle" x="467.341" y="-235.193" font-family="arial" font-size="10.00">support</text>
<text text-anchor="middle" x="467.341" y="-224.193" font-family="arial" font-size="10.00">multipe</text>
<text text-anchor="middle" x="467.341" y="-213.193" font-family="arial" font-size="10.00">clients</text>
<text text-anchor="middle" x="467.341" y="-202.193" font-family="arial" font-size="10.00">through</text>
</g>
<!-- pl -->
<g id="node12" class="node"><title>pl</title>
<ellipse fill="none" stroke="black" cx="416.841" cy="-26.8701" rx="56.6372" ry="26.7407"/>
<text text-anchor="middle" x="416.841" y="-30.6701" font-family="arial" font-size="14.00">Published</text>
<text text-anchor="middle" x="416.841" y="-15.6701" font-family="arial" font-size="14.00">Language</text>
</g>
<!-- cm&#45;&gt;pl -->
<g id="edge14" class="edge"><title>cm&#45;&gt;pl</title>
<path fill="none" stroke="black" d="M383.103,-275.451C381.986,-241.709 381.101,-164.344 392.841,-100.74 395.164,-88.1535 399.125,-74.7487 403.166,-62.9134"/>
<polygon fill="black" stroke="black" points="406.499,-63.988 406.546,-53.3933 399.902,-61.6461 406.499,-63.988"/>
<text text-anchor="middle" x="411.841" y="-152.217" font-family="arial" font-size="10.00">loosely</text>
<text text-anchor="middle" x="411.841" y="-141.217" font-family="arial" font-size="10.00">couple</text>
<text text-anchor="middle" x="411.841" y="-130.217" font-family="arial" font-size="10.00">contexts</text>
<text text-anchor="middle" x="411.841" y="-119.217" font-family="arial" font-size="10.00">through</text>
</g>
<!-- sw -->
<g id="node13" class="node"><title>sw</title>
<ellipse fill="none" stroke="black" cx="602.841" cy="-138.217" rx="53.066" ry="26.7407"/>
<text text-anchor="middle" x="602.841" y="-142.017" font-family="arial" font-size="14.00">Seperate</text>
<text text-anchor="middle" x="602.841" y="-127.017" font-family="arial" font-size="14.00">Ways</text>
</g>
<!-- cm&#45;&gt;sw -->
<g id="edge16" class="edge"><title>cm&#45;&gt;sw</title>
<path fill="none" stroke="black" d="M423.555,-279.672C443.688,-272.199 468.007,-261.688 487.841,-248.693 521.338,-226.747 553.852,-194.453 575.711,-170.624"/>
<polygon fill="black" stroke="black" points="578.306,-172.971 582.421,-163.208 573.116,-168.274 578.306,-172.971"/>
<text text-anchor="middle" x="567.841" y="-229.693" font-family="arial" font-size="10.00">frees</text>
<text text-anchor="middle" x="567.841" y="-218.693" font-family="arial" font-size="10.00">teams</text>
<text text-anchor="middle" x="567.841" y="-207.693" font-family="arial" font-size="10.00">to go</text>
</g>
<!-- acl -->
<g id="node14" class="node"><title>acl</title>
<ellipse fill="none" stroke="black" cx="730.841" cy="-138.217" rx="56.6372" ry="37.4533"/>
<text text-anchor="middle" x="730.841" y="-149.517" font-family="arial" font-size="14.00">Anti&#45;</text>
<text text-anchor="middle" x="730.841" y="-134.517" font-family="arial" font-size="14.00">corruption</text>
<text text-anchor="middle" x="730.841" y="-119.517" font-family="arial" font-size="14.00">Layer</text>
</g>
<!-- cm&#45;&gt;acl -->
<g id="edge17" class="edge"><title>cm&#45;&gt;acl</title>
<path fill="none" stroke="black" d="M418.549,-278.449C430.238,-274.14 443.459,-269.74 455.841,-266.693 512.48,-252.757 531.939,-270.985 585.841,-248.693 626.206,-232 665.33,-201.332 692.744,-176.693"/>
<polygon fill="black" stroke="black" points="695.135,-179.25 700.157,-169.921 690.414,-174.082 695.135,-179.25"/>
<text text-anchor="middle" x="695.341" y="-240.693" font-family="arial" font-size="10.00">translate</text>
<text text-anchor="middle" x="695.341" y="-229.693" font-family="arial" font-size="10.00">and</text>
<text text-anchor="middle" x="695.341" y="-218.693" font-family="arial" font-size="10.00">insulate</text>
<text text-anchor="middle" x="695.341" y="-207.693" font-family="arial" font-size="10.00">unilateraly</text>
<text text-anchor="middle" x="695.341" y="-196.693" font-family="arial" font-size="10.00">with</text>
</g>
<!-- bbm -->
<g id="node15" class="node"><title>bbm</title>
<ellipse fill="none" stroke="black" cx="844.841" cy="-138.217" rx="39.6962" ry="37.4533"/>
<text text-anchor="middle" x="844.841" y="-149.517" font-family="arial" font-size="14.00">Big</text>
<text text-anchor="middle" x="844.841" y="-134.517" font-family="arial" font-size="14.00">Ball of</text>
<text text-anchor="middle" x="844.841" y="-119.517" font-family="arial" font-size="14.00">Mud</text>
</g>
<!-- cm&#45;&gt;bbm -->
<g id="edge18" class="edge"><title>cm&#45;&gt;bbm</title>
<path fill="none" stroke="black" d="M417.343,-278.346C429.286,-273.865 442.97,-269.386 455.841,-266.693 513.831,-254.56 667.212,-271.625 721.841,-248.693 758.867,-233.151 792.293,-201.704 814.922,-176.486"/>
<polygon fill="black" stroke="black" points="817.627,-178.71 821.59,-168.884 812.364,-174.094 817.627,-178.71"/>
<text text-anchor="middle" x="821.841" y="-235.193" font-family="arial" font-size="10.00">segregate</text>
<text text-anchor="middle" x="821.841" y="-224.193" font-family="arial" font-size="10.00">the</text>
<text text-anchor="middle" x="821.841" y="-213.193" font-family="arial" font-size="10.00">conceptual</text>
<text text-anchor="middle" x="821.841" y="-202.193" font-family="arial" font-size="10.00">messes</text>
</g>
<!-- ohs&#45;&gt;pl -->
<g id="edge15" class="edge"><title>ohs&#45;&gt;pl</title>
<path fill="none" stroke="black" d="M465.138,-104.409C456.607,-90.8889 446.727,-75.2328 438.135,-61.6162"/>
<polygon fill="black" stroke="black" points="440.998,-59.5949 432.702,-53.0057 435.078,-63.3306 440.998,-59.5949"/>
<text text-anchor="middle" x="471.841" y="-74.7401" font-family="arial" font-size="10.00">formalize</text>
</g>
</g>
</svg>
