<?xml version="1.0" encoding="UTF-8" standalone="no"?>
<!DOCTYPE svg PUBLIC "-//W3C//DTD SVG 1.1//EN"
 "http://www.w3.org/Graphics/SVG/1.1/DTD/svg11.dtd">
<!-- Generated by graphviz version 2.38.0 (20140413.2041)
 -->
<!-- Title: g Pages: 1 -->
<svg width="928pt" height="643pt"
 viewBox="0.00 0.00 927.84 643.17" xmlns="http://www.w3.org/2000/svg" xmlns:xlink="http://www.w3.org/1999/xlink">
<g id="graph0" class="graph" transform="scale(1 1) rotate(0) translate(4 639.174)">
<title>g</title>
<polygon fill="white" stroke="none" points="-4,4 -4,-639.174 923.841,-639.174 923.841,4 -4,4"/>
<!-- mdd -->
<g id="node1" class="node"><title>mdd</title>
<ellipse fill="none" stroke="black" cx="613.841" cy="-608.304" rx="70.922" ry="26.7407"/>
<text text-anchor="middle" x="613.841" y="-612.104" font-family="arial" font-size="14.00">Model Driven</text>
<text text-anchor="middle" x="613.841" y="-597.104" font-family="arial" font-size="14.00">Design</text>
</g>
<!-- ul -->
<g id="node2" class="node"><title>ul</title>
<ellipse fill="none" stroke="black" cx="572.841" cy="-317.563" rx="99.3824" ry="18"/>
<text text-anchor="middle" x="572.841" y="-313.863" font-family="arial" font-size="14.00">Ubiquitious Language</text>
</g>
<!-- mdd&#45;&gt;ul -->
<g id="edge1" class="edge"><title>mdd&#45;&gt;ul</title>
<path fill="none" stroke="black" d="M623.485,-581.642C625.292,-575.743 626.906,-569.437 627.841,-563.434 630.917,-543.672 630.104,-538.305 627.841,-518.434 620.6,-454.861 596.89,-383.191 583.078,-345.332"/>
<polygon fill="black" stroke="black" points="586.223,-343.746 579.467,-335.585 579.659,-346.178 586.223,-343.746"/>
<text text-anchor="middle" x="653.341" y="-489.234" font-family="arial" font-size="14.00">model</text>
<text text-anchor="middle" x="653.341" y="-474.234" font-family="arial" font-size="14.00">gives</text>
<text text-anchor="middle" x="653.341" y="-459.234" font-family="arial" font-size="14.00">structure</text>
<text text-anchor="middle" x="653.341" y="-444.234" font-family="arial" font-size="14.00">to</text>
</g>
<!-- bc -->
<g id="node3" class="node"><title>bc</title>
<ellipse fill="none" stroke="black" cx="421.841" cy="-470.434" rx="82.5854" ry="18"/>
<text text-anchor="middle" x="421.841" y="-466.734" font-family="arial" font-size="14.00">Bounded Context</text>
</g>
<!-- mdd&#45;&gt;bc -->
<g id="edge2" class="edge"><title>mdd&#45;&gt;bc</title>
<path fill="none" stroke="black" d="M599.211,-582.012C586.705,-562.333 567.072,-535.575 543.841,-518.434 525.866,-505.171 503.681,-495.16 483.18,-487.86"/>
<polygon fill="black" stroke="black" points="484.184,-484.504 473.59,-484.593 481.927,-491.13 484.184,-484.504"/>
<text text-anchor="middle" x="606.841" y="-552.234" font-family="arial" font-size="14.00">define</text>
<text text-anchor="middle" x="606.841" y="-537.234" font-family="arial" font-size="14.00">model</text>
<text text-anchor="middle" x="606.841" y="-522.234" font-family="arial" font-size="14.00">with</text>
</g>
<!-- bc&#45;&gt;ul -->
<g id="edge3" class="edge"><title>bc&#45;&gt;ul</title>
<path fill="none" stroke="black" d="M444.325,-453.085C454.434,-444.818 465.859,-434.076 473.841,-422.434 489.989,-398.878 478.297,-384.153 496.841,-362.434 504.723,-353.201 515.063,-345.465 525.565,-339.189"/>
<polygon fill="black" stroke="black" points="527.358,-342.197 534.376,-334.26 523.94,-336.088 527.358,-342.197"/>
<text text-anchor="middle" x="518.341" y="-396.234" font-family="arial" font-size="14.00">names</text>
<text text-anchor="middle" x="518.341" y="-381.234" font-family="arial" font-size="14.00">enter</text>
</g>
<!-- ci -->
<g id="node6" class="node"><title>ci</title>
<ellipse fill="none" stroke="black" cx="253.841" cy="-317.563" rx="58.8803" ry="26.7407"/>
<text text-anchor="middle" x="253.841" y="-321.363" font-family="arial" font-size="14.00">Continous</text>
<text text-anchor="middle" x="253.841" y="-306.363" font-family="arial" font-size="14.00">Integration</text>
</g>
<!-- bc&#45;&gt;ci -->
<g id="edge7" class="edge"><title>bc&#45;&gt;ci</title>
<path fill="none" stroke="black" d="M389.451,-453.644C374.21,-445.429 356.261,-434.569 341.841,-422.434 317.096,-401.61 293.662,-373.371 277.207,-351.594"/>
<polygon fill="black" stroke="black" points="279.812,-349.231 271.036,-343.295 274.195,-353.408 279.812,-349.231"/>
<text text-anchor="middle" x="363.341" y="-411.234" font-family="arial" font-size="14.00">keep</text>
<text text-anchor="middle" x="363.341" y="-396.234" font-family="arial" font-size="14.00">model</text>
<text text-anchor="middle" x="363.341" y="-381.234" font-family="arial" font-size="14.00">unified</text>
<text text-anchor="middle" x="363.341" y="-366.234" font-family="arial" font-size="14.00">by</text>
</g>
<!-- cm -->
<g id="node7" class="node"><title>cm</title>
<ellipse fill="none" stroke="black" cx="392.841" cy="-317.563" rx="62.2891" ry="18"/>
<text text-anchor="middle" x="392.841" y="-313.863" font-family="arial" font-size="14.00">Context Map</text>
</g>
<!-- bc&#45;&gt;cm -->
<g id="edge8" class="edge"><title>bc&#45;&gt;cm</title>
<path fill="none" stroke="black" d="M408.842,-452.593C403.053,-444.054 396.867,-433.225 393.841,-422.434 386.758,-397.181 387.4,-367.099 389.275,-345.824"/>
<polygon fill="black" stroke="black" points="392.758,-346.166 390.3,-335.86 385.795,-345.45 392.758,-346.166"/>
<text text-anchor="middle" x="433.841" y="-411.234" font-family="arial" font-size="14.00">assess</text>
<text text-anchor="middle" x="433.841" y="-396.234" font-family="arial" font-size="14.00">/overview</text>
<text text-anchor="middle" x="433.841" y="-381.234" font-family="arial" font-size="14.00">relationships</text>
<text text-anchor="middle" x="433.841" y="-366.234" font-family="arial" font-size="14.00">with</text>
</g>
<!-- cd -->
<g id="node4" class="node"><title>cd</title>
<ellipse fill="none" stroke="black" cx="407.841" cy="-608.304" rx="65.7887" ry="18"/>
<text text-anchor="middle" x="407.841" y="-604.604" font-family="arial" font-size="14.00">Core Domain</text>
</g>
<!-- cd&#45;&gt;ul -->
<g id="edge4" class="edge"><title>cd&#45;&gt;ul</title>
<path fill="none" stroke="black" d="M468.412,-601.351C494.178,-595.65 522.275,-584.632 539.841,-563.434 543.301,-559.257 561.899,-408.772 569.55,-345.819"/>
<polygon fill="black" stroke="black" points="573.034,-346.166 570.763,-335.817 566.084,-345.323 573.034,-346.166"/>
<text text-anchor="middle" x="583.841" y="-489.234" font-family="arial" font-size="14.00">cultivate</text>
<text text-anchor="middle" x="583.841" y="-474.234" font-family="arial" font-size="14.00">rich</text>
<text text-anchor="middle" x="583.841" y="-459.234" font-family="arial" font-size="14.00">model</text>
<text text-anchor="middle" x="583.841" y="-444.234" font-family="arial" font-size="14.00">with</text>
</g>
<!-- cd&#45;&gt;bc -->
<g id="edge5" class="edge"><title>cd&#45;&gt;bc</title>
<path fill="none" stroke="black" d="M406.73,-590.168C405.869,-572.197 405.339,-543.183 408.841,-518.434 409.775,-511.832 411.364,-504.845 413.118,-498.333"/>
<polygon fill="black" stroke="black" points="416.511,-499.196 415.937,-488.617 409.789,-497.245 416.511,-499.196"/>
<text text-anchor="middle" x="474.341" y="-544.734" font-family="arial" font-size="14.00">work in</text>
<text text-anchor="middle" x="474.341" y="-529.734" font-family="arial" font-size="14.00">autnonomous, clean </text>
</g>
<!-- gs -->
<g id="node5" class="node"><title>gs</title>
<ellipse fill="none" stroke="black" cx="253.841" cy="-470.434" rx="67.7647" ry="26.7407"/>
<text text-anchor="middle" x="253.841" y="-474.234" font-family="arial" font-size="14.00">Generic</text>
<text text-anchor="middle" x="253.841" y="-459.234" font-family="arial" font-size="14.00">Subdomains</text>
</g>
<!-- cd&#45;&gt;gs -->
<g id="edge6" class="edge"><title>cd&#45;&gt;gs</title>
<path fill="none" stroke="black" d="M369.853,-593.556C353.056,-586.282 333.774,-576.187 318.841,-563.434 299.969,-547.316 283.834,-524.571 272.361,-505.729"/>
<polygon fill="black" stroke="black" points="275.37,-503.94 267.268,-497.113 269.343,-507.502 275.37,-503.94"/>
<text text-anchor="middle" x="360.841" y="-552.234" font-family="arial" font-size="14.00">avoid</text>
<text text-anchor="middle" x="360.841" y="-537.234" font-family="arial" font-size="14.00">overinvesting</text>
<text text-anchor="middle" x="360.841" y="-522.234" font-family="arial" font-size="14.00">in</text>
</g>
<!-- sk -->
<g id="node8" class="node"><title>sk</title>
<ellipse fill="none" stroke="black" cx="43.8406" cy="-142.217" rx="43.6818" ry="26.7407"/>
<text text-anchor="middle" x="43.8406" y="-146.017" font-family="arial" font-size="14.00">Shared</text>
<text text-anchor="middle" x="43.8406" y="-131.017" font-family="arial" font-size="14.00">Kernel</text>
</g>
<!-- cm&#45;&gt;sk -->
<g id="edge9" class="edge"><title>cm&#45;&gt;sk</title>
<path fill="none" stroke="black" d="M359.437,-302.326C347.744,-297.899 334.396,-293.46 321.841,-290.693 275.451,-280.473 145.065,-303.422 108.841,-272.693 82.6181,-250.449 105.557,-228.278 89.8406,-197.693 85.4366,-189.123 79.4576,-180.727 73.2686,-173.193"/>
<polygon fill="black" stroke="black" points="75.7175,-170.674 66.5352,-165.388 70.4172,-175.246 75.7175,-170.674"/>
<text text-anchor="middle" x="156.841" y="-246.493" font-family="arial" font-size="14.00">interdependent</text>
<text text-anchor="middle" x="156.841" y="-231.493" font-family="arial" font-size="14.00">context</text>
<text text-anchor="middle" x="156.841" y="-216.493" font-family="arial" font-size="14.00">from</text>
</g>
<!-- cm&#45;&gt;sk -->
<g id="edge10" class="edge"><title>cm&#45;&gt;sk</title>
<path fill="none" stroke="black" d="M359.471,-302.165C347.781,-297.726 334.426,-293.319 321.841,-290.693 290.237,-284.099 53.9506,-296.218 31.8406,-272.693 8.36598,-247.717 16.9587,-206.821 27.8378,-177.675"/>
<polygon fill="black" stroke="black" points="31.1303,-178.867 31.5719,-168.282 24.6254,-176.282 31.1303,-178.867"/>
<text text-anchor="middle" x="58.8406" y="-253.993" font-family="arial" font-size="14.00">overlap</text>
<text text-anchor="middle" x="58.8406" y="-238.993" font-family="arial" font-size="14.00">allied</text>
<text text-anchor="middle" x="58.8406" y="-223.993" font-family="arial" font-size="14.00">contexts</text>
<text text-anchor="middle" x="58.8406" y="-208.993" font-family="arial" font-size="14.00">through</text>
</g>
<!-- cs -->
<g id="node9" class="node"><title>cs</title>
<ellipse fill="none" stroke="black" cx="170.841" cy="-142.217" rx="55.7232" ry="26.7407"/>
<text text-anchor="middle" x="170.841" y="-146.017" font-family="arial" font-size="14.00">Customer</text>
<text text-anchor="middle" x="170.841" y="-131.017" font-family="arial" font-size="14.00">/Supplier</text>
</g>
<!-- cm&#45;&gt;cs -->
<g id="edge11" class="edge"><title>cm&#45;&gt;cs</title>
<path fill="none" stroke="black" d="M357.398,-302.577C346.136,-298.424 333.561,-294.083 321.841,-290.693 285.58,-280.208 267.664,-297.066 238.841,-272.693 211.427,-249.512 225.888,-229.289 208.841,-197.693 204.952,-190.486 200.297,-183.086 195.599,-176.154"/>
<polygon fill="black" stroke="black" points="198.274,-173.871 189.681,-167.673 192.534,-177.877 198.274,-173.871"/>
<text text-anchor="middle" x="265.841" y="-253.993" font-family="arial" font-size="14.00">relate</text>
<text text-anchor="middle" x="265.841" y="-238.993" font-family="arial" font-size="14.00">allied</text>
<text text-anchor="middle" x="265.841" y="-223.993" font-family="arial" font-size="14.00">contexts</text>
<text text-anchor="middle" x="265.841" y="-208.993" font-family="arial" font-size="14.00">as</text>
</g>
<!-- c -->
<g id="node10" class="node"><title>c</title>
<ellipse fill="none" stroke="black" cx="300.841" cy="-142.217" rx="55.7903" ry="18"/>
<text text-anchor="middle" x="300.841" y="-138.517" font-family="arial" font-size="14.00">Conformist</text>
</g>
<!-- cm&#45;&gt;c -->
<g id="edge12" class="edge"><title>cm&#45;&gt;c</title>
<path fill="none" stroke="black" d="M353.631,-303.382C339.122,-296.512 323.994,-286.571 314.841,-272.693 294.729,-242.202 294.426,-198.631 296.939,-170.632"/>
<polygon fill="black" stroke="black" points="300.453,-170.69 298.049,-160.372 293.494,-169.937 300.453,-170.69"/>
<text text-anchor="middle" x="346.841" y="-238.993" font-family="arial" font-size="14.00">minimize</text>
<text text-anchor="middle" x="346.841" y="-223.993" font-family="arial" font-size="14.00">translation</text>
</g>
<!-- ohs -->
<g id="node11" class="node"><title>ohs</title>
<ellipse fill="none" stroke="black" cx="510.841" cy="-142.217" rx="45.9239" ry="37.4533"/>
<text text-anchor="middle" x="510.841" y="-153.517" font-family="arial" font-size="14.00">Open</text>
<text text-anchor="middle" x="510.841" y="-138.517" font-family="arial" font-size="14.00">Host</text>
<text text-anchor="middle" x="510.841" y="-123.517" font-family="arial" font-size="14.00">Service</text>
</g>
<!-- cm&#45;&gt;ohs -->
<g id="edge13" class="edge"><title>cm&#45;&gt;ohs</title>
<path fill="none" stroke="black" d="M404.37,-299.627C422.463,-273.048 458.039,-220.784 483.074,-184.007"/>
<polygon fill="black" stroke="black" points="486.144,-185.717 488.878,-175.481 480.357,-181.778 486.144,-185.717"/>
<text text-anchor="middle" x="497.341" y="-253.993" font-family="arial" font-size="14.00">support</text>
<text text-anchor="middle" x="497.341" y="-238.993" font-family="arial" font-size="14.00">multipe</text>
<text text-anchor="middle" x="497.341" y="-223.993" font-family="arial" font-size="14.00">clients</text>
<text text-anchor="middle" x="497.341" y="-208.993" font-family="arial" font-size="14.00">through</text>
</g>
<!-- pl -->
<g id="node12" class="node"><title>pl</title>
<ellipse fill="none" stroke="black" cx="429.841" cy="-26.8701" rx="56.6372" ry="26.7407"/>
<text text-anchor="middle" x="429.841" y="-30.6701" font-family="arial" font-size="14.00">Published</text>
<text text-anchor="middle" x="429.841" y="-15.6701" font-family="arial" font-size="14.00">Language</text>
</g>
<!-- cm&#45;&gt;pl -->
<g id="edge14" class="edge"><title>cm&#45;&gt;pl</title>
<path fill="none" stroke="black" d="M391.805,-299.33C390.006,-262.962 387.727,-175.865 401.841,-104.74 404.638,-90.6409 409.6,-75.6758 414.577,-62.7329"/>
<polygon fill="black" stroke="black" points="417.895,-63.8625 418.351,-53.2775 411.394,-61.2677 417.895,-63.8625"/>
<text text-anchor="middle" x="428.841" y="-161.017" font-family="arial" font-size="14.00">loosely</text>
<text text-anchor="middle" x="428.841" y="-146.017" font-family="arial" font-size="14.00">couple</text>
<text text-anchor="middle" x="428.841" y="-131.017" font-family="arial" font-size="14.00">contexts</text>
<text text-anchor="middle" x="428.841" y="-116.017" font-family="arial" font-size="14.00">through</text>
</g>
<!-- sw -->
<g id="node13" class="node"><title>sw</title>
<ellipse fill="none" stroke="black" cx="627.841" cy="-142.217" rx="53.066" ry="26.7407"/>
<text text-anchor="middle" x="627.841" y="-146.017" font-family="arial" font-size="14.00">Seperate</text>
<text text-anchor="middle" x="627.841" y="-131.017" font-family="arial" font-size="14.00">Ways</text>
</g>
<!-- cm&#45;&gt;sw -->
<g id="edge16" class="edge"><title>cm&#45;&gt;sw</title>
<path fill="none" stroke="black" d="M429.697,-302.857C440.933,-298.803 453.352,-294.449 464.841,-290.693 491.708,-281.911 502.435,-288.543 525.841,-272.693 562.237,-248.046 591.68,-206.36 609.409,-176.957"/>
<polygon fill="black" stroke="black" points="612.473,-178.652 614.53,-168.259 606.441,-175.101 612.473,-178.652"/>
<text text-anchor="middle" x="615.841" y="-246.493" font-family="arial" font-size="14.00">frees</text>
<text text-anchor="middle" x="615.841" y="-231.493" font-family="arial" font-size="14.00">teams</text>
<text text-anchor="middle" x="615.841" y="-216.493" font-family="arial" font-size="14.00">to go</text>
</g>
<!-- acl -->
<g id="node14" class="node"><title>acl</title>
<ellipse fill="none" stroke="black" cx="755.841" cy="-142.217" rx="56.6372" ry="37.4533"/>
<text text-anchor="middle" x="755.841" y="-153.517" font-family="arial" font-size="14.00">Anti&#45;</text>
<text text-anchor="middle" x="755.841" y="-138.517" font-family="arial" font-size="14.00">corruption</text>
<text text-anchor="middle" x="755.841" y="-123.517" font-family="arial" font-size="14.00">Layer</text>
</g>
<!-- cm&#45;&gt;acl -->
<g id="edge17" class="edge"><title>cm&#45;&gt;acl</title>
<path fill="none" stroke="black" d="M427.124,-302.329C438.898,-297.958 452.278,-293.552 464.841,-290.693 541.08,-273.347 570.179,-308.199 639.841,-272.693 678.019,-253.234 709.531,-215.532 730.027,-185.808"/>
<polygon fill="black" stroke="black" points="733.096,-187.516 735.77,-177.265 727.287,-183.611 733.096,-187.516"/>
<text text-anchor="middle" x="753.341" y="-261.493" font-family="arial" font-size="14.00">translate</text>
<text text-anchor="middle" x="753.341" y="-246.493" font-family="arial" font-size="14.00">and</text>
<text text-anchor="middle" x="753.341" y="-231.493" font-family="arial" font-size="14.00">insulate</text>
<text text-anchor="middle" x="753.341" y="-216.493" font-family="arial" font-size="14.00">unilateraly</text>
<text text-anchor="middle" x="753.341" y="-201.493" font-family="arial" font-size="14.00">with</text>
</g>
<!-- bbm -->
<g id="node15" class="node"><title>bbm</title>
<ellipse fill="none" stroke="black" cx="869.841" cy="-142.217" rx="39.6962" ry="37.4533"/>
<text text-anchor="middle" x="869.841" y="-153.517" font-family="arial" font-size="14.00">Big</text>
<text text-anchor="middle" x="869.841" y="-138.517" font-family="arial" font-size="14.00">Ball of</text>
<text text-anchor="middle" x="869.841" y="-123.517" font-family="arial" font-size="14.00">Mud</text>
</g>
<!-- cm&#45;&gt;bbm -->
<g id="edge18" class="edge"><title>cm&#45;&gt;bbm</title>
<path fill="none" stroke="black" d="M426.325,-302.259C438.266,-297.77 451.954,-293.309 464.841,-290.693 500.176,-283.523 757.798,-291.034 788.841,-272.693 820.666,-253.891 841.851,-217.169 854.545,-187.621"/>
<polygon fill="black" stroke="black" points="857.807,-188.891 858.371,-178.311 851.333,-186.23 857.807,-188.891"/>
<text text-anchor="middle" x="884.841" y="-253.993" font-family="arial" font-size="14.00">segregate</text>
<text text-anchor="middle" x="884.841" y="-238.993" font-family="arial" font-size="14.00">the</text>
<text text-anchor="middle" x="884.841" y="-223.993" font-family="arial" font-size="14.00">conceptual</text>
<text text-anchor="middle" x="884.841" y="-208.993" font-family="arial" font-size="14.00">messes</text>
</g>
<!-- ohs&#45;&gt;pl -->
<g id="edge15" class="edge"><title>ohs&#45;&gt;pl</title>
<path fill="none" stroke="black" d="M488.062,-109.342C477.244,-94.2039 464.325,-76.1257 453.408,-60.8489"/>
<polygon fill="black" stroke="black" points="456.237,-58.7875 447.575,-52.6864 450.542,-62.8575 456.237,-58.7875"/>
<text text-anchor="middle" x="499.841" y="-75.5401" font-family="arial" font-size="14.00">formalize</text>
</g>
</g>
</svg>
