<?xml version="1.0" encoding="UTF-8" standalone="no"?>
<!DOCTYPE svg PUBLIC "-//W3C//DTD SVG 1.1//EN"
 "http://www.w3.org/Graphics/SVG/1.1/DTD/svg11.dtd">
<!-- Generated by graphviz version 2.38.0 (20140413.2041)
 -->
<!-- Title: g Pages: 1 -->
<svg width="1339pt" height="603pt"
 viewBox="0.00 0.00 1339.00 603.00" xmlns="http://www.w3.org/2000/svg" xmlns:xlink="http://www.w3.org/1999/xlink">
<g id="graph0" class="graph" transform="scale(1 1) rotate(0) translate(4 599)">
<title>g</title>
<polygon fill="white" stroke="none" points="-4,4 -4,-599 1335,-599 1335,4 -4,4"/>
<g id="clust3" class="cluster"><title>clusterExample</title>
</g>
<!-- in -->
<g id="node1" class="node"><title>in</title>
<polygon fill="lightblue" stroke="black" points="378,-352.5 76,-352.5 76,-264.5 384,-264.5 384,-346.5 378,-352.5"/>
<polyline fill="none" stroke="black" points="378,-352.5 378,-346.5 "/>
<polyline fill="none" stroke="black" points="384,-346.5 378,-346.5 "/>
<text text-anchor="start" x="88" y="-328.5" font-family="Helvetica,sans-Serif" font-size="20.00">DCI</text>
<text text-anchor="start" x="131" y="-329.5" font-family="Helvetica,sans-Serif" font-weight="bold" font-size="20.00">Interaction</text>
<text text-anchor="start" x="237" y="-329.5" font-family="Helvetica,sans-Serif" font-size="20.00"> </text>
<text text-anchor="start" x="131" y="-300.5" font-family="Helvetica,sans-Serif" font-size="20.00">roles have responsibilities,</text>
<text text-anchor="start" x="141.5" y="-278.5" font-family="Helvetica,sans-Serif" font-size="20.00">expressed via interfaces</text>
</g>
<!-- mcr -->
<g id="node4" class="node"><title>mcr</title>
<polygon fill="yellow" stroke="black" points="584,-334.5 420,-334.5 420,-282.5 584,-282.5 584,-334.5"/>
<text text-anchor="middle" x="502" y="-314.5" font-family="Helvetica,sans-Serif" font-size="20.00">&lt;&lt;metamodel&gt;&gt;</text>
<text text-anchor="middle" x="502" y="-292.5" font-family="Helvetica,sans-Serif" font-size="20.00">Role</text>
</g>
<!-- in&#45;&gt;mcr -->
<g id="edge1" class="edge"><title>in&#45;&gt;mcr</title>
<path fill="none" stroke="black" stroke-dasharray="1,5" d="M384.063,-308.5C396.041,-308.5 408.019,-308.5 419.997,-308.5"/>
</g>
<!-- dn -->
<g id="node2" class="node"><title>dn</title>
<polygon fill="lightblue" stroke="black" points="378,-150 0,-150 0,-0 384,-0 384,-144 378,-150"/>
<polyline fill="none" stroke="black" points="378,-150 378,-144 "/>
<polyline fill="none" stroke="black" points="384,-144 378,-144 "/>
<text text-anchor="start" x="12" y="-126" font-family="Helvetica,sans-Serif" font-size="20.00">DCI</text>
<text text-anchor="start" x="92" y="-127" font-family="Helvetica,sans-Serif" font-weight="bold" font-size="20.00">Data</text>
<text text-anchor="start" x="137" y="-127" font-family="Helvetica,sans-Serif" font-size="20.00"> </text>
<text text-anchor="start" x="12" y="-98" font-family="Helvetica,sans-Serif" font-size="20.00">MVC</text>
<text text-anchor="start" x="92" y="-98" font-family="Helvetica,sans-Serif" font-size="20.00">Model</text>
<text text-anchor="start" x="12" y="-70" font-family="Helvetica,sans-Serif" font-size="20.00">DDD</text>
<text text-anchor="start" x="92" y="-70" font-family="Helvetica,sans-Serif" font-size="20.00">Entity, ValueObject, Aggregate</text>
<text text-anchor="start" x="12" y="-42" font-family="Helvetica,sans-Serif" font-size="20.00">ISIS</text>
<text text-anchor="start" x="92" y="-43" font-family="Helvetica,sans-Serif" font-weight="bold" font-size="20.00">DomainObject</text>
<text text-anchor="start" x="12" y="-14" font-family="Helvetica,sans-Serif" font-size="20.00">Statefull</text>
<text text-anchor="start" x="92" y="-14" font-family="Helvetica,sans-Serif" font-size="20.00">Yes</text>
</g>
<!-- mcd -->
<g id="node6" class="node"><title>mcd</title>
<polygon fill="lightgreen" stroke="black" points="584,-101 420,-101 420,-49 584,-49 584,-101"/>
<text text-anchor="middle" x="502" y="-81" font-family="Helvetica,sans-Serif" font-size="20.00">&lt;&lt;metamodel&gt;&gt;</text>
<text text-anchor="middle" x="502" y="-59" font-family="Helvetica,sans-Serif" font-size="20.00">Object</text>
</g>
<!-- dn&#45;&gt;mcd -->
<g id="edge3" class="edge"><title>dn&#45;&gt;mcd</title>
<path fill="none" stroke="black" stroke-dasharray="1,5" d="M384.236,-75C396.043,-75 407.85,-75 419.657,-75"/>
</g>
<!-- cn -->
<g id="node3" class="node"><title>cn</title>
<polygon fill="lightblue" stroke="black" points="298,-595 22,-595 22,-445 304,-445 304,-589 298,-595"/>
<polyline fill="none" stroke="black" points="298,-595 298,-589 "/>
<polyline fill="none" stroke="black" points="304,-589 298,-589 "/>
<text text-anchor="start" x="34" y="-571" font-family="Helvetica,sans-Serif" font-size="20.00">DCI</text>
<text text-anchor="start" x="114" y="-572" font-family="Helvetica,sans-Serif" font-weight="bold" font-size="20.00">Context</text>
<text text-anchor="start" x="191" y="-572" font-family="Helvetica,sans-Serif" font-size="20.00"> </text>
<text text-anchor="start" x="34" y="-543" font-family="Helvetica,sans-Serif" font-size="20.00">aka</text>
<text text-anchor="start" x="114" y="-543" font-family="Helvetica,sans-Serif" font-size="20.00">Scenario, Algorithm</text>
<text text-anchor="start" x="34" y="-515" font-family="Helvetica,sans-Serif" font-size="20.00">UML</text>
<text text-anchor="start" x="114" y="-515" font-family="Helvetica,sans-Serif" font-size="20.00">UseCase</text>
<text text-anchor="start" x="34" y="-487" font-family="Helvetica,sans-Serif" font-size="20.00">ISIS</text>
<text text-anchor="start" x="114" y="-488" font-family="Helvetica,sans-Serif" font-weight="bold" font-size="20.00">ViewModel</text>
<text text-anchor="start" x="34" y="-459" font-family="Helvetica,sans-Serif" font-size="20.00">Statefull</text>
<text text-anchor="start" x="114" y="-459" font-family="Helvetica,sans-Serif" font-size="20.00">No</text>
</g>
<!-- mcuc -->
<g id="node5" class="node"><title>mcuc</title>
<polygon fill="pink" stroke="black" points="584,-546 420,-546 420,-494 584,-494 584,-546"/>
<text text-anchor="middle" x="502" y="-526" font-family="Helvetica,sans-Serif" font-size="20.00">&lt;&lt;metamodel&gt;&gt;</text>
<text text-anchor="middle" x="502" y="-504" font-family="Helvetica,sans-Serif" font-size="20.00">UseCase</text>
</g>
<!-- cn&#45;&gt;mcuc -->
<g id="edge2" class="edge"><title>cn&#45;&gt;mcuc</title>
<path fill="none" stroke="red" stroke-dasharray="1,5" d="M304.312,-520C343.554,-520 384.869,-520 419.525,-520"/>
<text text-anchor="middle" x="362" y="-573" font-family="Helvetica,sans-Serif" font-size="20.00" fill="red">consists of</text>
<text text-anchor="middle" x="362" y="-551" font-family="Helvetica,sans-Serif" font-size="20.00" fill="red">1..n</text>
<text text-anchor="middle" x="362" y="-529" font-family="Helvetica,sans-Serif" font-size="20.00" fill="red">?</text>
</g>
<!-- mcr&#45;&gt;mcd -->
<g id="edge4" class="edge"><title>mcr&#45;&gt;mcd</title>
<path fill="none" stroke="black" d="M502,-282.285C502,-240.885 502,-158.404 502,-111.245"/>
<polygon fill="black" stroke="black" points="502,-101.184 506.5,-111.184 502,-106.184 502,-111.184 502,-111.184 502,-111.184 502,-106.184 497.5,-111.184 502,-101.184 502,-101.184"/>
<text text-anchor="middle" x="496" y="-107.184" font-family="Helvetica,sans-Serif" font-size="20.00">1</text>
<text text-anchor="middle" x="484.5" y="-266.285" font-family="Helvetica,sans-Serif" font-size="20.00">1..n</text>
</g>
<!-- mcuc&#45;&gt;mcr -->
<g id="edge5" class="edge"><title>mcuc&#45;&gt;mcr</title>
<path fill="none" stroke="black" d="M502,-493.729C502,-456.508 502,-386.807 502,-344.628"/>
<polygon fill="black" stroke="black" points="502,-334.534 506.5,-344.534 502,-339.534 502,-344.534 502,-344.534 502,-344.534 502,-339.534 497.5,-344.534 502,-334.534 502,-334.534"/>
<text text-anchor="middle" x="484.5" y="-340.534" font-family="Helvetica,sans-Serif" font-size="20.00">1..n</text>
</g>
<!-- tx -->
<g id="node7" class="node"><title>tx</title>
<polygon fill="lightgreen" stroke="black" points="797.5,-282.5 797.5,-334.5 994.5,-334.5 994.5,-282.5 797.5,-282.5"/>
<text text-anchor="middle" x="896" y="-314.5" font-family="Helvetica,sans-Serif" font-size="20.00">&lt;&lt;object&gt;&gt;</text>
<text text-anchor="middle" x="896" y="-292.5" font-family="Helvetica,sans-Serif" font-size="20.00">AccountTransaction</text>
</g>
<!-- cAcc -->
<g id="node8" class="node"><title>cAcc</title>
<polygon fill="lightgreen" stroke="black" points="635,-49 635,-101 811,-101 811,-49 635,-49"/>
<text text-anchor="middle" x="723" y="-81" font-family="Helvetica,sans-Serif" font-size="20.00">&lt;&lt;object&gt;&gt;</text>
<text text-anchor="middle" x="723" y="-59" font-family="Helvetica,sans-Serif" font-size="20.00">CheckingAccount</text>
</g>
<!-- tx&#45;&gt;cAcc -->
<g id="edge8" class="edge"><title>tx&#45;&gt;cAcc</title>
<path fill="none" stroke="black" d="M869.596,-282.398C848.939,-263.795 818.809,-238.848 789,-222 777.86,-215.703 770.701,-221.383 762,-212 736.528,-184.53 727.564,-141.519 724.479,-111.236"/>
<polygon fill="black" stroke="black" points="723.616,-101.101 728.949,-110.683 724.04,-106.083 724.465,-111.065 724.465,-111.065 724.465,-111.065 724.04,-106.083 719.981,-111.447 723.616,-101.101 723.616,-101.101"/>
<text text-anchor="middle" x="830" y="-196" font-family="Helvetica,sans-Serif" font-size="20.00">&lt;&lt;role&gt;&gt;</text>
<text text-anchor="middle" x="830" y="-174" font-family="Helvetica,sans-Serif" font-size="20.00">sourceAccount</text>
</g>
<!-- sAcc -->
<g id="node9" class="node"><title>sAcc</title>
<polygon fill="lightgreen" stroke="black" points="829.5,-49 829.5,-101 992.5,-101 992.5,-49 829.5,-49"/>
<text text-anchor="middle" x="911" y="-81" font-family="Helvetica,sans-Serif" font-size="20.00">&lt;&lt;object&gt;&gt;</text>
<text text-anchor="middle" x="911" y="-59" font-family="Helvetica,sans-Serif" font-size="20.00">SavingsAccount</text>
</g>
<!-- tx&#45;&gt;sAcc -->
<g id="edge10" class="edge"><title>tx&#45;&gt;sAcc</title>
<path fill="none" stroke="black" d="M897.634,-282.285C900.316,-240.885 905.661,-158.404 908.716,-111.245"/>
<polygon fill="black" stroke="black" points="909.368,-101.184 913.212,-111.454 909.045,-106.174 908.722,-111.163 908.722,-111.163 908.722,-111.163 909.045,-106.174 904.231,-110.872 909.368,-101.184 909.368,-101.184"/>
<text text-anchor="middle" x="967.5" y="-196" font-family="Helvetica,sans-Serif" font-size="20.00">&lt;&lt;role&gt;&gt;</text>
<text text-anchor="middle" x="967.5" y="-174" font-family="Helvetica,sans-Serif" font-size="20.00">targetAccount</text>
</g>
<!-- iAcc -->
<g id="node10" class="node"><title>iAcc</title>
<polygon fill="yellow" stroke="black" points="602.5,-230.5 602.5,-386.5 779.5,-386.5 779.5,-230.5 602.5,-230.5"/>
<text text-anchor="middle" x="691" y="-366.5" font-family="Helvetica,sans-Serif" font-size="20.00">&lt;&lt;interface&gt;&gt;</text>
<text text-anchor="middle" x="691" y="-344.5" font-family="Helvetica,sans-Serif" font-size="20.00">Account</text>
<polyline fill="none" stroke="black" points="602.5,-334.5 779.5,-334.5 "/>
<text text-anchor="middle" x="691" y="-314.5" font-family="Helvetica,sans-Serif" font-size="20.00">minimumBalance</text>
<polyline fill="none" stroke="black" points="602.5,-304.5 779.5,-304.5 "/>
<text text-anchor="middle" x="691" y="-284.5" font-family="Helvetica,sans-Serif" font-size="20.00">deposit(amount)</text>
<text text-anchor="middle" x="691" y="-262.5" font-family="Helvetica,sans-Serif" font-size="20.00">withdraw(amount)</text>
<text text-anchor="middle" x="691" y="-240.5" font-family="Helvetica,sans-Serif" font-size="20.00">getBalance()</text>
</g>
<!-- iAcc&#45;&gt;cAcc -->
<g id="edge11" class="edge"><title>iAcc:s&#45;&gt;cAcc</title>
<path fill="none" stroke="black" stroke-dasharray="5,2" d="M690.873,-219.31C690.393,-199.81 688.916,-191.253 693,-168 697.069,-144.835 705.659,-119.492 712.609,-101.281"/>
<polygon fill="none" stroke="black" points="687.375,-219.544 691,-229.5 694.375,-219.457 687.375,-219.544"/>
<text text-anchor="middle" x="660.609" y="-107.281" font-family="Helvetica,sans-Serif" font-size="20.00">implements</text>
</g>
<!-- iAcc&#45;&gt;sAcc -->
<g id="edge12" class="edge"><title>iAcc:s&#45;&gt;sAcc</title>
<path fill="none" stroke="black" stroke-dasharray="5,2" d="M691.517,-219.426C694.319,-194.104 708.469,-184.347 733,-168 765.858,-146.103 784.332,-166.939 820,-150 845.2,-138.032 869.49,-117.681 886.626,-101.346"/>
<polygon fill="none" stroke="black" points="688.017,-219.334 691,-229.5 695.008,-219.693 688.017,-219.334"/>
<text text-anchor="middle" x="834.626" y="-107.346" font-family="Helvetica,sans-Serif" font-size="20.00">implements</text>
</g>
<!-- mt -->
<g id="node11" class="node"><title>mt</title>
<polygon fill="pink" stroke="black" points="799.5,-453 799.5,-587 1276.5,-587 1276.5,-453 799.5,-453"/>
<text text-anchor="middle" x="1038" y="-567" font-family="Helvetica,sans-Serif" font-size="20.00">&lt;&lt;usecase&gt;&gt;</text>
<text text-anchor="middle" x="1038" y="-545" font-family="Helvetica,sans-Serif" font-size="20.00">MoneyTransfer</text>
<polyline fill="none" stroke="black" points="799.5,-535 1276.5,-535 "/>
<text text-anchor="middle" x="1038" y="-515" font-family="Helvetica,sans-Serif" font-size="20.00"> </text>
<polyline fill="none" stroke="black" points="799.5,-505 1276.5,-505 "/>
<text text-anchor="middle" x="1038" y="-485" font-family="Helvetica,sans-Serif" font-size="20.00">+MoneyTransfer(Account::source, Account::target)</text>
<text text-anchor="middle" x="1038" y="-463" font-family="Helvetica,sans-Serif" font-size="20.00">+transfer(amount)</text>
</g>
<!-- mt&#45;&gt;tx -->
<g id="edge6" class="edge"><title>mt&#45;&gt;tx</title>
<path fill="none" stroke="black" d="M990.856,-452.861C984.801,-444.194 978.722,-435.407 973,-427 954.017,-399.11 933.067,-367.054 917.818,-343.477"/>
<polygon fill="black" stroke="black" points="912.269,-334.882 921.474,-340.842 914.981,-339.082 917.693,-343.283 917.693,-343.283 917.693,-343.283 914.981,-339.082 913.913,-345.724 912.269,-334.882 912.269,-334.882"/>
<text text-anchor="middle" x="998.5" y="-411" font-family="Helvetica,sans-Serif" font-size="20.00">has a</text>
</g>
<!-- mt&#45;&gt;cAcc -->
<g id="edge7" class="edge"><title>mt&#45;&gt;cAcc</title>
<path fill="none" stroke="black" d="M1037.59,-452.928C1036.66,-354.08 1033.65,-178.129 1024,-168 992.764,-135.208 863.263,-166.275 821,-150 796.846,-140.698 773.561,-123.576 755.753,-108.143"/>
<polygon fill="black" stroke="black" points="747.973,-101.205 758.431,-104.502 751.705,-104.533 755.436,-107.861 755.436,-107.861 755.436,-107.861 751.705,-104.533 752.441,-111.219 747.973,-101.205 747.973,-101.205"/>
<text text-anchor="middle" x="1104" y="-314.5" font-family="Helvetica,sans-Serif" font-size="20.00">&lt;&lt;role&gt;&gt;</text>
<text text-anchor="middle" x="1104" y="-292.5" font-family="Helvetica,sans-Serif" font-size="20.00">sourceAccount</text>
</g>
<!-- mt&#45;&gt;sAcc -->
<g id="edge9" class="edge"><title>mt&#45;&gt;sAcc</title>
<path fill="none" stroke="black" d="M1135.07,-452.973C1152.49,-436.248 1168.2,-416.761 1178,-395 1209.56,-324.887 1217.21,-288.137 1178,-222 1140.27,-158.374 1063.95,-120.673 1002.53,-99.5712"/>
<polygon fill="black" stroke="black" points="992.812,-96.3256 1003.72,-95.2241 997.554,-97.909 1002.3,-99.4925 1002.3,-99.4925 1002.3,-99.4925 997.554,-97.909 1000.87,-103.761 992.812,-96.3256 992.812,-96.3256"/>
<text text-anchor="middle" x="1267.5" y="-314.5" font-family="Helvetica,sans-Serif" font-size="20.00">&lt;&lt;role&gt;&gt;</text>
<text text-anchor="middle" x="1267.5" y="-292.5" font-family="Helvetica,sans-Serif" font-size="20.00">targetAccount</text>
</g>
</g>
</svg>
