<?xml version="1.0" encoding="UTF-8" standalone="no"?>
<!DOCTYPE svg PUBLIC "-//W3C//DTD SVG 1.1//EN"
 "http://www.w3.org/Graphics/SVG/1.1/DTD/svg11.dtd">
<!-- Generated by graphviz version 2.38.0 (20140413.2041)
 -->
<!-- Title: g Pages: 1 -->
<svg width="795pt" height="1060pt"
 viewBox="0.00 0.00 794.55 1060.09" xmlns="http://www.w3.org/2000/svg" xmlns:xlink="http://www.w3.org/1999/xlink">
<g id="graph0" class="graph" transform="scale(1 1) rotate(0) translate(4 1056.09)">
<title>g</title>
<polygon fill="white" stroke="none" points="-4,4 -4,-1056.09 790.554,-1056.09 790.554,4 -4,4"/>
<!-- r -->
<g id="node1" class="node"><title>r</title>
<ellipse fill="none" stroke="black" cx="359.5" cy="-652.201" rx="51.1914" ry="18"/>
<text text-anchor="middle" x="359.5" y="-648.501" font-family="Times New Roman,serif" font-size="14.00">Readability</text>
</g>
<!-- c -->
<g id="node2" class="node"><title>c</title>
<ellipse fill="none" stroke="black" cx="436.5" cy="-459.09" rx="76.8869" ry="18"/>
<text text-anchor="middle" x="436.5" y="-455.39" font-family="Times New Roman,serif" font-size="14.00">Comprehensibility</text>
</g>
<!-- r&#45;&gt;c -->
<g id="edge3" class="edge"><title>r&#45;&gt;c</title>
<path fill="none" stroke="black" d="M362.084,-633.924C365.272,-614.871 371.529,-583.528 381.5,-557.96 391.587,-532.095 407.477,-504.713 419.589,-485.51"/>
<polygon fill="black" stroke="black" points="422.568,-487.348 425.021,-477.041 416.676,-483.569 422.568,-487.348"/>
</g>
<!-- sc -->
<g id="node5" class="node"><title>sc</title>
<ellipse fill="lightgreen" stroke="black" cx="436.5" cy="-324.35" rx="56.6372" ry="26.7407"/>
<text text-anchor="middle" x="436.5" y="-328.15" font-family="Times New Roman,serif" font-size="14.00">Sustainable</text>
<text text-anchor="middle" x="436.5" y="-313.15" font-family="Times New Roman,serif" font-size="14.00">Code</text>
</g>
<!-- c&#45;&gt;sc -->
<g id="edge4" class="edge"><title>c&#45;&gt;sc</title>
<path fill="none" stroke="black" d="M436.5,-441.009C436.5,-421.069 436.5,-387.532 436.5,-361.691"/>
<polygon fill="black" stroke="black" points="440,-361.504 436.5,-351.504 433,-361.504 440,-361.504"/>
</g>
<!-- bp -->
<g id="node3" class="node"><title>bp</title>
<ellipse fill="none" stroke="black" cx="434.5" cy="-584.831" rx="43.6818" ry="26.7407"/>
<text text-anchor="middle" x="434.5" y="-588.631" font-family="Times New Roman,serif" font-size="14.00">Best</text>
<text text-anchor="middle" x="434.5" y="-573.631" font-family="Times New Roman,serif" font-size="14.00">Practice</text>
</g>
<!-- bp&#45;&gt;c -->
<g id="edge2" class="edge"><title>bp&#45;&gt;c</title>
<path fill="none" stroke="black" d="M434.919,-557.891C435.253,-537.251 435.718,-508.448 436.058,-487.447"/>
<polygon fill="black" stroke="black" points="439.56,-487.316 436.222,-477.26 432.561,-487.202 439.56,-487.316"/>
</g>
<!-- p -->
<g id="node4" class="node"><title>p</title>
<ellipse fill="none" stroke="black" cx="434.5" cy="-730.177" rx="43.6818" ry="26.7407"/>
<text text-anchor="middle" x="434.5" y="-733.977" font-family="Times New Roman,serif" font-size="14.00">Design</text>
<text text-anchor="middle" x="434.5" y="-718.977" font-family="Times New Roman,serif" font-size="14.00">Patterns</text>
</g>
<!-- p&#45;&gt;bp -->
<g id="edge1" class="edge"><title>p&#45;&gt;bp</title>
<path fill="none" stroke="black" d="M434.5,-703.218C434.5,-680.628 434.5,-647.638 434.5,-622.38"/>
<polygon fill="black" stroke="black" points="438,-622.081 434.5,-612.081 431,-622.081 438,-622.081"/>
<text text-anchor="middle" x="452" y="-663.501" font-family="Times New Roman,serif" font-size="14.00">use of</text>
<text text-anchor="middle" x="452" y="-648.501" font-family="Times New Roman,serif" font-size="14.00">P.</text>
<text text-anchor="middle" x="452" y="-633.501" font-family="Times New Roman,serif" font-size="14.00">is</text>
</g>
<!-- pdc -->
<g id="node8" class="node"><title>pdc</title>
<ellipse fill="none" stroke="black" cx="353.5" cy="-242.48" rx="55.4913" ry="18"/>
<text text-anchor="middle" x="353.5" y="-238.78" font-family="Times New Roman,serif" font-size="14.00">Productivity</text>
</g>
<!-- sc&#45;&gt;pdc -->
<g id="edge6" class="edge"><title>sc&#45;&gt;pdc</title>
<path fill="none" stroke="black" d="M412.046,-299.819C401.272,-289.451 388.643,-277.298 377.878,-266.938"/>
<polygon fill="black" stroke="black" points="380.054,-264.175 370.421,-259.763 375.2,-269.219 380.054,-264.175"/>
</g>
<!-- lc -->
<g id="node6" class="node"><title>lc</title>
<g id="a_node6"><a xlink:href="https://en.wikipedia.org/wiki/Low-code_development_platforms" xlink:title="Low Code\nDevelopment\nPlatform">
<ellipse fill="yellow" stroke="black" cx="357.5" cy="-823.131" rx="63.7795" ry="37.4533"/>
<text text-anchor="middle" x="357.5" y="-834.431" font-family="Times New Roman,serif" font-size="14.00">Low Code</text>
<text text-anchor="middle" x="357.5" y="-819.431" font-family="Times New Roman,serif" font-size="14.00">Development</text>
<text text-anchor="middle" x="357.5" y="-804.431" font-family="Times New Roman,serif" font-size="14.00">Platform</text>
</a>
</g>
</g>
<!-- lc&#45;&gt;r -->
<g id="edge5" class="edge"><title>lc&#45;&gt;r</title>
<path fill="none" stroke="black" d="M357.934,-785.475C358.309,-753.81 358.842,-708.779 359.179,-680.281"/>
<polygon fill="black" stroke="black" points="362.68,-680.271 359.298,-670.23 355.68,-680.188 362.68,-680.271"/>
</g>
<!-- ttm -->
<g id="node7" class="node"><title>ttm</title>
<ellipse fill="none" stroke="black" cx="230.5" cy="-730.177" rx="39.6962" ry="37.4533"/>
<text text-anchor="middle" x="230.5" y="-741.477" font-family="Times New Roman,serif" font-size="14.00">Time</text>
<text text-anchor="middle" x="230.5" y="-726.477" font-family="Times New Roman,serif" font-size="14.00">To</text>
<text text-anchor="middle" x="230.5" y="-711.477" font-family="Times New Roman,serif" font-size="14.00">Market</text>
</g>
<!-- i -->
<g id="node13" class="node"><title>i</title>
<ellipse fill="none" stroke="black" cx="230.5" cy="-521.96" rx="49.2915" ry="18"/>
<text text-anchor="middle" x="230.5" y="-518.26" font-family="Times New Roman,serif" font-size="14.00">Innovation</text>
</g>
<!-- ttm&#45;&gt;i -->
<g id="edge13" class="edge"><title>ttm&#45;&gt;i</title>
<path fill="none" stroke="black" d="M229.735,-692.549C229.637,-686.584 229.553,-680.471 229.5,-674.701 229.102,-631.296 229.63,-580.906 230.058,-550.503"/>
<polygon fill="black" stroke="black" points="233.561,-550.306 230.209,-540.256 226.562,-550.203 233.561,-550.306"/>
<text text-anchor="middle" x="264.5" y="-648.501" font-family="Times New Roman,serif" font-size="14.00">is crucial for</text>
</g>
<!-- es -->
<g id="node14" class="node"><title>es</title>
<ellipse fill="none" stroke="black" cx="230.5" cy="-146.61" rx="52.1524" ry="26.7407"/>
<text text-anchor="middle" x="230.5" y="-150.41" font-family="Times New Roman,serif" font-size="14.00">Economic</text>
<text text-anchor="middle" x="230.5" y="-135.41" font-family="Times New Roman,serif" font-size="14.00">Success</text>
</g>
<!-- pdc&#45;&gt;es -->
<g id="edge15" class="edge"><title>pdc&#45;&gt;es</title>
<path fill="none" stroke="black" d="M332.913,-225.768C314.963,-212.07 288.503,-191.876 266.975,-175.447"/>
<polygon fill="black" stroke="black" points="269.067,-172.64 258.994,-169.356 264.82,-178.205 269.067,-172.64"/>
</g>
<!-- dh -->
<g id="node16" class="node"><title>dh</title>
<ellipse fill="none" stroke="black" cx="353.5" cy="-146.61" rx="53.066" ry="26.7407"/>
<text text-anchor="middle" x="353.5" y="-150.41" font-family="Times New Roman,serif" font-size="14.00">Developer</text>
<text text-anchor="middle" x="353.5" y="-135.41" font-family="Times New Roman,serif" font-size="14.00">Happiness</text>
</g>
<!-- pdc&#45;&gt;dh -->
<g id="edge18" class="edge"><title>pdc&#45;&gt;dh</title>
<path fill="none" stroke="black" d="M353.5,-224.263C353.5,-212.959 353.5,-197.749 353.5,-183.858"/>
<polygon fill="black" stroke="black" points="357,-183.579 353.5,-173.579 350,-183.579 357,-183.579"/>
<text text-anchor="middle" x="379.5" y="-195.28" font-family="Times New Roman,serif" font-size="14.00">increases</text>
</g>
<!-- uig -->
<g id="node9" class="node"><title>uig</title>
<ellipse fill="none" stroke="black" cx="277.5" cy="-905.477" rx="54.3945" ry="26.7407"/>
<text text-anchor="middle" x="277.5" y="-909.277" font-family="Times New Roman,serif" font-size="14.00">UI</text>
<text text-anchor="middle" x="277.5" y="-894.277" font-family="Times New Roman,serif" font-size="14.00">Generation</text>
</g>
<!-- uig&#45;&gt;ttm -->
<g id="edge10" class="edge"><title>uig&#45;&gt;ttm</title>
<path fill="none" stroke="black" d="M250.603,-881.679C244.958,-875.458 239.74,-868.292 236.5,-860.607 225.556,-834.647 223.884,-803.108 225.032,-777.664"/>
<polygon fill="black" stroke="black" points="228.535,-777.719 225.649,-767.524 221.548,-777.293 228.535,-777.719"/>
<text text-anchor="middle" x="260.5" y="-819.431" font-family="Times New Roman,serif" font-size="14.00">shortens</text>
</g>
<!-- ai -->
<g id="node10" class="node"><title>ai</title>
<ellipse fill="none" stroke="black" cx="397.5" cy="-1025.22" rx="41.9398" ry="26.7407"/>
<text text-anchor="middle" x="397.5" y="-1029.02" font-family="Times New Roman,serif" font-size="14.00">Apache</text>
<text text-anchor="middle" x="397.5" y="-1014.02" font-family="Times New Roman,serif" font-size="14.00">Isis</text>
</g>
<!-- ai&#45;&gt;lc -->
<g id="edge7" class="edge"><title>ai&#45;&gt;lc</title>
<path fill="none" stroke="black" d="M392.353,-998.469C385.908,-966.233 374.751,-910.421 366.796,-870.631"/>
<polygon fill="black" stroke="black" points="370.189,-869.749 364.797,-860.63 363.325,-871.122 370.189,-869.749"/>
<text text-anchor="middle" x="398" y="-961.647" font-family="Times New Roman,serif" font-size="14.00">is a</text>
</g>
<!-- ai&#45;&gt;uig -->
<g id="edge8" class="edge"><title>ai&#45;&gt;uig</title>
<path fill="none" stroke="black" d="M369.851,-1004.76C360.424,-997.568 350.1,-989.038 341.5,-980.347 329.682,-968.405 329.36,-963.167 318.5,-950.347 314.962,-946.171 311.151,-941.863 307.328,-937.653"/>
<polygon fill="black" stroke="black" points="309.838,-935.212 300.489,-930.229 304.69,-939.955 309.838,-935.212"/>
<text text-anchor="middle" x="358.5" y="-961.647" font-family="Times New Roman,serif" font-size="14.00">offers</text>
</g>
<!-- ddd -->
<g id="node12" class="node"><title>ddd</title>
<ellipse fill="none" stroke="black" cx="593.5" cy="-730.177" rx="42.3529" ry="37.4533"/>
<text text-anchor="middle" x="593.5" y="-741.477" font-family="Times New Roman,serif" font-size="14.00">Domain</text>
<text text-anchor="middle" x="593.5" y="-726.477" font-family="Times New Roman,serif" font-size="14.00">Driven</text>
<text text-anchor="middle" x="593.5" y="-711.477" font-family="Times New Roman,serif" font-size="14.00">Design</text>
</g>
<!-- ai&#45;&gt;ddd -->
<g id="edge11" class="edge"><title>ai&#45;&gt;ddd</title>
<path fill="none" stroke="black" d="M436.95,-1015.99C478.279,-1004.95 540.705,-980.85 566.5,-932.347 592.181,-884.06 596.647,-820.382 596.183,-777.722"/>
<polygon fill="black" stroke="black" points="599.68,-777.546 595.976,-767.619 592.681,-777.688 599.68,-777.546"/>
<text text-anchor="middle" x="610" y="-909.277" font-family="Times New Roman,serif" font-size="14.00">enforces</text>
<text text-anchor="middle" x="610" y="-894.277" font-family="Times New Roman,serif" font-size="14.00">use of</text>
</g>
<!-- std -->
<g id="node15" class="node"><title>std</title>
<ellipse fill="lightgreen" stroke="black" cx="104.5" cy="-905.477" rx="62.8651" ry="26.7407"/>
<text text-anchor="middle" x="104.5" y="-909.277" font-family="Times New Roman,serif" font-size="14.00">Standard</text>
<text text-anchor="middle" x="104.5" y="-894.277" font-family="Times New Roman,serif" font-size="14.00">Components</text>
</g>
<!-- ai&#45;&gt;std -->
<g id="edge16" class="edge"><title>ai&#45;&gt;std</title>
<path fill="none" stroke="black" d="M362.094,-1010.85C350.229,-1006.59 336.871,-1002.03 324.5,-998.347 292.062,-988.682 282.255,-992.065 250.5,-980.347 215.39,-967.392 177.751,-948.207 149.484,-932.636"/>
<polygon fill="black" stroke="black" points="151.091,-929.525 140.651,-927.72 147.687,-935.641 151.091,-929.525"/>
<text text-anchor="middle" x="282.5" y="-961.647" font-family="Times New Roman,serif" font-size="14.00">is based on</text>
</g>
<!-- doc -->
<g id="node19" class="node"><title>doc</title>
<ellipse fill="lightblue" stroke="black" cx="491.5" cy="-905.477" rx="65.7887" ry="18"/>
<text text-anchor="middle" x="491.5" y="-901.777" font-family="Times New Roman,serif" font-size="14.00">Documentation</text>
</g>
<!-- ai&#45;&gt;doc -->
<g id="edge23" class="edge"><title>ai&#45;&gt;doc</title>
<path fill="none" stroke="black" d="M416.071,-1000.96C432.154,-980.811 455.351,-951.756 471.765,-931.196"/>
<polygon fill="black" stroke="black" points="474.623,-933.226 478.127,-923.227 469.153,-928.859 474.623,-933.226"/>
<text text-anchor="middle" x="482.5" y="-969.147" font-family="Times New Roman,serif" font-size="14.00">has</text>
<text text-anchor="middle" x="482.5" y="-954.147" font-family="Times New Roman,serif" font-size="14.00">extensive</text>
</g>
<!-- hr -->
<g id="node11" class="node"><title>hr</title>
<ellipse fill="lightgreen" stroke="black" cx="353.5" cy="-26.8701" rx="53.9813" ry="26.7407"/>
<text text-anchor="middle" x="353.5" y="-30.6701" font-family="Times New Roman,serif" font-size="14.00">Human</text>
<text text-anchor="middle" x="353.5" y="-15.6701" font-family="Times New Roman,serif" font-size="14.00">Resources</text>
</g>
<!-- hr&#45;&gt;sc -->
<g id="edge9" class="edge"><title>hr&#45;&gt;sc</title>
<path fill="none" stroke="black" d="M388.63,-47.2325C397.513,-53.8376 406.065,-62.0497 411.5,-71.7401 449.97,-140.334 446.839,-236.15 441.493,-287.491"/>
<polygon fill="black" stroke="black" points="438.014,-287.115 440.37,-297.445 444.969,-287.901 438.014,-287.115"/>
</g>
<!-- ddd&#45;&gt;c -->
<g id="edge12" class="edge"><title>ddd&#45;&gt;c</title>
<path fill="none" stroke="black" d="M590.765,-692.678C585.289,-643.982 568.956,-557.674 520.5,-503.96 511.279,-493.739 499.112,-485.513 486.91,-479.069"/>
<polygon fill="black" stroke="black" points="488.137,-475.772 477.621,-474.486 485.04,-482.049 488.137,-475.772"/>
<text text-anchor="middle" x="601.5" y="-581.131" font-family="Times New Roman,serif" font-size="14.00">promotes</text>
</g>
<!-- sui -->
<g id="node17" class="node"><title>sui</title>
<g id="a_node17"><a xlink:href="https://de.wikipedia.org/wiki/Smart_UI" xlink:title="Smart UI\n(Anti Pattern)">
<ellipse fill="lightgreen" stroke="black" cx="721.5" cy="-584.831" rx="65.1077" ry="26.7407"/>
<text text-anchor="middle" x="721.5" y="-588.631" font-family="Times New Roman,serif" font-size="14.00">Smart UI</text>
<text text-anchor="middle" x="721.5" y="-573.631" font-family="Times New Roman,serif" font-size="14.00">(Anti Pattern)</text>
</a>
</g>
</g>
<!-- ddd&#45;&gt;sui -->
<g id="edge20" class="edge"><title>ddd&#45;&gt;sui</title>
<path fill="none" stroke="black" d="M619.403,-700.169C640.628,-676.399 670.643,-642.785 692.636,-618.155"/>
<polygon fill="black" stroke="black" points="695.423,-620.288 699.473,-610.498 690.202,-615.626 695.423,-620.288"/>
<text text-anchor="middle" x="713" y="-648.501" font-family="Times New Roman,serif" font-size="14.00">discourages</text>
</g>
<!-- i&#45;&gt;es -->
<g id="edge14" class="edge"><title>i&#45;&gt;es</title>
<path fill="none" stroke="black" d="M230.5,-503.951C230.5,-479.392 230.5,-432.573 230.5,-392.72 230.5,-392.72 230.5,-392.72 230.5,-241.48 230.5,-222.451 230.5,-201.252 230.5,-183.821"/>
<polygon fill="black" stroke="black" points="234,-183.508 230.5,-173.508 227,-183.508 234,-183.508"/>
</g>
<!-- std&#45;&gt;hr -->
<g id="edge17" class="edge"><title>std&#45;&gt;hr</title>
<path fill="none" stroke="black" d="M110.126,-878.49C116.936,-844.718 127.5,-783.836 127.5,-731.177 127.5,-731.177 127.5,-731.177 127.5,-145.61 127.5,-71.6524 223.869,-44.078 290.749,-33.8466"/>
<polygon fill="black" stroke="black" points="291.397,-37.2895 300.798,-32.4041 290.402,-30.3605 291.397,-37.2895"/>
<text text-anchor="middle" x="158" y="-403.02" font-family="Times New Roman,serif" font-size="14.00">use of SC.</text>
<text text-anchor="middle" x="158" y="-388.02" font-family="Times New Roman,serif" font-size="14.00">increases</text>
<text text-anchor="middle" x="158" y="-373.02" font-family="Times New Roman,serif" font-size="14.00">supply of</text>
</g>
<!-- dh&#45;&gt;hr -->
<g id="edge19" class="edge"><title>dh&#45;&gt;hr</title>
<path fill="none" stroke="black" d="M353.5,-119.48C353.5,-103.169 353.5,-81.9427 353.5,-64.0294"/>
<polygon fill="black" stroke="black" points="357,-63.9273 353.5,-53.9274 350,-63.9274 357,-63.9273"/>
<text text-anchor="middle" x="380.5" y="-90.5401" font-family="Times New Roman,serif" font-size="14.00">increases</text>
<text text-anchor="middle" x="380.5" y="-75.5401" font-family="Times New Roman,serif" font-size="14.00">supply of</text>
</g>
<!-- ta -->
<g id="node18" class="node"><title>ta</title>
<ellipse fill="lightblue" stroke="black" cx="629.5" cy="-459.09" rx="57.9655" ry="26.7407"/>
<text text-anchor="middle" x="629.5" y="-462.89" font-family="Times New Roman,serif" font-size="14.00">Test</text>
<text text-anchor="middle" x="629.5" y="-447.89" font-family="Times New Roman,serif" font-size="14.00">Automation</text>
</g>
<!-- sui&#45;&gt;ta -->
<g id="edge21" class="edge"><title>sui&#45;&gt;ta</title>
<path fill="none" stroke="black" d="M702.882,-558.79C688.761,-539.797 669.228,-513.524 653.864,-492.86"/>
<polygon fill="black" stroke="black" points="656.551,-490.608 647.776,-484.672 650.934,-494.785 656.551,-490.608"/>
<text text-anchor="middle" x="731.5" y="-525.76" font-family="Times New Roman,serif" font-size="14.00">by avoiding SUI</text>
<text text-anchor="middle" x="731.5" y="-510.76" font-family="Times New Roman,serif" font-size="14.00">ease</text>
</g>
<!-- ta&#45;&gt;sc -->
<g id="edge22" class="edge"><title>ta&#45;&gt;sc</title>
<path fill="none" stroke="black" d="M598.062,-436.468C564.836,-413.616 512.348,-377.517 476.268,-352.701"/>
<polygon fill="black" stroke="black" points="478.148,-349.747 467.925,-346.963 474.181,-355.514 478.148,-349.747"/>
</g>
<!-- doc&#45;&gt;c -->
<g id="edge25" class="edge"><title>doc&#45;&gt;c</title>
<path fill="none" stroke="black" d="M494.149,-887.155C501.393,-835.853 518.976,-680.63 487.5,-557.96 480.789,-531.804 466.009,-504.784 454.08,-485.78"/>
<polygon fill="black" stroke="black" points="456.863,-483.638 448.5,-477.133 450.981,-487.433 456.863,-483.638"/>
<text text-anchor="middle" x="536" y="-656.001" font-family="Times New Roman,serif" font-size="14.00">contributes</text>
<text text-anchor="middle" x="536" y="-641.001" font-family="Times New Roman,serif" font-size="14.00">to</text>
</g>
<!-- doc&#45;&gt;p -->
<g id="edge24" class="edge"><title>doc&#45;&gt;p</title>
<path fill="none" stroke="black" d="M468.318,-888.22C459.643,-880.842 450.651,-871.355 445.5,-860.607 431.517,-831.433 429.752,-794.312 430.901,-767.312"/>
<polygon fill="black" stroke="black" points="434.407,-767.323 431.492,-757.137 427.418,-766.917 434.407,-767.323"/>
<text text-anchor="middle" x="469" y="-819.431" font-family="Times New Roman,serif" font-size="14.00">refers to</text>
</g>
<!-- std_note -->
<g id="node20" class="node"><title>std_note</title>
<polygon fill="gold" stroke="black" points="101,-1051.72 0,-1051.72 0,-998.717 107,-998.717 107,-1045.72 101,-1051.72"/>
<polyline fill="none" stroke="black" points="101,-1051.72 101,-1045.72 "/>
<polyline fill="none" stroke="black" points="107,-1045.72 101,-1045.72 "/>
<text text-anchor="middle" x="53.5" y="-1036.52" font-family="Times New Roman,serif" font-size="14.00">Planned:</text>
<text text-anchor="middle" x="53.5" y="-1021.52" font-family="Times New Roman,serif" font-size="14.00">JPA support</text>
<text text-anchor="middle" x="53.5" y="-1006.52" font-family="Times New Roman,serif" font-size="14.00">(alongside JDO)</text>
</g>
<!-- std_note&#45;&gt;std -->
<g id="edge26" class="edge"><title>std_note&#45;&gt;std</title>
<path fill="none" stroke="black" stroke-dasharray="1,5" d="M64.5662,-998.67C73.1206,-978.921 84.9064,-951.712 93.4554,-931.975"/>
</g>
<!-- uig_note -->
<g id="node21" class="node"><title>uig_note</title>
<polygon fill="gold" stroke="black" points="310,-1044.22 125,-1044.22 125,-1006.22 316,-1006.22 316,-1038.22 310,-1044.22"/>
<polyline fill="none" stroke="black" points="310,-1044.22 310,-1038.22 "/>
<polyline fill="none" stroke="black" points="316,-1038.22 310,-1038.22 "/>
<text text-anchor="middle" x="220.5" y="-1029.02" font-family="Times New Roman,serif" font-size="14.00">Allows for tight feedback loop,</text>
<text text-anchor="middle" x="220.5" y="-1014.02" font-family="Times New Roman,serif" font-size="14.00">ideal for agile projects</text>
</g>
<!-- uig_note&#45;&gt;ttm -->
<g id="edge28" class="edge"><title>uig_note&#45;&gt;ttm</title>
<path fill="none" stroke="black" stroke-dasharray="1,5" d="M218.953,-1005.93C217.469,-987.404 215.334,-957.908 214.5,-932.347 212.372,-867.111 213.722,-850.46 221.5,-785.654 222.208,-779.753 223.101,-773.515 224.048,-767.449"/>
</g>
<!-- uig_note&#45;&gt;uig -->
<g id="edge27" class="edge"><title>uig_note&#45;&gt;uig</title>
<path fill="none" stroke="black" stroke-dasharray="1,5" d="M221.028,-1005.95C222.144,-990.379 225.375,-967.818 234.5,-950.347 238.549,-942.596 244.416,-935.309 250.52,-928.985"/>
</g>
</g>
</svg>
