<?xml version="1.0" encoding="UTF-8" standalone="no"?>
<!DOCTYPE svg PUBLIC "-//W3C//DTD SVG 1.1//EN"
 "http://www.w3.org/Graphics/SVG/1.1/DTD/svg11.dtd">
<!-- Generated by graphviz version 2.38.0 (20140413.2041)
 -->
<!-- Title: g Pages: 1 -->
<svg width="675pt" height="1054pt"
 viewBox="0.00 0.00 675.00 1053.83" xmlns="http://www.w3.org/2000/svg" xmlns:xlink="http://www.w3.org/1999/xlink">
<g id="graph0" class="graph" transform="scale(1 1) rotate(0) translate(4 1049.83)">
<title>g</title>
<polygon fill="white" stroke="none" points="-4,4 -4,-1049.83 671,-1049.83 671,4 -4,4"/>
<!-- r -->
<g id="node1" class="node"><title>r</title>
<ellipse fill="none" stroke="black" cx="383" cy="-667.177" rx="51.1914" ry="18"/>
<text text-anchor="middle" x="383" y="-663.477" font-family="Times New Roman,serif" font-size="14.00">Readability</text>
</g>
<!-- c -->
<g id="node2" class="node"><title>c</title>
<ellipse fill="none" stroke="black" cx="379" cy="-459.09" rx="76.8869" ry="18"/>
<text text-anchor="middle" x="379" y="-455.39" font-family="Times New Roman,serif" font-size="14.00">Comprehensibility</text>
</g>
<!-- r&#45;&gt;c -->
<g id="edge4" class="edge"><title>r&#45;&gt;c</title>
<path fill="none" stroke="black" d="M382.666,-648.961C381.97,-613.11 380.361,-530.207 379.525,-487.148"/>
<polygon fill="black" stroke="black" points="383.024,-487.043 379.33,-477.113 376.025,-487.179 383.024,-487.043"/>
</g>
<!-- sc -->
<g id="node6" class="node"><title>sc</title>
<ellipse fill="none" stroke="black" cx="346" cy="-324.35" rx="56.6372" ry="26.7407"/>
<text text-anchor="middle" x="346" y="-328.15" font-family="Times New Roman,serif" font-size="14.00">Sustainable</text>
<text text-anchor="middle" x="346" y="-313.15" font-family="Times New Roman,serif" font-size="14.00">Code</text>
</g>
<!-- c&#45;&gt;sc -->
<g id="edge5" class="edge"><title>c&#45;&gt;sc</title>
<path fill="none" stroke="black" d="M374.753,-441.009C369.774,-420.98 361.385,-387.233 354.949,-361.347"/>
<polygon fill="black" stroke="black" points="358.311,-360.364 352.502,-351.504 351.518,-362.053 358.311,-360.364"/>
</g>
<!-- bp -->
<g id="node3" class="node"><title>bp</title>
<ellipse fill="none" stroke="black" cx="469" cy="-584.831" rx="43.6818" ry="26.7407"/>
<text text-anchor="middle" x="469" y="-588.631" font-family="Times New Roman,serif" font-size="14.00">Best</text>
<text text-anchor="middle" x="469" y="-573.631" font-family="Times New Roman,serif" font-size="14.00">Practice</text>
</g>
<!-- bp&#45;&gt;c -->
<g id="edge3" class="edge"><title>bp&#45;&gt;c</title>
<path fill="none" stroke="black" d="M451.755,-560.056C440.226,-544.168 424.714,-522.804 411,-503.96 406.676,-498.02 402.019,-491.63 397.633,-485.616"/>
<polygon fill="black" stroke="black" points="400.191,-483.184 391.47,-477.168 394.536,-487.309 400.191,-483.184"/>
</g>
<!-- p -->
<g id="node4" class="node"><title>p</title>
<ellipse fill="none" stroke="black" cx="396" cy="-760.131" rx="40.0939" ry="18"/>
<text text-anchor="middle" x="396" y="-756.431" font-family="Times New Roman,serif" font-size="14.00">Patterns</text>
</g>
<!-- p&#45;&gt;bp -->
<g id="edge1" class="edge"><title>p&#45;&gt;bp</title>
<path fill="none" stroke="black" d="M410.411,-743.028C418.963,-732.707 429.392,-718.662 436,-704.654 450.663,-673.573 445.549,-662.742 455,-629.701 455.804,-626.89 456.664,-623.988 457.547,-621.077"/>
<polygon fill="black" stroke="black" points="460.97,-621.857 460.594,-611.269 454.285,-619.78 460.97,-621.857"/>
<text text-anchor="middle" x="472.5" y="-678.477" font-family="Times New Roman,serif" font-size="14.00">use of</text>
<text text-anchor="middle" x="472.5" y="-663.477" font-family="Times New Roman,serif" font-size="14.00">P.</text>
<text text-anchor="middle" x="472.5" y="-648.477" font-family="Times New Roman,serif" font-size="14.00">is</text>
</g>
<!-- cc -->
<g id="node5" class="node"><title>cc</title>
<ellipse fill="none" stroke="black" cx="516" cy="-760.131" rx="61.5366" ry="26.7407"/>
<text text-anchor="middle" x="516" y="-763.931" font-family="Times New Roman,serif" font-size="14.00">Code</text>
<text text-anchor="middle" x="516" y="-748.931" font-family="Times New Roman,serif" font-size="14.00">Conventions</text>
</g>
<!-- cc&#45;&gt;bp -->
<g id="edge2" class="edge"><title>cc&#45;&gt;bp</title>
<path fill="none" stroke="black" d="M514.261,-733.164C511.865,-706.541 506.347,-664.257 494,-629.701 492.746,-626.192 491.22,-622.64 489.546,-619.154"/>
<polygon fill="black" stroke="black" points="492.583,-617.409 484.856,-610.161 486.377,-620.646 492.583,-617.409"/>
<text text-anchor="middle" x="527.5" y="-678.477" font-family="Times New Roman,serif" font-size="14.00">use of</text>
<text text-anchor="middle" x="527.5" y="-663.477" font-family="Times New Roman,serif" font-size="14.00">CC.</text>
<text text-anchor="middle" x="527.5" y="-648.477" font-family="Times New Roman,serif" font-size="14.00">is</text>
</g>
<!-- pdc -->
<g id="node9" class="node"><title>pdc</title>
<ellipse fill="none" stroke="black" cx="382" cy="-242.48" rx="55.4913" ry="18"/>
<text text-anchor="middle" x="382" y="-238.78" font-family="Times New Roman,serif" font-size="14.00">Productivity</text>
</g>
<!-- sc&#45;&gt;pdc -->
<g id="edge7" class="edge"><title>sc&#45;&gt;pdc</title>
<path fill="none" stroke="black" d="M357.589,-297.639C361.634,-288.664 366.177,-278.586 370.236,-269.58"/>
<polygon fill="black" stroke="black" points="373.487,-270.885 374.405,-260.33 367.105,-268.009 373.487,-270.885"/>
</g>
<!-- lc -->
<g id="node7" class="node"><title>lc</title>
<g id="a_node7"><a xlink:href="https://en.wikipedia.org/wiki/Low-code_development_platforms" xlink:title="Low Code\nDevelopment Platform">
<ellipse fill="none" stroke="black" cx="328" cy="-842.477" rx="100.318" ry="26.7407"/>
<text text-anchor="middle" x="328" y="-846.277" font-family="Times New Roman,serif" font-size="14.00">Low Code</text>
<text text-anchor="middle" x="328" y="-831.277" font-family="Times New Roman,serif" font-size="14.00">Development Platform</text>
</a>
</g>
</g>
<!-- lc&#45;&gt;r -->
<g id="edge6" class="edge"><title>lc&#45;&gt;r</title>
<path fill="none" stroke="black" d="M329.02,-815.151C330.708,-790.504 335.177,-753.024 347,-722.654 351.01,-712.354 357.187,-701.998 363.3,-693.122"/>
<polygon fill="black" stroke="black" points="366.294,-694.954 369.307,-684.797 360.617,-690.858 366.294,-694.954"/>
</g>
<!-- ttm -->
<g id="node8" class="node"><title>ttm</title>
<ellipse fill="none" stroke="black" cx="70" cy="-667.177" rx="39.6962" ry="37.4533"/>
<text text-anchor="middle" x="70" y="-678.477" font-family="Times New Roman,serif" font-size="14.00">Time</text>
<text text-anchor="middle" x="70" y="-663.477" font-family="Times New Roman,serif" font-size="14.00">To</text>
<text text-anchor="middle" x="70" y="-648.477" font-family="Times New Roman,serif" font-size="14.00">Market</text>
</g>
<!-- i -->
<g id="node14" class="node"><title>i</title>
<ellipse fill="none" stroke="black" cx="91" cy="-521.96" rx="49.2915" ry="18"/>
<text text-anchor="middle" x="91" y="-518.26" font-family="Times New Roman,serif" font-size="14.00">Innovation</text>
</g>
<!-- ttm&#45;&gt;i -->
<g id="edge14" class="edge"><title>ttm&#45;&gt;i</title>
<path fill="none" stroke="black" d="M65.2235,-629.948C63.5811,-608.613 63.5306,-581.317 70,-557.96 70.889,-554.751 72.1595,-551.54 73.6413,-548.437"/>
<polygon fill="black" stroke="black" points="76.775,-550.002 78.5509,-539.557 70.649,-546.615 76.775,-550.002"/>
<text text-anchor="middle" x="105" y="-581.131" font-family="Times New Roman,serif" font-size="14.00">is crucial for</text>
</g>
<!-- es -->
<g id="node15" class="node"><title>es</title>
<ellipse fill="none" stroke="black" cx="379" cy="-146.61" rx="52.1524" ry="26.7407"/>
<text text-anchor="middle" x="379" y="-150.41" font-family="Times New Roman,serif" font-size="14.00">Economic</text>
<text text-anchor="middle" x="379" y="-135.41" font-family="Times New Roman,serif" font-size="14.00">Success</text>
</g>
<!-- pdc&#45;&gt;es -->
<g id="edge16" class="edge"><title>pdc&#45;&gt;es</title>
<path fill="none" stroke="black" d="M381.45,-224.263C381.089,-212.959 380.602,-197.749 380.158,-183.858"/>
<polygon fill="black" stroke="black" points="383.648,-183.462 379.83,-173.579 376.651,-183.686 383.648,-183.462"/>
</g>
<!-- dh -->
<g id="node17" class="node"><title>dh</title>
<ellipse fill="none" stroke="black" cx="502" cy="-146.61" rx="53.066" ry="26.7407"/>
<text text-anchor="middle" x="502" y="-150.41" font-family="Times New Roman,serif" font-size="14.00">Developer</text>
<text text-anchor="middle" x="502" y="-135.41" font-family="Times New Roman,serif" font-size="14.00">Happiness</text>
</g>
<!-- pdc&#45;&gt;dh -->
<g id="edge19" class="edge"><title>pdc&#45;&gt;dh</title>
<path fill="none" stroke="black" d="M402.356,-225.556C419.712,-211.98 445.077,-192.138 465.872,-175.871"/>
<polygon fill="black" stroke="black" points="468.162,-178.524 473.882,-169.606 463.849,-173.01 468.162,-178.524"/>
<text text-anchor="middle" x="472" y="-195.28" font-family="Times New Roman,serif" font-size="14.00">increases</text>
</g>
<!-- uig -->
<g id="node10" class="node"><title>uig</title>
<ellipse fill="none" stroke="black" cx="94" cy="-914.217" rx="54.3945" ry="26.7407"/>
<text text-anchor="middle" x="94" y="-918.017" font-family="Times New Roman,serif" font-size="14.00">UI</text>
<text text-anchor="middle" x="94" y="-903.017" font-family="Times New Roman,serif" font-size="14.00">Generation</text>
</g>
<!-- uig&#45;&gt;ttm -->
<g id="edge11" class="edge"><title>uig&#45;&gt;ttm</title>
<path fill="none" stroke="black" d="M91.4316,-886.994C87.4154,-845.989 79.5918,-766.109 74.5901,-715.042"/>
<polygon fill="black" stroke="black" points="78.0569,-714.531 73.5987,-704.92 71.0902,-715.214 78.0569,-714.531"/>
<text text-anchor="middle" x="114" y="-838.777" font-family="Times New Roman,serif" font-size="14.00">shortens</text>
</g>
<!-- ai -->
<g id="node11" class="node"><title>ai</title>
<ellipse fill="none" stroke="black" cx="328" cy="-1018.96" rx="41.9398" ry="26.7407"/>
<text text-anchor="middle" x="328" y="-1022.76" font-family="Times New Roman,serif" font-size="14.00">Apache</text>
<text text-anchor="middle" x="328" y="-1007.76" font-family="Times New Roman,serif" font-size="14.00">Isis</text>
</g>
<!-- ai&#45;&gt;lc -->
<g id="edge8" class="edge"><title>ai&#45;&gt;lc</title>
<path fill="none" stroke="black" d="M328,-991.836C328,-962.069 328,-913.225 328,-879.77"/>
<polygon fill="black" stroke="black" points="331.5,-879.492 328,-869.492 324.5,-879.492 331.5,-879.492"/>
<text text-anchor="middle" x="337.5" y="-962.887" font-family="Times New Roman,serif" font-size="14.00">is a</text>
</g>
<!-- ai&#45;&gt;uig -->
<g id="edge9" class="edge"><title>ai&#45;&gt;uig</title>
<path fill="none" stroke="black" d="M287.385,-1012.01C253.291,-1005.88 204.04,-994.292 165,-974.087 150.673,-966.672 136.626,-955.976 124.857,-945.729"/>
<polygon fill="black" stroke="black" points="126.875,-942.836 117.099,-938.752 122.195,-948.041 126.875,-942.836"/>
<text text-anchor="middle" x="182" y="-962.887" font-family="Times New Roman,serif" font-size="14.00">offers</text>
</g>
<!-- ddd -->
<g id="node13" class="node"><title>ddd</title>
<ellipse fill="none" stroke="black" cx="214" cy="-760.131" rx="42.3529" ry="37.4533"/>
<text text-anchor="middle" x="214" y="-771.431" font-family="Times New Roman,serif" font-size="14.00">Domain</text>
<text text-anchor="middle" x="214" y="-756.431" font-family="Times New Roman,serif" font-size="14.00">Driven</text>
<text text-anchor="middle" x="214" y="-741.431" font-family="Times New Roman,serif" font-size="14.00">Design</text>
</g>
<!-- ai&#45;&gt;ddd -->
<g id="edge12" class="edge"><title>ai&#45;&gt;ddd</title>
<path fill="none" stroke="black" d="M307.276,-995.263C283.459,-967.716 245.306,-918.787 227,-869.347 219.815,-849.943 216.397,-827.372 214.837,-807.879"/>
<polygon fill="black" stroke="black" points="218.317,-807.451 214.166,-797.703 211.332,-807.912 218.317,-807.451"/>
<text text-anchor="middle" x="289.5" y="-918.017" font-family="Times New Roman,serif" font-size="14.00">enforces</text>
<text text-anchor="middle" x="289.5" y="-903.017" font-family="Times New Roman,serif" font-size="14.00">use of</text>
</g>
<!-- std -->
<g id="node16" class="node"><title>std</title>
<ellipse fill="none" stroke="black" cx="594" cy="-914.217" rx="62.8651" ry="26.7407"/>
<text text-anchor="middle" x="594" y="-918.017" font-family="Times New Roman,serif" font-size="14.00">Standard</text>
<text text-anchor="middle" x="594" y="-903.017" font-family="Times New Roman,serif" font-size="14.00">Components</text>
</g>
<!-- ai&#45;&gt;std -->
<g id="edge17" class="edge"><title>ai&#45;&gt;std</title>
<path fill="none" stroke="black" d="M363.647,-1004.78C386.857,-996.148 417.771,-984.571 445,-974.087 476.483,-961.967 511.58,-948.117 539.799,-936.896"/>
<polygon fill="black" stroke="black" points="541.094,-940.148 549.09,-933.199 538.505,-933.645 541.094,-940.148"/>
<text text-anchor="middle" x="514" y="-962.887" font-family="Times New Roman,serif" font-size="14.00">is based on</text>
</g>
<!-- doc -->
<g id="node20" class="node"><title>doc</title>
<ellipse fill="none" stroke="black" cx="436" cy="-914.217" rx="65.7887" ry="18"/>
<text text-anchor="middle" x="436" y="-910.517" font-family="Times New Roman,serif" font-size="14.00">Documentation</text>
</g>
<!-- ai&#45;&gt;doc -->
<g id="edge24" class="edge"><title>ai&#45;&gt;doc</title>
<path fill="none" stroke="black" d="M350.904,-996.169C368.566,-979.367 392.961,-956.16 411.105,-938.9"/>
<polygon fill="black" stroke="black" points="413.627,-941.331 418.46,-931.903 408.803,-936.26 413.627,-941.331"/>
<text text-anchor="middle" x="415" y="-962.887" font-family="Times New Roman,serif" font-size="14.00">extensive</text>
</g>
<!-- hr -->
<g id="node12" class="node"><title>hr</title>
<ellipse fill="none" stroke="black" cx="502" cy="-26.8701" rx="53.9813" ry="26.7407"/>
<text text-anchor="middle" x="502" y="-30.6701" font-family="Times New Roman,serif" font-size="14.00">Human</text>
<text text-anchor="middle" x="502" y="-15.6701" font-family="Times New Roman,serif" font-size="14.00">Resources</text>
</g>
<!-- hr&#45;&gt;sc -->
<g id="edge10" class="edge"><title>hr&#45;&gt;sc</title>
<path fill="none" stroke="black" d="M452.27,-37.507C408.422,-48.9209 347.109,-72.6711 318,-119.74 285.721,-171.935 309.454,-245.901 328.505,-288.825"/>
<polygon fill="black" stroke="black" points="325.368,-290.38 332.721,-298.008 331.73,-287.46 325.368,-290.38"/>
</g>
<!-- ddd&#45;&gt;c -->
<g id="edge13" class="edge"><title>ddd&#45;&gt;c</title>
<path fill="none" stroke="black" d="M249.197,-739.082C262.172,-730.085 275.907,-718.385 285,-704.654 322.185,-648.5 297.607,-620.339 323,-557.96 333.514,-532.134 349.665,-504.748 361.925,-485.533"/>
<polygon fill="black" stroke="black" points="364.916,-487.353 367.419,-477.058 359.043,-483.545 364.916,-487.353"/>
<text text-anchor="middle" x="350" y="-581.131" font-family="Times New Roman,serif" font-size="14.00">promotes</text>
</g>
<!-- sui -->
<g id="node18" class="node"><title>sui</title>
<g id="a_node18"><a xlink:href="https://de.wikipedia.org/wiki/Smart_UI" xlink:title="Smart UI\n(Anti Pattern)">
<ellipse fill="none" stroke="black" cx="214" cy="-584.831" rx="65.1077" ry="26.7407"/>
<text text-anchor="middle" x="214" y="-588.631" font-family="Times New Roman,serif" font-size="14.00">Smart UI</text>
<text text-anchor="middle" x="214" y="-573.631" font-family="Times New Roman,serif" font-size="14.00">(Anti Pattern)</text>
</a>
</g>
</g>
<!-- ddd&#45;&gt;sui -->
<g id="edge21" class="edge"><title>ddd&#45;&gt;sui</title>
<path fill="none" stroke="black" d="M214,-722.378C214,-692.823 214,-651.518 214,-622.093"/>
<polygon fill="black" stroke="black" points="217.5,-621.834 214,-611.834 210.5,-621.834 217.5,-621.834"/>
<text text-anchor="middle" x="247.5" y="-663.477" font-family="Times New Roman,serif" font-size="14.00">discourages</text>
</g>
<!-- i&#45;&gt;es -->
<g id="edge15" class="edge"><title>i&#45;&gt;es</title>
<path fill="none" stroke="black" d="M95.4386,-503.67C101.331,-479.161 111,-432.829 111,-392.72 111,-392.72 111,-392.72 111,-241.48 111,-197.779 239.536,-169.586 318.575,-156.381"/>
<polygon fill="black" stroke="black" points="319.601,-159.76 328.906,-154.693 318.472,-152.852 319.601,-159.76"/>
</g>
<!-- std&#45;&gt;hr -->
<g id="edge18" class="edge"><title>std&#45;&gt;hr</title>
<path fill="none" stroke="black" d="M597.311,-887.162C600.863,-856.913 606,-805.495 606,-761.131 606,-761.131 606,-761.131 606,-145.61 606,-106.514 573.39,-74.2843 544.691,-53.4901"/>
<polygon fill="black" stroke="black" points="546.547,-50.5174 536.342,-47.6709 542.544,-56.2602 546.547,-50.5174"/>
<text text-anchor="middle" x="636.5" y="-403.02" font-family="Times New Roman,serif" font-size="14.00">use of SC.</text>
<text text-anchor="middle" x="636.5" y="-388.02" font-family="Times New Roman,serif" font-size="14.00">increases</text>
<text text-anchor="middle" x="636.5" y="-373.02" font-family="Times New Roman,serif" font-size="14.00">supply of</text>
</g>
<!-- dh&#45;&gt;hr -->
<g id="edge20" class="edge"><title>dh&#45;&gt;hr</title>
<path fill="none" stroke="black" d="M502,-119.48C502,-103.169 502,-81.9427 502,-64.0294"/>
<polygon fill="black" stroke="black" points="505.5,-63.9273 502,-53.9274 498.5,-63.9274 505.5,-63.9273"/>
<text text-anchor="middle" x="529" y="-90.5401" font-family="Times New Roman,serif" font-size="14.00">increases</text>
<text text-anchor="middle" x="529" y="-75.5401" font-family="Times New Roman,serif" font-size="14.00">supply of</text>
</g>
<!-- ta -->
<g id="node19" class="node"><title>ta</title>
<ellipse fill="none" stroke="black" cx="217" cy="-459.09" rx="57.9655" ry="26.7407"/>
<text text-anchor="middle" x="217" y="-462.89" font-family="Times New Roman,serif" font-size="14.00">Test</text>
<text text-anchor="middle" x="217" y="-447.89" font-family="Times New Roman,serif" font-size="14.00">Automation</text>
</g>
<!-- sui&#45;&gt;ta -->
<g id="edge22" class="edge"><title>sui&#45;&gt;ta</title>
<path fill="none" stroke="black" d="M210.376,-557.904C208.688,-542.264 207.373,-521.949 209,-503.96 209.232,-501.397 209.538,-498.759 209.896,-496.109"/>
<polygon fill="black" stroke="black" points="213.396,-496.386 211.483,-485.966 206.48,-495.305 213.396,-496.386"/>
<text text-anchor="middle" x="255" y="-525.76" font-family="Times New Roman,serif" font-size="14.00">by avoiding SUI</text>
<text text-anchor="middle" x="255" y="-510.76" font-family="Times New Roman,serif" font-size="14.00">ease</text>
</g>
<!-- ta&#45;&gt;sc -->
<g id="edge23" class="edge"><title>ta&#45;&gt;sc</title>
<path fill="none" stroke="black" d="M240.063,-434.359C261.119,-412.692 292.394,-380.511 315.508,-356.727"/>
<polygon fill="black" stroke="black" points="318.243,-358.934 322.702,-349.324 313.223,-354.056 318.243,-358.934"/>
</g>
<!-- doc&#45;&gt;p -->
<g id="edge25" class="edge"><title>doc&#45;&gt;p</title>
<path fill="none" stroke="black" d="M437.156,-896.187C437.966,-876.343 437.656,-842.806 429,-815.607 425.68,-805.176 419.993,-794.665 414.266,-785.697"/>
<polygon fill="black" stroke="black" points="417.101,-783.641 408.611,-777.303 411.295,-787.552 417.101,-783.641"/>
<text text-anchor="middle" x="461.5" y="-838.777" font-family="Times New Roman,serif" font-size="14.00">refers to</text>
</g>
<!-- std_note -->
<g id="node21" class="node"><title>std_note</title>
<polygon fill="gold" stroke="black" points="641.5,-1045.46 540.5,-1045.46 540.5,-992.458 647.5,-992.458 647.5,-1039.46 641.5,-1045.46"/>
<polyline fill="none" stroke="black" points="641.5,-1045.46 641.5,-1039.46 "/>
<polyline fill="none" stroke="black" points="647.5,-1039.46 641.5,-1039.46 "/>
<text text-anchor="middle" x="594" y="-1030.26" font-family="Times New Roman,serif" font-size="14.00">Planned:</text>
<text text-anchor="middle" x="594" y="-1015.26" font-family="Times New Roman,serif" font-size="14.00">JPA support</text>
<text text-anchor="middle" x="594" y="-1000.26" font-family="Times New Roman,serif" font-size="14.00">(alongside JDO)</text>
</g>
<!-- std_note&#45;&gt;std -->
<g id="edge26" class="edge"><title>std_note&#45;&gt;std</title>
<path fill="none" stroke="black" d="M594,-992.297C594,-980.01 594,-965.078 594,-951.641"/>
<polygon fill="black" stroke="black" points="597.5,-951.264 594,-941.264 590.5,-951.264 597.5,-951.264"/>
</g>
<!-- uig_note -->
<g id="node22" class="node"><title>uig_note</title>
<polygon fill="gold" stroke="black" points="182,-1037.96 -1.42109e-014,-1037.96 -1.42109e-014,-999.958 188,-999.958 188,-1031.96 182,-1037.96"/>
<polyline fill="none" stroke="black" points="182,-1037.96 182,-1031.96 "/>
<polyline fill="none" stroke="black" points="188,-1031.96 182,-1031.96 "/>
<text text-anchor="middle" x="94" y="-1022.76" font-family="Times New Roman,serif" font-size="14.00">Allows for tight feedback loop</text>
<text text-anchor="middle" x="94" y="-1007.76" font-family="Times New Roman,serif" font-size="14.00">matches agile projects</text>
</g>
<!-- uig_note&#45;&gt;uig -->
<g id="edge27" class="edge"><title>uig_note&#45;&gt;uig</title>
<path fill="none" stroke="black" d="M94,-999.59C94,-986.238 94,-967.728 94,-951.446"/>
<polygon fill="black" stroke="black" points="97.5001,-951.145 94,-941.145 90.5001,-951.145 97.5001,-951.145"/>
</g>
</g>
</svg>
