<?xml version="1.0" encoding="UTF-8" standalone="no"?>
<!DOCTYPE svg PUBLIC "-//W3C//DTD SVG 1.1//EN"
 "http://www.w3.org/Graphics/SVG/1.1/DTD/svg11.dtd">
<!-- Generated by graphviz version 2.38.0 (20140413.2041)
 -->
<!-- Title: g Pages: 1 -->
<svg width="688pt" height="1060pt"
 viewBox="0.00 0.00 688.45 1060.09" xmlns="http://www.w3.org/2000/svg" xmlns:xlink="http://www.w3.org/1999/xlink">
<g id="graph0" class="graph" transform="scale(1 1) rotate(0) translate(4 1056.09)">
<title>g</title>
<polygon fill="white" stroke="none" points="-4,4 -4,-1056.09 684.447,-1056.09 684.447,4 -4,4"/>
<!-- r -->
<g id="node1" class="node"><title>r</title>
<ellipse fill="none" stroke="black" cx="550.447" cy="-652.201" rx="51.1914" ry="18"/>
<text text-anchor="middle" x="550.447" y="-648.501" font-family="Times New Roman,serif" font-size="14.00">Readability</text>
</g>
<!-- c -->
<g id="node2" class="node"><title>c</title>
<ellipse fill="none" stroke="black" cx="318.447" cy="-459.09" rx="76.8869" ry="18"/>
<text text-anchor="middle" x="318.447" y="-455.39" font-family="Times New Roman,serif" font-size="14.00">Comprehensibility</text>
</g>
<!-- r&#45;&gt;c -->
<g id="edge4" class="edge"><title>r&#45;&gt;c</title>
<path fill="none" stroke="black" d="M533.15,-634.936C512.805,-615.984 477.819,-583.95 446.447,-557.96 413.986,-531.068 375.389,-501.924 349.128,-482.497"/>
<polygon fill="black" stroke="black" points="351.184,-479.665 341.058,-476.546 347.029,-485.298 351.184,-479.665"/>
</g>
<!-- sc -->
<g id="node6" class="node"><title>sc</title>
<ellipse fill="none" stroke="black" cx="249.447" cy="-324.35" rx="56.6372" ry="26.7407"/>
<text text-anchor="middle" x="249.447" y="-328.15" font-family="Times New Roman,serif" font-size="14.00">Sustainable</text>
<text text-anchor="middle" x="249.447" y="-313.15" font-family="Times New Roman,serif" font-size="14.00">Code</text>
</g>
<!-- c&#45;&gt;sc -->
<g id="edge5" class="edge"><title>c&#45;&gt;sc</title>
<path fill="none" stroke="black" d="M309.568,-441.009C298.935,-420.554 280.864,-385.789 267.304,-359.703"/>
<polygon fill="black" stroke="black" points="270.252,-357.786 262.535,-350.527 264.041,-361.015 270.252,-357.786"/>
</g>
<!-- bp -->
<g id="node3" class="node"><title>bp</title>
<ellipse fill="none" stroke="black" cx="393.447" cy="-584.831" rx="43.6818" ry="26.7407"/>
<text text-anchor="middle" x="393.447" y="-588.631" font-family="Times New Roman,serif" font-size="14.00">Best</text>
<text text-anchor="middle" x="393.447" y="-573.631" font-family="Times New Roman,serif" font-size="14.00">Practice</text>
</g>
<!-- bp&#45;&gt;c -->
<g id="edge3" class="edge"><title>bp&#45;&gt;c</title>
<path fill="none" stroke="black" d="M378.63,-559.383C365.705,-538.06 347.023,-507.237 333.911,-485.604"/>
<polygon fill="black" stroke="black" points="336.842,-483.687 328.666,-476.95 330.856,-487.316 336.842,-483.687"/>
</g>
<!-- p -->
<g id="node4" class="node"><title>p</title>
<ellipse fill="none" stroke="black" cx="513.447" cy="-730.177" rx="40.0939" ry="18"/>
<text text-anchor="middle" x="513.447" y="-726.477" font-family="Times New Roman,serif" font-size="14.00">Patterns</text>
</g>
<!-- p&#45;&gt;bp -->
<g id="edge1" class="edge"><title>p&#45;&gt;bp</title>
<path fill="none" stroke="black" d="M494.334,-714.162C482.17,-703.942 466.654,-689.608 455.447,-674.701 441.951,-656.747 445.122,-648.243 432.447,-629.701 429.284,-625.073 425.68,-620.409 421.971,-615.938"/>
<polygon fill="black" stroke="black" points="424.433,-613.435 415.252,-608.148 419.132,-618.006 424.433,-613.435"/>
<text text-anchor="middle" x="472.947" y="-663.501" font-family="Times New Roman,serif" font-size="14.00">use of</text>
<text text-anchor="middle" x="472.947" y="-648.501" font-family="Times New Roman,serif" font-size="14.00">P.</text>
<text text-anchor="middle" x="472.947" y="-633.501" font-family="Times New Roman,serif" font-size="14.00">is</text>
</g>
<!-- cc -->
<g id="node5" class="node"><title>cc</title>
<ellipse fill="none" stroke="black" cx="393.447" cy="-730.177" rx="61.5366" ry="26.7407"/>
<text text-anchor="middle" x="393.447" y="-733.977" font-family="Times New Roman,serif" font-size="14.00">Code</text>
<text text-anchor="middle" x="393.447" y="-718.977" font-family="Times New Roman,serif" font-size="14.00">Conventions</text>
</g>
<!-- cc&#45;&gt;bp -->
<g id="edge2" class="edge"><title>cc&#45;&gt;bp</title>
<path fill="none" stroke="black" d="M393.447,-703.218C393.447,-680.628 393.447,-647.638 393.447,-622.38"/>
<polygon fill="black" stroke="black" points="396.947,-622.081 393.447,-612.081 389.947,-622.081 396.947,-622.081"/>
<text text-anchor="middle" x="410.947" y="-663.501" font-family="Times New Roman,serif" font-size="14.00">use of</text>
<text text-anchor="middle" x="410.947" y="-648.501" font-family="Times New Roman,serif" font-size="14.00">CC.</text>
<text text-anchor="middle" x="410.947" y="-633.501" font-family="Times New Roman,serif" font-size="14.00">is</text>
</g>
<!-- pdc -->
<g id="node9" class="node"><title>pdc</title>
<ellipse fill="none" stroke="black" cx="305.447" cy="-242.48" rx="55.4913" ry="18"/>
<text text-anchor="middle" x="305.447" y="-238.78" font-family="Times New Roman,serif" font-size="14.00">Productivity</text>
</g>
<!-- sc&#45;&gt;pdc -->
<g id="edge7" class="edge"><title>sc&#45;&gt;pdc</title>
<path fill="none" stroke="black" d="M266.859,-298.517C273.545,-288.98 281.176,-278.097 287.877,-268.539"/>
<polygon fill="black" stroke="black" points="290.841,-270.409 293.716,-260.211 285.11,-266.39 290.841,-270.409"/>
</g>
<!-- lc -->
<g id="node7" class="node"><title>lc</title>
<g id="a_node7"><a xlink:href="https://en.wikipedia.org/wiki/Low-code_development_platforms" xlink:title="Low Code\nDevelopment\nPlatform">
<ellipse fill="none" stroke="black" cx="530.447" cy="-823.131" rx="63.7795" ry="37.4533"/>
<text text-anchor="middle" x="530.447" y="-834.431" font-family="Times New Roman,serif" font-size="14.00">Low Code</text>
<text text-anchor="middle" x="530.447" y="-819.431" font-family="Times New Roman,serif" font-size="14.00">Development</text>
<text text-anchor="middle" x="530.447" y="-804.431" font-family="Times New Roman,serif" font-size="14.00">Platform</text>
</a>
</g>
</g>
<!-- lc&#45;&gt;r -->
<g id="edge6" class="edge"><title>lc&#45;&gt;r</title>
<path fill="none" stroke="black" d="M554.023,-788.194C557.5,-781.644 560.547,-774.64 562.447,-767.654 571.19,-735.509 567.342,-725.652 562.447,-692.701 561.837,-688.591 560.887,-684.317 559.784,-680.164"/>
<polygon fill="black" stroke="black" points="563.04,-678.836 556.829,-670.252 556.332,-680.836 563.04,-678.836"/>
</g>
<!-- ttm -->
<g id="node8" class="node"><title>ttm</title>
<ellipse fill="none" stroke="black" cx="54.4472" cy="-730.177" rx="39.6962" ry="37.4533"/>
<text text-anchor="middle" x="54.4472" y="-741.477" font-family="Times New Roman,serif" font-size="14.00">Time</text>
<text text-anchor="middle" x="54.4472" y="-726.477" font-family="Times New Roman,serif" font-size="14.00">To</text>
<text text-anchor="middle" x="54.4472" y="-711.477" font-family="Times New Roman,serif" font-size="14.00">Market</text>
</g>
<!-- i -->
<g id="node14" class="node"><title>i</title>
<ellipse fill="none" stroke="black" cx="50.4472" cy="-521.96" rx="49.2915" ry="18"/>
<text text-anchor="middle" x="50.4472" y="-518.26" font-family="Times New Roman,serif" font-size="14.00">Innovation</text>
</g>
<!-- ttm&#45;&gt;i -->
<g id="edge14" class="edge"><title>ttm&#45;&gt;i</title>
<path fill="none" stroke="black" d="M53.7321,-692.31C52.9419,-651.574 51.6878,-586.917 50.9796,-550.408"/>
<polygon fill="black" stroke="black" points="54.4719,-549.969 50.7785,-540.039 47.4732,-550.105 54.4719,-549.969"/>
<text text-anchor="middle" x="88.4472" y="-648.501" font-family="Times New Roman,serif" font-size="14.00">is crucial for</text>
</g>
<!-- es -->
<g id="node15" class="node"><title>es</title>
<ellipse fill="none" stroke="black" cx="302.447" cy="-146.61" rx="52.1524" ry="26.7407"/>
<text text-anchor="middle" x="302.447" y="-150.41" font-family="Times New Roman,serif" font-size="14.00">Economic</text>
<text text-anchor="middle" x="302.447" y="-135.41" font-family="Times New Roman,serif" font-size="14.00">Success</text>
</g>
<!-- pdc&#45;&gt;es -->
<g id="edge16" class="edge"><title>pdc&#45;&gt;es</title>
<path fill="none" stroke="black" d="M304.897,-224.263C304.536,-212.959 304.05,-197.749 303.606,-183.858"/>
<polygon fill="black" stroke="black" points="307.095,-183.462 303.277,-173.579 300.098,-183.686 307.095,-183.462"/>
</g>
<!-- dh -->
<g id="node17" class="node"><title>dh</title>
<ellipse fill="none" stroke="black" cx="425.447" cy="-146.61" rx="53.066" ry="26.7407"/>
<text text-anchor="middle" x="425.447" y="-150.41" font-family="Times New Roman,serif" font-size="14.00">Developer</text>
<text text-anchor="middle" x="425.447" y="-135.41" font-family="Times New Roman,serif" font-size="14.00">Happiness</text>
</g>
<!-- pdc&#45;&gt;dh -->
<g id="edge19" class="edge"><title>pdc&#45;&gt;dh</title>
<path fill="none" stroke="black" d="M325.804,-225.556C343.159,-211.98 368.525,-192.138 389.319,-175.871"/>
<polygon fill="black" stroke="black" points="391.609,-178.524 397.329,-169.606 387.296,-173.01 391.609,-178.524"/>
<text text-anchor="middle" x="395.447" y="-195.28" font-family="Times New Roman,serif" font-size="14.00">increases</text>
</g>
<!-- uig -->
<g id="node10" class="node"><title>uig</title>
<ellipse fill="none" stroke="black" cx="54.4472" cy="-905.477" rx="54.3945" ry="26.7407"/>
<text text-anchor="middle" x="54.4472" y="-909.277" font-family="Times New Roman,serif" font-size="14.00">UI</text>
<text text-anchor="middle" x="54.4472" y="-894.277" font-family="Times New Roman,serif" font-size="14.00">Generation</text>
</g>
<!-- uig&#45;&gt;ttm -->
<g id="edge11" class="edge"><title>uig&#45;&gt;ttm</title>
<path fill="none" stroke="black" d="M54.4472,-878.533C54.4472,-852.035 54.4472,-810.316 54.4472,-778.022"/>
<polygon fill="black" stroke="black" points="57.9473,-777.899 54.4472,-767.899 50.9473,-777.899 57.9473,-777.899"/>
<text text-anchor="middle" x="78.4472" y="-819.431" font-family="Times New Roman,serif" font-size="14.00">shortens</text>
</g>
<!-- ai -->
<g id="node11" class="node"><title>ai</title>
<ellipse fill="none" stroke="black" cx="387.447" cy="-1025.22" rx="41.9398" ry="26.7407"/>
<text text-anchor="middle" x="387.447" y="-1029.02" font-family="Times New Roman,serif" font-size="14.00">Apache</text>
<text text-anchor="middle" x="387.447" y="-1014.02" font-family="Times New Roman,serif" font-size="14.00">Isis</text>
</g>
<!-- ai&#45;&gt;lc -->
<g id="edge8" class="edge"><title>ai&#45;&gt;lc</title>
<path fill="none" stroke="black" d="M415.837,-1005.44C425.329,-998.309 435.503,-989.642 443.447,-980.347 472.176,-946.734 495.869,-902.163 511.236,-869.235"/>
<polygon fill="black" stroke="black" points="514.555,-870.395 515.54,-859.846 508.192,-867.477 514.555,-870.395"/>
<text text-anchor="middle" x="474.947" y="-961.647" font-family="Times New Roman,serif" font-size="14.00">is a</text>
</g>
<!-- ai&#45;&gt;uig -->
<g id="edge9" class="edge"><title>ai&#45;&gt;uig</title>
<path fill="none" stroke="black" d="M347.436,-1017.29C309.854,-1010.16 252.386,-997.653 204.447,-980.347 167.491,-967.006 127.683,-947.123 98.3685,-931.344"/>
<polygon fill="black" stroke="black" points="99.6938,-928.081 89.2366,-926.379 96.3501,-934.231 99.6938,-928.081"/>
<text text-anchor="middle" x="221.447" y="-961.647" font-family="Times New Roman,serif" font-size="14.00">offers</text>
</g>
<!-- ddd -->
<g id="node13" class="node"><title>ddd</title>
<ellipse fill="none" stroke="black" cx="233.447" cy="-730.177" rx="42.3529" ry="37.4533"/>
<text text-anchor="middle" x="233.447" y="-741.477" font-family="Times New Roman,serif" font-size="14.00">Domain</text>
<text text-anchor="middle" x="233.447" y="-726.477" font-family="Times New Roman,serif" font-size="14.00">Driven</text>
<text text-anchor="middle" x="233.447" y="-711.477" font-family="Times New Roman,serif" font-size="14.00">Design</text>
</g>
<!-- ai&#45;&gt;ddd -->
<g id="edge12" class="edge"><title>ai&#45;&gt;ddd</title>
<path fill="none" stroke="black" d="M354.191,-1008.93C325.241,-993.784 284.682,-967.724 263.447,-932.347 235.158,-885.218 230.18,-821.022 230.623,-777.941"/>
<polygon fill="black" stroke="black" points="234.127,-777.807 230.834,-767.737 227.128,-777.663 234.127,-777.807"/>
<text text-anchor="middle" x="287.947" y="-909.277" font-family="Times New Roman,serif" font-size="14.00">enforces</text>
<text text-anchor="middle" x="287.947" y="-894.277" font-family="Times New Roman,serif" font-size="14.00">use of</text>
</g>
<!-- std -->
<g id="node16" class="node"><title>std</title>
<ellipse fill="none" stroke="black" cx="614.447" cy="-905.477" rx="62.8651" ry="26.7407"/>
<text text-anchor="middle" x="614.447" y="-909.277" font-family="Times New Roman,serif" font-size="14.00">Standard</text>
<text text-anchor="middle" x="614.447" y="-894.277" font-family="Times New Roman,serif" font-size="14.00">Components</text>
</g>
<!-- ai&#45;&gt;std -->
<g id="edge17" class="edge"><title>ai&#45;&gt;std</title>
<path fill="none" stroke="black" d="M426.027,-1014.84C451.625,-1007.64 485.364,-996.225 512.447,-980.347 529.832,-970.155 530.379,-962.511 546.447,-950.347 554.096,-944.557 562.502,-938.735 570.717,-933.31"/>
<polygon fill="black" stroke="black" points="572.692,-936.201 579.17,-927.817 568.877,-930.331 572.692,-936.201"/>
<text text-anchor="middle" x="578.447" y="-961.647" font-family="Times New Roman,serif" font-size="14.00">is based on</text>
</g>
<!-- doc -->
<g id="node20" class="node"><title>doc</title>
<ellipse fill="none" stroke="black" cx="387.447" cy="-905.477" rx="65.7887" ry="18"/>
<text text-anchor="middle" x="387.447" y="-901.777" font-family="Times New Roman,serif" font-size="14.00">Documentation</text>
</g>
<!-- ai&#45;&gt;doc -->
<g id="edge24" class="edge"><title>ai&#45;&gt;doc</title>
<path fill="none" stroke="black" d="M387.447,-998.087C387.447,-978.995 387.447,-953.166 387.447,-933.801"/>
<polygon fill="black" stroke="black" points="390.947,-933.791 387.447,-923.791 383.947,-933.791 390.947,-933.791"/>
<text text-anchor="middle" x="413.447" y="-969.147" font-family="Times New Roman,serif" font-size="14.00">has</text>
<text text-anchor="middle" x="413.447" y="-954.147" font-family="Times New Roman,serif" font-size="14.00">extensive</text>
</g>
<!-- hr -->
<g id="node12" class="node"><title>hr</title>
<ellipse fill="none" stroke="black" cx="425.447" cy="-26.8701" rx="53.9813" ry="26.7407"/>
<text text-anchor="middle" x="425.447" y="-30.6701" font-family="Times New Roman,serif" font-size="14.00">Human</text>
<text text-anchor="middle" x="425.447" y="-15.6701" font-family="Times New Roman,serif" font-size="14.00">Resources</text>
</g>
<!-- hr&#45;&gt;sc -->
<g id="edge10" class="edge"><title>hr&#45;&gt;sc</title>
<path fill="none" stroke="black" d="M375.718,-37.507C331.869,-48.9209 270.556,-72.6711 241.447,-119.74 209.665,-171.132 223.855,-244.587 236.82,-287.785"/>
<polygon fill="black" stroke="black" points="233.555,-289.072 239.89,-297.564 240.234,-286.975 233.555,-289.072"/>
</g>
<!-- ddd&#45;&gt;c -->
<g id="edge13" class="edge"><title>ddd&#45;&gt;c</title>
<path fill="none" stroke="black" d="M231.838,-692.584C231.476,-657.086 234.126,-602.245 250.447,-557.96 260.606,-530.395 280.415,-503.3 296.043,-484.634"/>
<polygon fill="black" stroke="black" points="298.802,-486.793 302.662,-476.926 293.492,-482.232 298.802,-486.793"/>
<text text-anchor="middle" x="277.447" y="-581.131" font-family="Times New Roman,serif" font-size="14.00">promotes</text>
</g>
<!-- sui -->
<g id="node18" class="node"><title>sui</title>
<g id="a_node18"><a xlink:href="https://de.wikipedia.org/wiki/Smart_UI" xlink:title="Smart UI\n(Anti Pattern)">
<ellipse fill="none" stroke="black" cx="135.447" cy="-584.831" rx="65.1077" ry="26.7407"/>
<text text-anchor="middle" x="135.447" y="-588.631" font-family="Times New Roman,serif" font-size="14.00">Smart UI</text>
<text text-anchor="middle" x="135.447" y="-573.631" font-family="Times New Roman,serif" font-size="14.00">(Anti Pattern)</text>
</a>
</g>
</g>
<!-- ddd&#45;&gt;sui -->
<g id="edge21" class="edge"><title>ddd&#45;&gt;sui</title>
<path fill="none" stroke="black" d="M196.559,-711.195C181.688,-702.186 165.667,-689.923 155.447,-674.701 145.081,-659.26 140.018,-639.253 137.574,-622.133"/>
<polygon fill="black" stroke="black" points="141.016,-621.433 136.366,-611.913 134.064,-622.254 141.016,-621.433"/>
<text text-anchor="middle" x="188.947" y="-648.501" font-family="Times New Roman,serif" font-size="14.00">discourages</text>
</g>
<!-- i&#45;&gt;es -->
<g id="edge15" class="edge"><title>i&#45;&gt;es</title>
<path fill="none" stroke="black" d="M52.1831,-503.972C54.536,-479.438 58.4472,-432.65 58.4472,-392.72 58.4472,-392.72 58.4472,-392.72 58.4472,-241.48 58.4472,-201.979 171.251,-172.797 243.46,-158.163"/>
<polygon fill="black" stroke="black" points="244.238,-161.577 253.364,-156.196 242.873,-154.712 244.238,-161.577"/>
</g>
<!-- std&#45;&gt;hr -->
<g id="edge18" class="edge"><title>std&#45;&gt;hr</title>
<path fill="none" stroke="black" d="M615.67,-878.354C617.151,-844.437 619.447,-783.4 619.447,-731.177 619.447,-731.177 619.447,-731.177 619.447,-145.61 619.447,-82.334 543.09,-52.1113 486.184,-38.3736"/>
<polygon fill="black" stroke="black" points="486.695,-34.8998 476.165,-36.0738 485.129,-41.7224 486.695,-34.8998"/>
<text text-anchor="middle" x="649.947" y="-403.02" font-family="Times New Roman,serif" font-size="14.00">use of SC.</text>
<text text-anchor="middle" x="649.947" y="-388.02" font-family="Times New Roman,serif" font-size="14.00">increases</text>
<text text-anchor="middle" x="649.947" y="-373.02" font-family="Times New Roman,serif" font-size="14.00">supply of</text>
</g>
<!-- dh&#45;&gt;hr -->
<g id="edge20" class="edge"><title>dh&#45;&gt;hr</title>
<path fill="none" stroke="black" d="M425.447,-119.48C425.447,-103.169 425.447,-81.9427 425.447,-64.0294"/>
<polygon fill="black" stroke="black" points="428.947,-63.9273 425.447,-53.9274 421.947,-63.9274 428.947,-63.9273"/>
<text text-anchor="middle" x="452.447" y="-90.5401" font-family="Times New Roman,serif" font-size="14.00">increases</text>
<text text-anchor="middle" x="452.447" y="-75.5401" font-family="Times New Roman,serif" font-size="14.00">supply of</text>
</g>
<!-- ta -->
<g id="node19" class="node"><title>ta</title>
<ellipse fill="none" stroke="black" cx="158.447" cy="-459.09" rx="57.9655" ry="26.7407"/>
<text text-anchor="middle" x="158.447" y="-462.89" font-family="Times New Roman,serif" font-size="14.00">Test</text>
<text text-anchor="middle" x="158.447" y="-447.89" font-family="Times New Roman,serif" font-size="14.00">Automation</text>
</g>
<!-- sui&#45;&gt;ta -->
<g id="edge22" class="edge"><title>sui&#45;&gt;ta</title>
<path fill="none" stroke="black" d="M129.387,-557.796C126.776,-541.937 125.347,-521.432 130.447,-503.96 131.439,-500.562 132.784,-497.175 134.35,-493.877"/>
<polygon fill="black" stroke="black" points="137.54,-495.338 139.239,-484.88 131.389,-491.995 137.54,-495.338"/>
<text text-anchor="middle" x="176.447" y="-525.76" font-family="Times New Roman,serif" font-size="14.00">by avoiding SUI</text>
<text text-anchor="middle" x="176.447" y="-510.76" font-family="Times New Roman,serif" font-size="14.00">ease</text>
</g>
<!-- ta&#45;&gt;sc -->
<g id="edge23" class="edge"><title>ta&#45;&gt;sc</title>
<path fill="none" stroke="black" d="M175.564,-433.123C189.99,-412.08 210.755,-381.79 226.599,-358.678"/>
<polygon fill="black" stroke="black" points="229.64,-360.433 232.408,-350.206 223.866,-356.475 229.64,-360.433"/>
</g>
<!-- doc&#45;&gt;c -->
<g id="edge26" class="edge"><title>doc&#45;&gt;c</title>
<path fill="none" stroke="black" d="M376.494,-887.652C360.942,-862.675 333.158,-813.763 322.447,-767.654 298.99,-666.678 308.808,-541.986 314.924,-487.61"/>
<polygon fill="black" stroke="black" points="318.433,-487.743 316.124,-477.403 311.481,-486.926 318.433,-487.743"/>
<text text-anchor="middle" x="340.947" y="-656.001" font-family="Times New Roman,serif" font-size="14.00">contributes</text>
<text text-anchor="middle" x="340.947" y="-641.001" font-family="Times New Roman,serif" font-size="14.00">to</text>
</g>
<!-- doc&#45;&gt;p -->
<g id="edge25" class="edge"><title>doc&#45;&gt;p</title>
<path fill="none" stroke="black" d="M385.755,-887.219C384.254,-861.804 385.366,-814.243 410.447,-785.654 427.131,-766.637 442.018,-779.355 464.447,-767.654 472.422,-763.494 480.491,-758.086 487.716,-752.715"/>
<polygon fill="black" stroke="black" points="489.982,-755.387 495.754,-746.503 485.702,-749.848 489.982,-755.387"/>
<text text-anchor="middle" x="433.947" y="-819.431" font-family="Times New Roman,serif" font-size="14.00">refers to</text>
</g>
<!-- std_note -->
<g id="node21" class="node"><title>std_note</title>
<polygon fill="gold" stroke="black" points="661.947,-1051.72 560.947,-1051.72 560.947,-998.717 667.947,-998.717 667.947,-1045.72 661.947,-1051.72"/>
<polyline fill="none" stroke="black" points="661.947,-1051.72 661.947,-1045.72 "/>
<polyline fill="none" stroke="black" points="667.947,-1045.72 661.947,-1045.72 "/>
<text text-anchor="middle" x="614.447" y="-1036.52" font-family="Times New Roman,serif" font-size="14.00">Planned:</text>
<text text-anchor="middle" x="614.447" y="-1021.52" font-family="Times New Roman,serif" font-size="14.00">JPA support</text>
<text text-anchor="middle" x="614.447" y="-1006.52" font-family="Times New Roman,serif" font-size="14.00">(alongside JDO)</text>
</g>
<!-- std_note&#45;&gt;std -->
<g id="edge27" class="edge"><title>std_note&#45;&gt;std</title>
<path fill="none" stroke="black" stroke-dasharray="1,5" d="M614.447,-998.67C614.447,-979.056 614.447,-952.084 614.447,-932.382"/>
</g>
<!-- uig_note -->
<g id="node22" class="node"><title>uig_note</title>
<polygon fill="gold" stroke="black" points="198.447,-1044.22 16.4472,-1044.22 16.4472,-1006.22 204.447,-1006.22 204.447,-1038.22 198.447,-1044.22"/>
<polyline fill="none" stroke="black" points="198.447,-1044.22 198.447,-1038.22 "/>
<polyline fill="none" stroke="black" points="204.447,-1038.22 198.447,-1038.22 "/>
<text text-anchor="middle" x="110.447" y="-1029.02" font-family="Times New Roman,serif" font-size="14.00">Allows for tight feedback loop</text>
<text text-anchor="middle" x="110.447" y="-1014.02" font-family="Times New Roman,serif" font-size="14.00">matches agile projects</text>
</g>
<!-- uig_note&#45;&gt;ttm -->
<g id="edge29" class="edge"><title>uig_note&#45;&gt;ttm</title>
<path fill="none" stroke="black" stroke-dasharray="1,5" d="M114.952,-1006.04C124.238,-964.572 141.82,-860.798 106.447,-785.654 101.157,-774.416 92.6321,-764.016 84.0019,-755.381"/>
</g>
<!-- uig_note&#45;&gt;uig -->
<g id="edge28" class="edge"><title>uig_note&#45;&gt;uig</title>
<path fill="none" stroke="black" stroke-dasharray="1,5" d="M101.82,-1006.08C92.3703,-986.211 77.1467,-954.203 66.5155,-931.851"/>
</g>
</g>
</svg>
