<?xml version="1.0" encoding="UTF-8" standalone="no"?>
<!DOCTYPE svg PUBLIC "-//W3C//DTD SVG 1.1//EN"
 "http://www.w3.org/Graphics/SVG/1.1/DTD/svg11.dtd">
<!-- Generated by graphviz version 2.38.0 (20140413.2041)
 -->
<!-- Title: g Pages: 1 -->
<svg width="1098pt" height="982pt"
 viewBox="0.00 0.00 1098.00 981.87" xmlns="http://www.w3.org/2000/svg" xmlns:xlink="http://www.w3.org/1999/xlink">
<g id="graph0" class="graph" transform="scale(1 1) rotate(0) translate(4 977.867)">
<title>g</title>
<polygon fill="white" stroke="none" points="-4,4 -4,-977.867 1094,-977.867 1094,4 -4,4"/>
<!-- ai -->
<g id="node1" class="node"><title>ai</title>
<ellipse fill="white" stroke="black" cx="704" cy="-921.867" rx="45.9239" ry="26.7407"/>
<text text-anchor="middle" x="704" y="-925.667" font-family="arial" font-size="14.00">Apache</text>
<text text-anchor="middle" x="704" y="-910.667" font-family="arial" font-size="14.00">Isis</text>
</g>
<!-- lc -->
<g id="node4" class="node"><title>lc</title>
<g id="a_node4"><a xlink:href="https://en.wikipedia.org/wiki/Low-code_development_platforms" xlink:title="Lean Code\nDevelopment\nPlatform">
<ellipse fill="yellow" stroke="black" cx="654" cy="-644.39" rx="71.3357" ry="37.4533"/>
<text text-anchor="middle" x="654" y="-655.69" font-family="arial" font-size="14.00">Lean Code</text>
<text text-anchor="middle" x="654" y="-640.69" font-family="arial" font-size="14.00">Development</text>
<text text-anchor="middle" x="654" y="-625.69" font-family="arial" font-size="14.00">Platform</text>
</a>
</g>
</g>
<!-- ai&#45;&gt;lc -->
<g id="edge1" class="edge"><title>ai&#45;&gt;lc</title>
<path fill="none" stroke="black" d="M696.056,-895.083C689.067,-871.534 679.085,-835.65 673,-803.867 665.884,-766.7 660.954,-724.089 657.902,-692.419"/>
<polygon fill="black" stroke="black" points="661.355,-691.752 656.938,-682.122 654.385,-692.405 661.355,-691.752"/>
<text text-anchor="middle" x="695" y="-833.167" font-family="arial" font-size="14.00">is a</text>
</g>
<!-- ddd -->
<g id="node6" class="node"><title>ddd</title>
<ellipse fill="lightblue" stroke="black" cx="728" cy="-751.867" rx="45.9239" ry="37.4533"/>
<text text-anchor="middle" x="728" y="-763.167" font-family="arial" font-size="14.00">Domain</text>
<text text-anchor="middle" x="728" y="-748.167" font-family="arial" font-size="14.00">Driven</text>
<text text-anchor="middle" x="728" y="-733.167" font-family="arial" font-size="14.00">Design</text>
</g>
<!-- ai&#45;&gt;ddd -->
<g id="edge2" class="edge"><title>ai&#45;&gt;ddd</title>
<path fill="none" stroke="black" d="M707.697,-894.985C711.324,-869.598 716.935,-830.32 721.34,-799.484"/>
<polygon fill="black" stroke="black" points="724.834,-799.777 722.783,-789.383 717.904,-798.787 724.834,-799.777"/>
<text text-anchor="middle" x="747.5" y="-840.667" font-family="arial" font-size="14.00">enforces</text>
<text text-anchor="middle" x="747.5" y="-825.667" font-family="arial" font-size="14.00">use of</text>
</g>
<!-- doc -->
<g id="node8" class="node"><title>doc</title>
<ellipse fill="lightblue" stroke="black" cx="865" cy="-751.867" rx="72.5877" ry="18"/>
<text text-anchor="middle" x="865" y="-748.167" font-family="arial" font-size="14.00">Documentation</text>
</g>
<!-- ai&#45;&gt;doc -->
<g id="edge4" class="edge"><title>ai&#45;&gt;doc</title>
<path fill="none" stroke="black" d="M729.37,-899.245C744.501,-886.008 763.847,-868.474 780,-851.867 803.461,-827.747 828.312,-798.288 845.043,-777.806"/>
<polygon fill="black" stroke="black" points="847.885,-779.858 851.47,-769.889 842.45,-775.446 847.885,-779.858"/>
<text text-anchor="middle" x="837.5" y="-840.667" font-family="arial" font-size="14.00">has</text>
<text text-anchor="middle" x="837.5" y="-825.667" font-family="arial" font-size="14.00">extensive</text>
</g>
<!-- uig -->
<g id="node9" class="node"><title>uig</title>
<ellipse fill="lightgreen" stroke="black" cx="567" cy="-751.867" rx="59.2941" ry="26.7407"/>
<text text-anchor="middle" x="567" y="-755.667" font-family="arial" font-size="14.00">Generated</text>
<text text-anchor="middle" x="567" y="-740.667" font-family="arial" font-size="14.00">UI</text>
</g>
<!-- ai&#45;&gt;uig -->
<g id="edge8" class="edge"><title>ai&#45;&gt;uig</title>
<path fill="none" stroke="black" d="M683.301,-897.633C673.668,-887.952 661.569,-877.265 649,-869.867 626.834,-856.821 611.726,-870.503 594,-851.867 578.034,-835.082 571.322,-809.807 568.582,-788.997"/>
<polygon fill="black" stroke="black" points="572.045,-788.468 567.507,-778.894 565.084,-789.208 572.045,-788.468"/>
<text text-anchor="middle" x="613" y="-833.167" font-family="arial" font-size="14.00">offers</text>
</g>
<!-- dbg -->
<g id="node10" class="node"><title>dbg</title>
<ellipse fill="lightgreen" stroke="black" cx="241" cy="-751.867" rx="59.2941" ry="26.7407"/>
<text text-anchor="middle" x="241" y="-755.667" font-family="arial" font-size="14.00">Generated</text>
<text text-anchor="middle" x="241" y="-740.667" font-family="arial" font-size="14.00">DB</text>
</g>
<!-- ai&#45;&gt;dbg -->
<g id="edge9" class="edge"><title>ai&#45;&gt;dbg</title>
<path fill="none" stroke="black" d="M684.584,-897.45C674.937,-887.366 662.47,-876.41 649,-869.867 602.86,-847.457 585.438,-861.199 535,-851.867 434.029,-833.186 402.491,-846.336 309,-803.867 297.02,-798.425 285.136,-790.587 274.735,-782.682"/>
<polygon fill="black" stroke="black" points="276.756,-779.819 266.737,-776.373 272.421,-785.315 276.756,-779.819"/>
<text text-anchor="middle" x="554" y="-833.167" font-family="arial" font-size="14.00">offers</text>
</g>
<!-- ro -->
<g id="node11" class="node"><title>ro</title>
<ellipse fill="lightgreen" stroke="black" cx="1015" cy="-751.867" rx="59.2941" ry="37.4533"/>
<text text-anchor="middle" x="1015" y="-763.167" font-family="arial" font-size="14.00">Generated</text>
<text text-anchor="middle" x="1015" y="-748.167" font-family="arial" font-size="14.00">RESTful</text>
<text text-anchor="middle" x="1015" y="-733.167" font-family="arial" font-size="14.00">API</text>
</g>
<!-- ai&#45;&gt;ro -->
<g id="edge10" class="edge"><title>ai&#45;&gt;ro</title>
<path fill="none" stroke="black" d="M742.917,-907.155C777.55,-894.423 829.199,-874.123 872,-851.867 907.112,-833.609 914.481,-826.422 947,-803.867 954.48,-798.679 962.304,-793.03 969.871,-787.443"/>
<polygon fill="black" stroke="black" points="972.019,-790.208 977.953,-781.43 967.841,-784.591 972.019,-790.208"/>
<text text-anchor="middle" x="941" y="-833.167" font-family="arial" font-size="14.00">offers</text>
</g>
<!-- std -->
<g id="node12" class="node"><title>std</title>
<ellipse fill="lightgreen" stroke="black" cx="94" cy="-751.867" rx="69.0935" ry="26.7407"/>
<text text-anchor="middle" x="94" y="-755.667" font-family="arial" font-size="14.00">Standard</text>
<text text-anchor="middle" x="94" y="-740.667" font-family="arial" font-size="14.00">Components</text>
</g>
<!-- ai&#45;&gt;std -->
<g id="edge12" class="edge"><title>ai&#45;&gt;std</title>
<path fill="none" stroke="black" d="M685.138,-897.045C675.523,-886.742 662.925,-875.722 649,-869.867 572.706,-837.789 357.384,-871.571 277,-851.867 223.635,-838.786 169.079,-806.299 133.588,-782.084"/>
<polygon fill="black" stroke="black" points="135.2,-778.943 124.988,-776.123 131.212,-784.697 135.2,-778.943"/>
<text text-anchor="middle" x="314" y="-833.167" font-family="arial" font-size="14.00">is based on</text>
</g>
<!-- c -->
<g id="node2" class="node"><title>c</title>
<ellipse fill="white" stroke="black" cx="692" cy="-406.22" rx="84.485" ry="18"/>
<text text-anchor="middle" x="692" y="-402.52" font-family="arial" font-size="14.00">Comprehensibility</text>
</g>
<!-- sc -->
<g id="node13" class="node"><title>sc</title>
<ellipse fill="lightgreen" stroke="black" cx="552" cy="-324.35" rx="63.7795" ry="26.7407"/>
<text text-anchor="middle" x="552" y="-328.15" font-family="arial" font-size="14.00">Sustainable</text>
<text text-anchor="middle" x="552" y="-313.15" font-family="arial" font-size="14.00">Code</text>
</g>
<!-- c&#45;&gt;sc -->
<g id="edge14" class="edge"><title>c&#45;&gt;sc</title>
<path fill="none" stroke="black" d="M663.669,-389.057C644.708,-378.24 619.335,-363.765 597.567,-351.346"/>
<polygon fill="black" stroke="black" points="599.221,-348.26 588.801,-346.345 595.752,-354.34 599.221,-348.26"/>
</g>
<!-- dh -->
<g id="node3" class="node"><title>dh</title>
<ellipse fill="white" stroke="black" cx="473" cy="-146.61" rx="59.2941" ry="26.7407"/>
<text text-anchor="middle" x="473" y="-150.41" font-family="arial" font-size="14.00">Developer</text>
<text text-anchor="middle" x="473" y="-135.41" font-family="arial" font-size="14.00">Happiness</text>
</g>
<!-- hr -->
<g id="node16" class="node"><title>hr</title>
<ellipse fill="pink" stroke="black" cx="473" cy="-26.8701" rx="60.623" ry="26.7407"/>
<text text-anchor="middle" x="473" y="-30.6701" font-family="arial" font-size="14.00">Human</text>
<text text-anchor="middle" x="473" y="-15.6701" font-family="arial" font-size="14.00">Resources</text>
</g>
<!-- dh&#45;&gt;hr -->
<g id="edge20" class="edge"><title>dh&#45;&gt;hr</title>
<path fill="none" stroke="black" d="M473,-119.48C473,-103.169 473,-81.9427 473,-64.0294"/>
<polygon fill="black" stroke="black" points="476.5,-63.9273 473,-53.9274 469.5,-63.9274 476.5,-63.9273"/>
<text text-anchor="middle" x="504" y="-90.5401" font-family="arial" font-size="14.00">increases</text>
<text text-anchor="middle" x="504" y="-75.5401" font-family="arial" font-size="14.00">supply of</text>
</g>
<!-- lc&#45;&gt;c -->
<g id="edge15" class="edge"><title>lc&#45;&gt;c</title>
<path fill="none" stroke="black" d="M659.854,-607.006C667.531,-559.294 680.824,-476.677 687.662,-434.182"/>
<polygon fill="black" stroke="black" points="691.121,-434.717 689.254,-424.288 684.21,-433.605 691.121,-434.717"/>
</g>
<!-- p -->
<g id="node5" class="node"><title>p</title>
<ellipse fill="lightblue" stroke="black" cx="748" cy="-551.437" rx="48.5816" ry="26.7407"/>
<text text-anchor="middle" x="748" y="-555.237" font-family="arial" font-size="14.00">Design</text>
<text text-anchor="middle" x="748" y="-540.237" font-family="arial" font-size="14.00">Patterns</text>
</g>
<!-- p&#45;&gt;c -->
<g id="edge7" class="edge"><title>p&#45;&gt;c</title>
<path fill="none" stroke="black" d="M737.988,-524.833C727.99,-499.262 712.685,-460.12 702.513,-434.107"/>
<polygon fill="black" stroke="black" points="705.66,-432.543 698.758,-424.505 699.14,-435.092 705.66,-432.543"/>
<text text-anchor="middle" x="768" y="-480.39" font-family="arial" font-size="14.00">use of DP.</text>
<text text-anchor="middle" x="768" y="-465.39" font-family="arial" font-size="14.00">is</text>
<text text-anchor="middle" x="768" y="-450.39" font-family="arial" font-size="14.00">BestPractice</text>
</g>
<!-- ddd&#45;&gt;p -->
<g id="edge3" class="edge"><title>ddd&#45;&gt;p</title>
<path fill="none" stroke="black" d="M731.668,-714.472C735.281,-678.627 740.767,-624.197 744.368,-588.476"/>
<polygon fill="black" stroke="black" points="747.855,-588.781 745.375,-578.48 740.89,-588.079 747.855,-588.781"/>
<text text-anchor="middle" x="781.5" y="-648.19" font-family="arial" font-size="14.00">is a</text>
<text text-anchor="middle" x="781.5" y="-633.19" font-family="arial" font-size="14.00">collection of</text>
</g>
<!-- ta -->
<g id="node7" class="node"><title>ta</title>
<ellipse fill="lightblue" stroke="black" cx="533" cy="-469.09" rx="62.4516" ry="26.7407"/>
<text text-anchor="middle" x="533" y="-472.89" font-family="arial" font-size="14.00">Test</text>
<text text-anchor="middle" x="533" y="-457.89" font-family="arial" font-size="14.00">Automation</text>
</g>
<!-- ta&#45;&gt;sc -->
<g id="edge13" class="edge"><title>ta&#45;&gt;sc</title>
<path fill="none" stroke="black" d="M536.441,-442.241C539.448,-419.646 543.847,-386.603 547.2,-361.408"/>
<polygon fill="black" stroke="black" points="550.67,-361.864 548.521,-351.489 543.732,-360.94 550.67,-361.864"/>
</g>
<!-- doc&#45;&gt;c -->
<g id="edge6" class="edge"><title>doc&#45;&gt;c</title>
<path fill="none" stroke="black" d="M877.452,-734.031C886.526,-720.658 898.061,-701.072 903,-681.867 911.297,-649.604 911.244,-639.19 903,-606.914 882.358,-526.095 878.063,-494.418 813,-442.22 800.499,-432.191 785.238,-425.036 769.823,-419.931"/>
<polygon fill="black" stroke="black" points="770.814,-416.574 760.228,-417.01 768.775,-423.271 770.814,-416.574"/>
<text text-anchor="middle" x="933" y="-555.237" font-family="arial" font-size="14.00">contributes</text>
<text text-anchor="middle" x="933" y="-540.237" font-family="arial" font-size="14.00">to</text>
</g>
<!-- doc&#45;&gt;p -->
<g id="edge5" class="edge"><title>doc&#45;&gt;p</title>
<path fill="none" stroke="black" d="M860.78,-733.668C851.881,-697.794 831.402,-617.433 824,-606.914 815.505,-594.841 803.457,-584.472 791.451,-576.119"/>
<polygon fill="black" stroke="black" points="793.043,-572.977 782.767,-570.398 789.192,-578.823 793.043,-572.977"/>
<text text-anchor="middle" x="874" y="-640.69" font-family="arial" font-size="14.00">refers to</text>
</g>
<!-- uig&#45;&gt;ta -->
<g id="edge11" class="edge"><title>uig&#45;&gt;ta</title>
<path fill="none" stroke="black" d="M542.227,-727.438C530.984,-715.093 518.9,-698.98 513,-681.867 492.495,-622.394 508.133,-548.301 520.894,-505.377"/>
<polygon fill="black" stroke="black" points="524.283,-506.266 523.888,-495.678 517.594,-504.201 524.283,-506.266"/>
<text text-anchor="middle" x="543.5" y="-640.69" font-family="arial" font-size="14.00">promotes</text>
</g>
<!-- ttm -->
<g id="node14" class="node"><title>ttm</title>
<ellipse fill="pink" stroke="black" cx="395" cy="-551.437" rx="41.9398" ry="37.4533"/>
<text text-anchor="middle" x="395" y="-562.737" font-family="arial" font-size="14.00">Time</text>
<text text-anchor="middle" x="395" y="-547.737" font-family="arial" font-size="14.00">To</text>
<text text-anchor="middle" x="395" y="-532.737" font-family="arial" font-size="14.00">Market</text>
</g>
<!-- uig&#45;&gt;ttm -->
<g id="edge19" class="edge"><title>uig&#45;&gt;ttm</title>
<path fill="none" stroke="black" d="M540.647,-727.713C528.595,-718.046 513.737,-707.349 499,-699.867 474.555,-687.456 459.748,-700.883 440,-681.867 414.601,-657.41 425.584,-640.217 414,-606.914 412.863,-603.645 411.687,-600.267 410.503,-596.868"/>
<polygon fill="black" stroke="black" points="413.768,-595.599 407.172,-587.308 407.157,-597.903 413.768,-595.599"/>
<text text-anchor="middle" x="467.5" y="-640.69" font-family="arial" font-size="14.00">shortens</text>
</g>
<!-- dbg&#45;&gt;ttm -->
<g id="edge18" class="edge"><title>dbg&#45;&gt;ttm</title>
<path fill="none" stroke="black" d="M255.878,-725.848C273.96,-696.246 306.145,-646.044 339,-606.914 345.021,-599.743 351.866,-592.478 358.654,-585.692"/>
<polygon fill="black" stroke="black" points="361.259,-588.04 365.955,-578.543 356.362,-583.038 361.259,-588.04"/>
<text text-anchor="middle" x="366.5" y="-640.69" font-family="arial" font-size="14.00">shortens</text>
</g>
<!-- std&#45;&gt;hr -->
<g id="edge24" class="edge"><title>std&#45;&gt;hr</title>
<path fill="none" stroke="black" d="M120.854,-726.832C156.501,-692.136 215,-624.259 215,-552.437 215,-552.437 215,-552.437 215,-145.61 215,-62.9148 326.057,-38.049 402.444,-30.7264"/>
<polygon fill="black" stroke="black" points="402.855,-34.2039 412.51,-29.8426 402.243,-27.2308 402.855,-34.2039"/>
<text text-anchor="middle" x="249" y="-335.65" font-family="arial" font-size="14.00">use of SC.</text>
<text text-anchor="middle" x="249" y="-320.65" font-family="arial" font-size="14.00">increases</text>
<text text-anchor="middle" x="249" y="-305.65" font-family="arial" font-size="14.00">supply of</text>
</g>
<!-- pdc -->
<g id="node15" class="node"><title>pdc</title>
<ellipse fill="pink" stroke="black" cx="473" cy="-242.48" rx="57.6901" ry="18"/>
<text text-anchor="middle" x="473" y="-238.78" font-family="arial" font-size="14.00">Productivity</text>
</g>
<!-- sc&#45;&gt;pdc -->
<g id="edge17" class="edge"><title>sc&#45;&gt;pdc</title>
<path fill="none" stroke="black" d="M528.297,-299.387C518.301,-289.281 506.689,-277.541 496.694,-267.436"/>
<polygon fill="black" stroke="black" points="498.94,-264.729 489.42,-260.081 493.964,-269.652 498.94,-264.729"/>
</g>
<!-- es -->
<g id="node17" class="node"><title>es</title>
<ellipse fill="pink" stroke="black" cx="339" cy="-146.61" rx="56.6372" ry="26.7407"/>
<text text-anchor="middle" x="339" y="-150.41" font-family="arial" font-size="14.00">Economic</text>
<text text-anchor="middle" x="339" y="-135.41" font-family="arial" font-size="14.00">Success</text>
</g>
<!-- ttm&#45;&gt;es -->
<g id="edge22" class="edge"><title>ttm&#45;&gt;es</title>
<path fill="none" stroke="black" d="M384.873,-514.859C377.573,-486.076 369,-444.368 369,-407.22 369,-407.22 369,-407.22 369,-241.48 369,-221.314 362.64,-199.819 355.777,-182.493"/>
<polygon fill="black" stroke="black" points="358.815,-180.686 351.723,-172.815 352.359,-183.391 358.815,-180.686"/>
</g>
<!-- pdc&#45;&gt;dh -->
<g id="edge16" class="edge"><title>pdc&#45;&gt;dh</title>
<path fill="none" stroke="black" d="M473,-224.263C473,-212.959 473,-197.749 473,-183.858"/>
<polygon fill="black" stroke="black" points="476.5,-183.579 473,-173.579 469.5,-183.579 476.5,-183.579"/>
<text text-anchor="middle" x="504" y="-195.28" font-family="arial" font-size="14.00">increases</text>
</g>
<!-- pdc&#45;&gt;es -->
<g id="edge23" class="edge"><title>pdc&#45;&gt;es</title>
<path fill="none" stroke="black" d="M450.571,-225.768C430.93,-212.009 401.936,-191.698 378.428,-175.23"/>
<polygon fill="black" stroke="black" points="380.241,-172.227 370.042,-169.356 376.224,-177.96 380.241,-172.227"/>
</g>
<!-- hr&#45;&gt;sc -->
<g id="edge21" class="edge"><title>hr&#45;&gt;sc</title>
<path fill="none" stroke="black" d="M514.254,-46.8411C523.989,-53.3288 533.21,-61.5788 539,-71.7401 577.794,-139.828 568.656,-235.846 559.675,-287.354"/>
<polygon fill="black" stroke="black" points="556.205,-286.874 557.837,-297.342 563.089,-288.141 556.205,-286.874"/>
</g>
<!-- std_note -->
<g id="node18" class="node"><title>std_note</title>
<polygon fill="gold" stroke="black" points="182,-964.867 -1.42109e-014,-964.867 -1.42109e-014,-878.867 188,-878.867 188,-958.867 182,-964.867"/>
<polyline fill="none" stroke="black" points="182,-964.867 182,-958.867 "/>
<polyline fill="none" stroke="black" points="188,-958.867 182,-958.867 "/>
<text text-anchor="middle" x="94" y="-941.667" font-family="arial" font-size="24.00">Planned:</text>
<text text-anchor="middle" x="94" y="-915.667" font-family="arial" font-size="24.00">JPA support</text>
<text text-anchor="middle" x="94" y="-889.667" font-family="arial" font-size="24.00">(alongside JDO)</text>
</g>
<!-- std_note&#45;&gt;std -->
<g id="edge25" class="edge"><title>std_note&#45;&gt;std</title>
<path fill="none" stroke="black" stroke-dasharray="1,5" d="M94,-878.474C94,-847.174 94,-805.563 94,-778.99"/>
</g>
<!-- uig_note -->
<g id="node19" class="node"><title>uig_note</title>
<polygon fill="gold" stroke="black" points="417.5,-973.867 224.5,-973.867 224.5,-869.867 423.5,-869.867 423.5,-967.867 417.5,-973.867"/>
<polyline fill="none" stroke="black" points="417.5,-973.867 417.5,-967.867 "/>
<polyline fill="none" stroke="black" points="423.5,-967.867 417.5,-967.867 "/>
<text text-anchor="start" x="239.5" y="-951.667" font-family="arial" font-size="24.00"> Allows for tight </text>
<text text-anchor="start" x="232.5" y="-927.667" font-family="arial" font-size="24.00"> </text>
<text text-anchor="start" x="239.5" y="-927.667" font-family="arial" font-weight="bold" font-size="24.00">feedback loop </text>
<text text-anchor="start" x="408.5" y="-927.667" font-family="arial" font-size="24.00">,</text>
<text text-anchor="start" x="275" y="-903.667" font-family="arial" font-size="24.00"> ideal for </text>
<text text-anchor="start" x="240.5" y="-879.667" font-family="arial" font-size="24.00"> </text>
<text text-anchor="start" x="247.5" y="-879.667" font-family="arial" font-weight="bold" font-size="24.00">agile</text>
<text text-anchor="start" x="304.5" y="-879.667" font-family="arial" font-size="24.00"> &#160;projects </text>
</g>
<!-- uig_note&#45;&gt;uig -->
<g id="edge26" class="edge"><title>uig_note&#45;&gt;uig</title>
<path fill="none" stroke="black" stroke-dasharray="1,5" d="M402.584,-869.635C432.956,-849.495 467.837,-825.946 499,-803.867 511.884,-794.739 525.877,-784.332 537.802,-775.309"/>
</g>
<!-- uig_note&#45;&gt;dbg -->
<g id="edge27" class="edge"><title>uig_note&#45;&gt;dbg</title>
<path fill="none" stroke="black" stroke-dasharray="1,5" d="M298.646,-869.549C283.772,-839.442 265.62,-802.7 253.708,-778.588"/>
</g>
<!-- ro_note -->
<g id="node20" class="node"><title>ro_note</title>
<polygon fill="gold" stroke="black" points="1084,-964.867 940,-964.867 940,-878.867 1090,-878.867 1090,-958.867 1084,-964.867"/>
<polyline fill="none" stroke="black" points="1084,-964.867 1084,-958.867 "/>
<polyline fill="none" stroke="black" points="1090,-958.867 1084,-958.867 "/>
<text text-anchor="middle" x="1015" y="-941.667" font-family="arial" font-size="24.00">Allows for</text>
<text text-anchor="middle" x="1015" y="-915.667" font-family="arial" font-size="24.00">custom UI</text>
<text text-anchor="middle" x="1015" y="-889.667" font-family="arial" font-size="24.00">development</text>
</g>
<!-- ro_note&#45;&gt;ro -->
<g id="edge28" class="edge"><title>ro_note&#45;&gt;ro</title>
<path fill="none" stroke="black" stroke-dasharray="1,5" d="M1015,-878.474C1015,-851.062 1015,-815.742 1015,-789.541"/>
</g>
<!-- ttm_note -->
<g id="node21" class="node"><title>ttm_note</title>
<polygon fill="gold" stroke="black" points="484,-803.867 318,-803.867 318,-699.867 490,-699.867 490,-797.867 484,-803.867"/>
<polyline fill="none" stroke="black" points="484,-803.867 484,-797.867 "/>
<polyline fill="none" stroke="black" points="490,-797.867 484,-797.867 "/>
<text text-anchor="start" x="326" y="-781.667" font-family="arial" font-size="24.00"> Key factor for </text>
<text text-anchor="start" x="334" y="-757.667" font-family="arial" font-size="24.00"> </text>
<text text-anchor="start" x="341" y="-757.667" font-family="arial" font-weight="bold" font-size="24.00">innovative, </text>
<text text-anchor="start" x="365.5" y="-733.667" font-family="arial" font-weight="bold" font-size="24.00"> agile </text>
<text text-anchor="start" x="435.5" y="-733.667" font-family="arial" font-size="24.00"> </text>
<text text-anchor="start" x="355.5" y="-709.667" font-family="arial" font-size="24.00"> projects </text>
</g>
<!-- ttm_note&#45;&gt;ttm -->
<g id="edge29" class="edge"><title>ttm_note&#45;&gt;ttm</title>
<path fill="none" stroke="black" stroke-dasharray="1,5" d="M401.682,-699.766C400.109,-665.088 398.067,-620.061 396.656,-588.959"/>
</g>
<!-- sui_note -->
<g id="node22" class="node"><title>sui_note</title>
<g id="a_node22"><a xlink:href="https://de.wikipedia.org/wiki/Smart_UI" xlink:title=" Avoids &lt;BR/&gt; Smart UI&lt;BR/&gt; Anti Pattern &#160;">
<polygon fill="gold" stroke="black" points="634.5,-964.867 479.5,-964.867 479.5,-878.867 640.5,-878.867 640.5,-958.867 634.5,-964.867"/>
<polyline fill="none" stroke="black" points="634.5,-964.867 634.5,-958.867 "/>
<polyline fill="none" stroke="black" points="640.5,-958.867 634.5,-958.867 "/>
<text text-anchor="start" x="518" y="-941.667" font-family="arial" font-size="24.00"> Avoids </text>
<text text-anchor="start" x="509" y="-915.667" font-family="arial" font-size="24.00"> Smart UI</text>
<text text-anchor="start" x="487.5" y="-889.667" font-family="arial" font-size="24.00"> Anti Pattern &#160;</text>
</a>
</g>
</g>
<!-- sui_note&#45;&gt;ddd -->
<g id="edge31" class="edge"><title>sui_note&#45;&gt;ddd</title>
<path fill="none" stroke="black" stroke-dasharray="1,5" d="M632.952,-878.74C656.507,-865.039 676.923,-853.012 678,-851.867 695.016,-833.772 707.579,-808.775 715.856,-788.427"/>
</g>
<!-- sui_note&#45;&gt;uig -->
<g id="edge30" class="edge"><title>sui_note&#45;&gt;uig</title>
<path fill="none" stroke="black" stroke-dasharray="1,5" d="M561.766,-878.474C563.071,-847.174 564.804,-805.563 565.912,-778.99"/>
</g>
</g>
</svg>
