<?xml version="1.0" encoding="UTF-8" standalone="no"?>
<!DOCTYPE svg PUBLIC "-//W3C//DTD SVG 1.1//EN"
 "http://www.w3.org/Graphics/SVG/1.1/DTD/svg11.dtd">
<!-- Generated by graphviz version 2.38.0 (20140413.2041)
 -->
<!-- Title: g Pages: 1 -->
<svg width="629pt" height="181pt"
 viewBox="0.00 0.00 628.96 181.00" xmlns="http://www.w3.org/2000/svg" xmlns:xlink="http://www.w3.org/1999/xlink">
<g id="graph0" class="graph" transform="scale(1 1) rotate(0) translate(4 177)">
<title>g</title>
<polygon fill="white" stroke="none" points="-4,4 -4,-177 624.962,-177 624.962,4 -4,4"/>
<!-- ai -->
<g id="node1" class="node"><title>ai</title>
<ellipse fill="white" stroke="black" cx="45.9619" cy="-130" rx="45.9239" ry="26.7407"/>
<text text-anchor="middle" x="45.9619" y="-133.8" font-family="arial" font-size="14.00">Apache</text>
<text text-anchor="middle" x="45.9619" y="-118.8" font-family="arial" font-size="14.00">Isis</text>
</g>
<!-- lc -->
<g id="node4" class="node"><title>lc</title>
<ellipse fill="white" stroke="black" cx="45.9619" cy="-18" rx="27" ry="18"/>
<text text-anchor="middle" x="45.9619" y="-14.3" font-family="arial" font-size="14.00">lc</text>
</g>
<!-- ai&#45;&gt;lc -->
<g id="edge1" class="edge"><title>ai&#45;&gt;lc</title>
<path fill="none" stroke="black" d="M45.9619,-102.932C45.9619,-85.8851 45.9619,-63.6551 45.9619,-46.3559"/>
<polygon fill="black" stroke="black" points="49.462,-46.3123 45.9619,-36.3123 42.462,-46.3123 49.462,-46.3123"/>
<text text-anchor="middle" x="56.9619" y="-57.8" font-family="arial" font-size="14.00">is a</text>
</g>
<!-- c -->
<g id="node2" class="node"><title>c</title>
<ellipse fill="white" stroke="black" cx="193.962" cy="-130" rx="84.485" ry="18"/>
<text text-anchor="middle" x="193.962" y="-126.3" font-family="arial" font-size="14.00">Comprehensibility</text>
</g>
<!-- dh -->
<g id="node3" class="node"><title>dh</title>
<ellipse fill="white" stroke="black" cx="355.962" cy="-130" rx="59.2941" ry="26.7407"/>
<text text-anchor="middle" x="355.962" y="-133.8" font-family="arial" font-size="14.00">Developer</text>
<text text-anchor="middle" x="355.962" y="-118.8" font-family="arial" font-size="14.00">Happiness</text>
</g>
<!-- std_note -->
<g id="node5" class="node"><title>std_note</title>
<polygon fill="gold" stroke="black" points="614.962,-173 432.962,-173 432.962,-87 620.962,-87 620.962,-167 614.962,-173"/>
<polyline fill="none" stroke="black" points="614.962,-173 614.962,-167 "/>
<polyline fill="none" stroke="black" points="620.962,-167 614.962,-167 "/>
<text text-anchor="middle" x="526.962" y="-149.8" font-family="arial" font-size="24.00">Planned:</text>
<text text-anchor="middle" x="526.962" y="-123.8" font-family="arial" font-size="24.00">JPA support</text>
<text text-anchor="middle" x="526.962" y="-97.8" font-family="arial" font-size="24.00">(alongside JDO)</text>
</g>
<!-- std -->
<g id="node6" class="node"><title>std</title>
<polygon fill="gold" stroke="black" points="547.962,-36 499.962,-36 499.962,-0 553.962,-0 553.962,-30 547.962,-36"/>
<polyline fill="none" stroke="black" points="547.962,-36 547.962,-30 "/>
<polyline fill="none" stroke="black" points="553.962,-30 547.962,-30 "/>
<text text-anchor="middle" x="526.962" y="-11.8" font-family="arial" font-size="24.00">std</text>
</g>
<!-- std_note&#45;&gt;std -->
<g id="edge2" class="edge"><title>std_note&#45;&gt;std</title>
<path fill="none" stroke="black" stroke-dasharray="1,5" d="M526.962,-86.7857C526.962,-69.2155 526.962,-49.8023 526.962,-36.2707"/>
</g>
</g>
</svg>
