<?xml version="1.0" encoding="UTF-8" standalone="no"?>
<!DOCTYPE svg PUBLIC "-//W3C//DTD SVG 1.1//EN"
 "http://www.w3.org/Graphics/SVG/1.1/DTD/svg11.dtd">
<!-- Generated by graphviz version 2.38.0 (20140413.2041)
 -->
<!-- Title: g Pages: 1 -->
<svg width="1102pt" height="328pt"
 viewBox="0.00 0.00 1102.16 328.43" xmlns="http://www.w3.org/2000/svg" xmlns:xlink="http://www.w3.org/1999/xlink">
<g id="graph0" class="graph" transform="scale(1 1) rotate(0) translate(4 324.434)">
<title>g</title>
<polygon fill="white" stroke="none" points="-4,4 -4,-324.434 1098.16,-324.434 1098.16,4 -4,4"/>
<!-- ai -->
<g id="node1" class="node"><title>ai</title>
<ellipse fill="white" stroke="black" cx="450.198" cy="-293.563" rx="45.9239" ry="26.7407"/>
<text text-anchor="middle" x="450.198" y="-297.363" font-family="arial" font-size="14.00">Apache</text>
<text text-anchor="middle" x="450.198" y="-282.363" font-family="arial" font-size="14.00">Isis</text>
</g>
<!-- ac -->
<g id="node2" class="node"><title>ac</title>
<ellipse fill="white" stroke="black" cx="450.198" cy="-159.823" rx="45.9239" ry="26.7407"/>
<text text-anchor="middle" x="450.198" y="-163.623" font-family="arial" font-size="14.00">Apache</text>
<text text-anchor="middle" x="450.198" y="-148.623" font-family="arial" font-size="14.00">Camel</text>
</g>
<!-- ai&#45;&gt;ac -->
<g id="edge1" class="edge"><title>ai&#45;&gt;ac</title>
<path fill="none" stroke="black" stroke-dasharray="5,2" d="M450.198,-266.536C450.198,-246.598 450.198,-218.858 450.198,-196.797"/>
<polygon fill="black" stroke="black" points="453.698,-196.797 450.198,-186.797 446.698,-196.797 453.698,-196.797"/>
<text text-anchor="middle" x="480.698" y="-240.693" font-family="arial" font-size="10.00">&lt;&lt;optionall&gt;&gt;</text>
<text text-anchor="middle" x="480.698" y="-229.693" font-family="arial" font-size="10.00">use as</text>
<text text-anchor="middle" x="480.698" y="-218.693" font-family="arial" font-size="10.00">external</text>
<text text-anchor="middle" x="480.698" y="-207.693" font-family="arial" font-size="10.00"> event bus</text>
</g>
<!-- dn -->
<g id="node3" class="node"><title>dn</title>
<g id="a_node3"><a xlink:href="https://en.wikipedia.org/wiki/DataNucleus" xlink:title="&lt;&lt;ORM&gt;&gt;\nDataNucleus">
<ellipse fill="white" stroke="black" cx="583.198" cy="-159.823" rx="68.6788" ry="26.7407"/>
<text text-anchor="middle" x="583.198" y="-163.623" font-family="arial" font-size="14.00">&lt;&lt;ORM&gt;&gt;</text>
<text text-anchor="middle" x="583.198" y="-148.623" font-family="arial" font-size="14.00">DataNucleus</text>
</a>
</g>
</g>
<!-- ai&#45;&gt;dn -->
<g id="edge2" class="edge"><title>ai&#45;&gt;dn</title>
<path fill="none" stroke="black" d="M482.125,-273.917C493.173,-266.733 505.264,-258.003 515.198,-248.693 532.338,-232.631 548.558,-211.968 560.855,-194.715"/>
<polygon fill="black" stroke="black" points="564.054,-196.248 566.912,-186.046 558.316,-192.238 564.054,-196.248"/>
<text text-anchor="middle" x="593.698" y="-229.693" font-family="arial" font-size="10.00">persistence</text>
<text text-anchor="middle" x="593.698" y="-218.693" font-family="arial" font-size="10.00">(JDO JPA NoSQL)</text>
</g>
<!-- aw -->
<g id="node5" class="node"><title>aw</title>
<ellipse fill="white" stroke="black" cx="98.1983" cy="-159.823" rx="45.9239" ry="26.7407"/>
<text text-anchor="middle" x="98.1983" y="-163.623" font-family="arial" font-size="14.00">Apache</text>
<text text-anchor="middle" x="98.1983" y="-148.623" font-family="arial" font-size="14.00">Wicket</text>
</g>
<!-- ai&#45;&gt;aw -->
<g id="edge6" class="edge"><title>ai&#45;&gt;aw</title>
<path fill="none" stroke="black" d="M406.729,-284.495C370.615,-277.139 318.215,-264.944 274.198,-248.693 226.113,-230.941 173.915,-203.801 138.955,-184.383"/>
<polygon fill="black" stroke="black" points="140.446,-181.207 130.011,-179.375 137.026,-187.314 140.446,-181.207"/>
<text text-anchor="middle" x="303.198" y="-235.193" font-family="arial" font-size="10.00">automatically</text>
<text text-anchor="middle" x="303.198" y="-224.193" font-family="arial" font-size="10.00"> generate UI</text>
<text text-anchor="middle" x="303.198" y="-213.193" font-family="arial" font-size="10.00">with</text>
</g>
<!-- am -->
<g id="node6" class="node"><title>am</title>
<ellipse fill="white" stroke="black" cx="1048.2" cy="-159.823" rx="45.9239" ry="26.7407"/>
<text text-anchor="middle" x="1048.2" y="-163.623" font-family="arial" font-size="14.00">Apache</text>
<text text-anchor="middle" x="1048.2" y="-148.623" font-family="arial" font-size="14.00">Maven</text>
</g>
<!-- ai&#45;&gt;am -->
<g id="edge7" class="edge"><title>ai&#45;&gt;am</title>
<path fill="none" stroke="black" d="M495.296,-288.104C589.796,-277.829 814.615,-248.481 993.198,-186.693 997.125,-185.335 1001.14,-183.782 1005.14,-182.127"/>
<polygon fill="black" stroke="black" points="1006.57,-185.322 1014.34,-178.124 1003.77,-178.903 1006.57,-185.322"/>
<text text-anchor="middle" x="961.698" y="-224.193" font-family="arial" font-size="10.00">use to build</text>
</g>
<!-- ej -->
<g id="node7" class="node"><title>ej</title>
<ellipse fill="white" stroke="black" cx="274.198" cy="-159.823" rx="111.946" ry="26.7407"/>
<text text-anchor="middle" x="274.198" y="-163.623" font-family="arial" font-size="14.00">&lt;&lt;Servlet Container&gt;&gt;</text>
<text text-anchor="middle" x="274.198" y="-148.623" font-family="arial" font-size="14.00">Eclipse Jetty</text>
</g>
<!-- ai&#45;&gt;ej -->
<g id="edge8" class="edge"><title>ai&#45;&gt;ej</title>
<path fill="none" stroke="black" d="M422.698,-271.979C393.91,-250.431 348.38,-216.35 315.318,-191.603"/>
<polygon fill="black" stroke="black" points="317.302,-188.716 307.199,-185.525 313.108,-194.32 317.302,-188.716"/>
<text text-anchor="middle" x="403.698" y="-224.193" font-family="arial" font-size="10.00">default</text>
</g>
<!-- re -->
<g id="node9" class="node"><title>re</title>
<g id="a_node9"><a xlink:href="https://en.wikipedia.org/wiki/Java_API_for_RESTful_Web_Services" xlink:title="&lt;&lt;JAX&#45;RS&gt;&gt;\nRestEasy">
<ellipse fill="white" stroke="black" cx="741.198" cy="-159.823" rx="71.3357" ry="26.7407"/>
<text text-anchor="middle" x="741.198" y="-163.623" font-family="arial" font-size="14.00">&lt;&lt;JAX&#45;RS&gt;&gt;</text>
<text text-anchor="middle" x="741.198" y="-148.623" font-family="arial" font-size="14.00">RestEasy</text>
</a>
</g>
</g>
<!-- ai&#45;&gt;re -->
<g id="edge3" class="edge"><title>ai&#45;&gt;re</title>
<path fill="none" stroke="black" d="M495.557,-288.099C534.976,-282.823 592.727,-271.664 638.198,-248.693 665.795,-234.752 692.226,-211.939 711.403,-193.051"/>
<polygon fill="black" stroke="black" points="714.075,-195.327 718.642,-185.767 709.11,-190.393 714.075,-195.327"/>
<text text-anchor="middle" x="709.198" y="-224.193" font-family="arial" font-size="10.00">uses</text>
</g>
<!-- osgi -->
<g id="node11" class="node"><title>osgi</title>
<polygon fill="gold" stroke="black" points="397.698,-55.4767 214.698,-55.4767 214.698,-19.4767 403.698,-19.4767 403.698,-49.4767 397.698,-55.4767"/>
<polyline fill="none" stroke="black" points="397.698,-55.4767 397.698,-49.4767 "/>
<polyline fill="none" stroke="black" points="403.698,-49.4767 397.698,-49.4767 "/>
<text text-anchor="start" x="222.698" y="-32.4767" font-family="arial" font-size="20.00"> &#160;&#160;&#160;OSGi compliant </text>
</g>
<!-- ai&#45;&gt;osgi -->
<g id="edge15" class="edge"><title>ai&#45;&gt;osgi</title>
<path fill="none" stroke="red" stroke-dasharray="5,2" d="M404.78,-289.013C301.941,-279.881 56.7513,-251.593 12.1983,-186.693 -43.5728,-105.453 107.679,-66.6129 214.268,-49.7771"/>
<text text-anchor="middle" x="27.6983" y="-157.323" font-family="arial" font-size="10.00">not yet</text>
</g>
<!-- ac&#45;&gt;osgi -->
<g id="edge12" class="edge"><title>ac&#45;&gt;osgi</title>
<path fill="none" stroke="black" stroke-dasharray="5,2" d="M424.99,-137.308C397.583,-113.915 354.338,-77.0048 329.178,-55.5298"/>
</g>
<!-- dn_note -->
<g id="node10" class="node"><title>dn_note</title>
<polygon fill="gold" stroke="black" points="704.198,-71.4767 456.198,-71.4767 456.198,-3.47666 710.198,-3.47666 710.198,-65.4767 704.198,-71.4767"/>
<polyline fill="none" stroke="black" points="704.198,-71.4767 704.198,-65.4767 "/>
<polyline fill="none" stroke="black" points="710.198,-65.4767 704.198,-65.4767 "/>
<text text-anchor="start" x="476.198" y="-52.4767" font-family="arial" font-size="20.00"> &#160;&#160;&#160;Used by ApacheHive</text>
<text text-anchor="start" x="464.198" y="-32.4767" font-family="arial" font-size="20.00"> &#160;&#160;&#160;which in turn is used by</text>
<text text-anchor="start" x="541.198" y="-12.4767" font-family="arial" font-size="20.00"> </text>
<text text-anchor="start" x="548.198" y="-12.4767" font-family="arial" font-weight="bold" font-size="20.00">NetFlix</text>
<text text-anchor="start" x="618.198" y="-12.4767" font-family="arial" font-size="20.00"> </text>
</g>
<!-- dn&#45;&gt;dn_note -->
<g id="edge9" class="edge"><title>dn&#45;&gt;dn_note</title>
<path fill="none" stroke="black" stroke-dasharray="5,2" d="M583.198,-132.71C583.198,-114.874 583.198,-91.0857 583.198,-71.8726"/>
</g>
<!-- dn&#45;&gt;osgi -->
<g id="edge10" class="edge"><title>dn&#45;&gt;osgi</title>
<path fill="none" stroke="black" stroke-dasharray="5,2" d="M538.566,-139.22C485.642,-115.975 398.296,-77.6105 348.046,-55.5393"/>
</g>
<!-- ro -->
<g id="node4" class="node"><title>ro</title>
<g id="a_node4"><a xlink:href="https://en.wikipedia.org/wiki/Restful_Objects" xlink:title="Restful\n Objects\nSpecification">
<ellipse fill="white" stroke="black" cx="852.198" cy="-37.4767" rx="69.0935" ry="37.4533"/>
<text text-anchor="middle" x="852.198" y="-48.7767" font-family="arial" font-size="14.00">Restful</text>
<text text-anchor="middle" x="852.198" y="-33.7767" font-family="arial" font-size="14.00"> Objects</text>
<text text-anchor="middle" x="852.198" y="-18.7767" font-family="arial" font-size="14.00">Specification</text>
</a>
</g>
</g>
<!-- aw&#45;&gt;osgi -->
<g id="edge11" class="edge"><title>aw&#45;&gt;osgi</title>
<path fill="none" stroke="black" stroke-dasharray="5,2" d="M130.245,-140.545C170.71,-117.465 239.797,-78.0605 279.245,-55.5607"/>
</g>
<!-- ej&#45;&gt;osgi -->
<g id="edge13" class="edge"><title>ej&#45;&gt;osgi</title>
<path fill="none" stroke="black" stroke-dasharray="5,2" d="M281.707,-133.006C288.496,-109.662 298.302,-75.9427 304.183,-55.7204"/>
</g>
<!-- s -->
<g id="node8" class="node"><title>s</title>
<g id="a_node8"><a xlink:href="https://en.wikipedia.org/wiki/OpenAPI_Specification" xlink:title="&lt;&lt;OpenAPI&gt;&gt;\nSwagger">
<ellipse fill="white" stroke="black" cx="907.198" cy="-159.823" rx="77.1494" ry="26.7407"/>
<text text-anchor="middle" x="907.198" y="-163.623" font-family="arial" font-size="14.00">&lt;&lt;OpenAPI&gt;&gt;</text>
<text text-anchor="middle" x="907.198" y="-148.623" font-family="arial" font-size="14.00">Swagger</text>
</a>
</g>
</g>
<!-- s&#45;&gt;ro -->
<g id="edge5" class="edge"><title>s&#45;&gt;ro</title>
<path fill="none" stroke="black" d="M895.399,-133.006C888.856,-118.688 880.528,-100.467 872.935,-83.8505"/>
<polygon fill="black" stroke="black" points="875.907,-81.9348 868.567,-74.2944 869.541,-84.8444 875.907,-81.9348"/>
<text text-anchor="middle" x="908.698" y="-106.953" font-family="arial" font-size="10.00">verify/</text>
<text text-anchor="middle" x="908.698" y="-95.9533" font-family="arial" font-size="10.00">document</text>
</g>
<!-- re&#45;&gt;ro -->
<g id="edge4" class="edge"><title>re&#45;&gt;ro</title>
<path fill="none" stroke="black" d="M763.929,-134.179C778.58,-118.294 797.979,-97.2616 814.859,-78.9604"/>
<polygon fill="black" stroke="black" points="817.71,-81.031 821.917,-71.3073 812.565,-76.2851 817.71,-81.031"/>
<text text-anchor="middle" x="828.698" y="-101.453" font-family="arial" font-size="10.00">to implement</text>
</g>
<!-- re&#45;&gt;osgi -->
<g id="edge14" class="edge"><title>re&#45;&gt;osgi</title>
<path fill="none" stroke="black" stroke-dasharray="5,2" d="M688.816,-141.466C679.636,-138.544 670.157,-135.602 661.198,-132.953 633.59,-124.79 467.325,-80.4824 373.51,-55.5491"/>
</g>
</g>
</svg>
