<?xml version="1.0" encoding="UTF-8" standalone="no"?>
<!DOCTYPE svg PUBLIC "-//W3C//DTD SVG 1.1//EN"
 "http://www.w3.org/Graphics/SVG/1.1/DTD/svg11.dtd">
<!-- Generated by graphviz version 2.38.0 (20140413.2041)
 -->
<!-- Title: g Pages: 1 -->
<svg width="682pt" height="499pt"
 viewBox="0.00 0.00 681.85 499.43" xmlns="http://www.w3.org/2000/svg" xmlns:xlink="http://www.w3.org/1999/xlink">
<g id="graph0" class="graph" transform="scale(1 1) rotate(0) translate(4 495.434)">
<title>g</title>
<polygon fill="white" stroke="none" points="-4,4 -4,-495.434 677.85,-495.434 677.85,4 -4,4"/>
<!-- mdd -->
<g id="node1" class="node"><title>mdd</title>
<ellipse fill="none" stroke="black" cx="331.796" cy="-453.957" rx="43.6818" ry="37.4533"/>
<text text-anchor="middle" x="331.796" y="-465.257" font-family="arial" font-size="14.00">Model</text>
<text text-anchor="middle" x="331.796" y="-450.257" font-family="arial" font-size="14.00">Driven</text>
<text text-anchor="middle" x="331.796" y="-435.257" font-family="arial" font-size="14.00">Design</text>
</g>
<!-- svc -->
<g id="node2" class="node"><title>svc</title>
<ellipse fill="none" stroke="black" cx="46.7958" cy="-293.61" rx="46.5926" ry="18"/>
<text text-anchor="middle" x="46.7958" y="-289.91" font-family="arial" font-size="14.00">Services</text>
</g>
<!-- mdd&#45;&gt;svc -->
<g id="edge1" class="edge"><title>mdd&#45;&gt;svc</title>
<path fill="none" stroke="black" d="M288.14,-449.99C220.305,-444.443 94.2091,-430.082 63.7958,-398.48 44.4567,-378.386 42.1346,-345.331 43.4128,-321.913"/>
<polygon fill="black" stroke="black" points="46.9043,-322.158 44.2052,-311.912 39.9262,-321.605 46.9043,-322.158"/>
<text text-anchor="middle" x="89.7958" y="-379.78" font-family="arial" font-size="14.00">express</text>
<text text-anchor="middle" x="89.7958" y="-364.78" font-family="arial" font-size="14.00">model</text>
<text text-anchor="middle" x="89.7958" y="-349.78" font-family="arial" font-size="14.00">with</text>
</g>
<!-- de -->
<g id="node3" class="node"><title>de</title>
<ellipse fill="none" stroke="black" cx="135.796" cy="-143.87" rx="45.9239" ry="26.7407"/>
<text text-anchor="middle" x="135.796" y="-147.67" font-family="arial" font-size="14.00">Domain</text>
<text text-anchor="middle" x="135.796" y="-132.67" font-family="arial" font-size="14.00">Events</text>
</g>
<!-- mdd&#45;&gt;de -->
<g id="edge2" class="edge"><title>mdd&#45;&gt;de</title>
<path fill="none" stroke="black" d="M297.483,-430.325C263.286,-406.366 211.06,-365.801 176.796,-320.48 155.63,-292.485 152.615,-282.71 143.796,-248.74 138.068,-226.677 136.041,-201.163 135.459,-180.943"/>
<polygon fill="black" stroke="black" points="138.958,-180.832 135.275,-170.898 131.959,-180.961 138.958,-180.832"/>
<text text-anchor="middle" x="202.796" y="-304.91" font-family="arial" font-size="14.00">express</text>
<text text-anchor="middle" x="202.796" y="-289.91" font-family="arial" font-size="14.00">change</text>
<text text-anchor="middle" x="202.796" y="-274.91" font-family="arial" font-size="14.00">with</text>
</g>
<!-- e -->
<g id="node6" class="node"><title>e</title>
<ellipse fill="none" stroke="black" cx="278.796" cy="-293.61" rx="40.8928" ry="18"/>
<text text-anchor="middle" x="278.796" y="-289.91" font-family="arial" font-size="14.00">Entities</text>
</g>
<!-- mdd&#45;&gt;e -->
<g id="edge3" class="edge"><title>mdd&#45;&gt;e</title>
<path fill="none" stroke="black" d="M312.578,-420.181C308.977,-413.175 305.5,-405.705 302.796,-398.48 293.361,-373.272 286.901,-343.183 283.08,-321.895"/>
<polygon fill="black" stroke="black" points="286.51,-321.188 281.368,-311.924 279.611,-322.372 286.51,-321.188"/>
<text text-anchor="middle" x="328.796" y="-379.78" font-family="arial" font-size="14.00">express</text>
<text text-anchor="middle" x="328.796" y="-364.78" font-family="arial" font-size="14.00">identity</text>
<text text-anchor="middle" x="328.796" y="-349.78" font-family="arial" font-size="14.00">with</text>
</g>
<!-- vo -->
<g id="node7" class="node"><title>vo</title>
<ellipse fill="none" stroke="black" cx="384.796" cy="-293.61" rx="46.8387" ry="26.7407"/>
<text text-anchor="middle" x="384.796" y="-297.41" font-family="arial" font-size="14.00">Value</text>
<text text-anchor="middle" x="384.796" y="-282.41" font-family="arial" font-size="14.00">Objects</text>
</g>
<!-- mdd&#45;&gt;vo -->
<g id="edge4" class="edge"><title>mdd&#45;&gt;vo</title>
<path fill="none" stroke="black" d="M347.019,-418.616C349.75,-411.989 352.466,-405.061 354.796,-398.48 362.729,-376.079 370.153,-350.429 375.631,-330.223"/>
<polygon fill="black" stroke="black" points="379.031,-331.055 378.234,-320.49 372.269,-329.246 379.031,-331.055"/>
<text text-anchor="middle" x="412.796" y="-387.28" font-family="arial" font-size="14.00">express</text>
<text text-anchor="middle" x="412.796" y="-372.28" font-family="arial" font-size="14.00">state &amp;</text>
<text text-anchor="middle" x="412.796" y="-357.28" font-family="arial" font-size="14.00">computation</text>
<text text-anchor="middle" x="412.796" y="-342.28" font-family="arial" font-size="14.00">with</text>
</g>
<!-- sui -->
<g id="node9" class="node"><title>sui</title>
<ellipse fill="none" stroke="black" cx="487.796" cy="-293.61" rx="38.3684" ry="26.7407"/>
<text text-anchor="middle" x="487.796" y="-297.41" font-family="arial" font-size="14.00">Smart</text>
<text text-anchor="middle" x="487.796" y="-282.41" font-family="arial" font-size="14.00">UI</text>
</g>
<!-- mdd&#45;&gt;sui -->
<g id="edge14" class="edge"><title>mdd&#45;&gt;sui</title>
<path fill="none" stroke="black" d="M374.264,-443.921C401.102,-436.136 434.6,-422.268 455.796,-398.48 472.485,-379.751 480.47,-352.462 484.291,-330.554"/>
<polygon fill="black" stroke="black" points="487.76,-331.02 485.811,-320.606 480.84,-329.963 487.76,-331.02"/>
<text text-anchor="middle" x="513.296" y="-387.28" font-family="arial" font-size="14.00">X</text>
<text text-anchor="middle" x="513.296" y="-372.28" font-family="arial" font-size="14.00">mutually</text>
<text text-anchor="middle" x="513.296" y="-357.28" font-family="arial" font-size="14.00">exclusive</text>
<text text-anchor="middle" x="513.296" y="-342.28" font-family="arial" font-size="14.00">choices</text>
</g>
<!-- la -->
<g id="node10" class="node"><title>la</title>
<ellipse fill="none" stroke="black" cx="608.796" cy="-293.61" rx="65.1077" ry="26.7407"/>
<text text-anchor="middle" x="608.796" y="-297.41" font-family="arial" font-size="14.00">Layered</text>
<text text-anchor="middle" x="608.796" y="-282.41" font-family="arial" font-size="14.00">Architecture</text>
</g>
<!-- mdd&#45;&gt;la -->
<g id="edge15" class="edge"><title>mdd&#45;&gt;la</title>
<path fill="none" stroke="black" d="M375.948,-451.494C422.616,-447.887 496.313,-436.099 546.796,-398.48 569.93,-381.241 586.089,-352.593 596.097,-329.745"/>
<polygon fill="black" stroke="black" points="599.393,-330.935 600.013,-320.358 592.933,-328.24 599.393,-330.935"/>
<text text-anchor="middle" x="630.796" y="-387.28" font-family="arial" font-size="14.00">isolate</text>
<text text-anchor="middle" x="630.796" y="-372.28" font-family="arial" font-size="14.00">domain</text>
<text text-anchor="middle" x="630.796" y="-357.28" font-family="arial" font-size="14.00">expressions</text>
<text text-anchor="middle" x="630.796" y="-342.28" font-family="arial" font-size="14.00">with</text>
</g>
<!-- rep -->
<g id="node4" class="node"><title>rep</title>
<ellipse fill="none" stroke="black" cx="290.796" cy="-18" rx="63.8893" ry="18"/>
<text text-anchor="middle" x="290.796" y="-14.3" font-family="arial" font-size="14.00">Repositories</text>
</g>
<!-- ag -->
<g id="node5" class="node"><title>ag</title>
<ellipse fill="none" stroke="black" cx="343.796" cy="-143.87" rx="59.2899" ry="18"/>
<text text-anchor="middle" x="343.796" y="-140.17" font-family="arial" font-size="14.00">Aggregates</text>
</g>
<!-- ag&#45;&gt;rep -->
<g id="edge10" class="edge"><title>ag&#45;&gt;rep</title>
<path fill="none" stroke="black" d="M318.882,-127.532C309.252,-120.184 299.253,-110.471 293.796,-99 286.082,-82.786 285.39,-62.5636 286.597,-46.5074"/>
<polygon fill="black" stroke="black" points="290.12,-46.4661 287.673,-36.1577 283.157,-45.7422 290.12,-46.4661"/>
<text text-anchor="middle" x="316.796" y="-80.3" font-family="arial" font-size="14.00">access</text>
<text text-anchor="middle" x="316.796" y="-65.3" font-family="arial" font-size="14.00">with</text>
</g>
<!-- fct -->
<g id="node8" class="node"><title>fct</title>
<ellipse fill="none" stroke="black" cx="438.796" cy="-18" rx="49.2915" ry="18"/>
<text text-anchor="middle" x="438.796" y="-14.3" font-family="arial" font-size="14.00">Factories</text>
</g>
<!-- ag&#45;&gt;fct -->
<g id="edge11" class="edge"><title>ag&#45;&gt;fct</title>
<path fill="none" stroke="black" d="M347.497,-125.782C352.383,-106.521 362.578,-75.1445 380.796,-54 386.139,-47.7979 392.865,-42.3809 399.827,-37.7805"/>
<polygon fill="black" stroke="black" points="401.96,-40.5799 408.684,-32.3926 398.322,-34.5994 401.96,-40.5799"/>
<text text-anchor="middle" x="402.796" y="-87.8" font-family="arial" font-size="14.00">encap&#45;</text>
<text text-anchor="middle" x="402.796" y="-72.8" font-family="arial" font-size="14.00">sulate</text>
<text text-anchor="middle" x="402.796" y="-57.8" font-family="arial" font-size="14.00">with</text>
</g>
<!-- e&#45;&gt;de -->
<g id="edge5" class="edge"><title>e&#45;&gt;de</title>
<path fill="none" stroke="black" d="M240.348,-287.126C215.209,-281.578 183.495,-270.54 163.796,-248.74 154.731,-238.709 146.964,-206.801 141.926,-180.97"/>
<polygon fill="black" stroke="black" points="145.352,-180.253 140.067,-171.07 138.472,-181.544 145.352,-180.253"/>
<text text-anchor="middle" x="187.296" y="-237.54" font-family="arial" font-size="14.00">push</text>
<text text-anchor="middle" x="187.296" y="-222.54" font-family="arial" font-size="14.00">state</text>
<text text-anchor="middle" x="187.296" y="-207.54" font-family="arial" font-size="14.00">change</text>
<text text-anchor="middle" x="187.296" y="-192.54" font-family="arial" font-size="14.00">with</text>
</g>
<!-- e&#45;&gt;rep -->
<g id="edge6" class="edge"><title>e&#45;&gt;rep</title>
<path fill="none" stroke="black" d="M268.008,-276.127C249.008,-244.997 213.096,-175.433 229.796,-117 237.628,-89.5957 255.584,-62.3945 269.999,-43.6284"/>
<polygon fill="black" stroke="black" points="272.867,-45.6443 276.323,-35.6292 267.375,-41.3028 272.867,-45.6443"/>
<text text-anchor="middle" x="252.796" y="-147.67" font-family="arial" font-size="14.00">access</text>
<text text-anchor="middle" x="252.796" y="-132.67" font-family="arial" font-size="14.00">with</text>
</g>
<!-- e&#45;&gt;ag -->
<g id="edge7" class="edge"><title>e&#45;&gt;ag</title>
<path fill="none" stroke="black" d="M298.067,-277.382C306.574,-269.673 315.951,-259.644 321.796,-248.74 334.609,-224.835 339.961,-194.096 342.196,-172.275"/>
<polygon fill="black" stroke="black" points="345.705,-172.32 343.082,-162.055 338.731,-171.715 345.705,-172.32"/>
<text text-anchor="middle" x="362.796" y="-230.04" font-family="arial" font-size="14.00">encap&#45;</text>
<text text-anchor="middle" x="362.796" y="-215.04" font-family="arial" font-size="14.00">sulate</text>
<text text-anchor="middle" x="362.796" y="-200.04" font-family="arial" font-size="14.00">with</text>
</g>
<!-- e&#45;&gt;ag -->
<g id="edge8" class="edge"><title>e&#45;&gt;ag</title>
<path fill="none" stroke="black" d="M273.345,-275.577C267.483,-253.946 260.863,-216.146 275.796,-188.74 281.411,-178.435 290.602,-170.184 300.436,-163.744"/>
<polygon fill="black" stroke="black" points="302.369,-166.667 309.171,-158.545 298.788,-160.652 302.369,-166.667"/>
<text text-anchor="middle" x="296.796" y="-222.54" font-family="arial" font-size="14.00">act as</text>
<text text-anchor="middle" x="296.796" y="-207.54" font-family="arial" font-size="14.00">root of</text>
</g>
<!-- e&#45;&gt;fct -->
<g id="edge9" class="edge"><title>e&#45;&gt;fct</title>
<path fill="none" stroke="black" d="M303.037,-278.916C311.084,-274.683 320.189,-270.223 328.796,-266.74 354.604,-256.298 369.156,-268.473 388.796,-248.74 417.006,-220.396 431.324,-100.857 436.489,-46.3242"/>
<polygon fill="black" stroke="black" points="439.978,-46.6076 437.402,-36.3307 433.007,-45.971 439.978,-46.6076"/>
<text text-anchor="middle" x="450.796" y="-155.17" font-family="arial" font-size="14.00">encap&#45;</text>
<text text-anchor="middle" x="450.796" y="-140.17" font-family="arial" font-size="14.00">sulate</text>
<text text-anchor="middle" x="450.796" y="-125.17" font-family="arial" font-size="14.00">with</text>
</g>
<!-- vo&#45;&gt;ag -->
<g id="edge12" class="edge"><title>vo&#45;&gt;ag</title>
<path fill="none" stroke="black" d="M392.918,-267.126C398.39,-245.364 402.804,-213.713 391.796,-188.74 388.196,-180.573 382.241,-173.266 375.73,-167.067"/>
<polygon fill="black" stroke="black" points="377.787,-164.218 367.938,-160.313 373.202,-169.508 377.787,-164.218"/>
<text text-anchor="middle" x="420.796" y="-230.04" font-family="arial" font-size="14.00">encap&#45;</text>
<text text-anchor="middle" x="420.796" y="-215.04" font-family="arial" font-size="14.00">sulate</text>
<text text-anchor="middle" x="420.796" y="-200.04" font-family="arial" font-size="14.00">with</text>
</g>
<!-- vo&#45;&gt;fct -->
<g id="edge13" class="edge"><title>vo&#45;&gt;fct</title>
<path fill="none" stroke="black" d="M417.139,-274.045C427.485,-267.041 438.416,-258.403 446.796,-248.74 472.321,-219.308 477.652,-208.611 486.796,-170.74 492.402,-147.523 492.188,-140.268 486.796,-117 480.731,-90.83 466.658,-63.5845 455.31,-44.4839"/>
<polygon fill="black" stroke="black" points="458.205,-42.5099 450.004,-35.802 452.232,-46.1599 458.205,-42.5099"/>
<text text-anchor="middle" x="513.796" y="-155.17" font-family="arial" font-size="14.00">encap&#45;</text>
<text text-anchor="middle" x="513.796" y="-140.17" font-family="arial" font-size="14.00">sulate</text>
<text text-anchor="middle" x="513.796" y="-125.17" font-family="arial" font-size="14.00">with</text>
</g>
</g>
</svg>
