<?xml version="1.0" encoding="UTF-8" standalone="no"?>
<!DOCTYPE svg PUBLIC "-//W3C//DTD SVG 1.1//EN"
 "http://www.w3.org/Graphics/SVG/1.1/DTD/svg11.dtd">
<!-- Generated by graphviz version 2.38.0 (20140413.2041)
 -->
<!-- Title: g Pages: 1 -->
<svg width="557pt" height="404pt"
 viewBox="0.00 0.00 557.00 404.00" xmlns="http://www.w3.org/2000/svg" xmlns:xlink="http://www.w3.org/1999/xlink">
<g id="graph0" class="graph" transform="scale(1 1) rotate(0) translate(4 400)">
<title>g</title>
<polygon fill="white" stroke="none" points="-4,4 -4,-400 553,-400 553,4 -4,4"/>
<!-- mdd -->
<g id="node1" class="node"><title>mdd</title>
<ellipse fill="white" stroke="black" cx="186.343" cy="-169.037" rx="43.6818" ry="37.4533"/>
<text text-anchor="middle" x="186.343" y="-180.337" font-family="arial" font-size="14.00">Model</text>
<text text-anchor="middle" x="186.343" y="-165.337" font-family="arial" font-size="14.00">Driven</text>
<text text-anchor="middle" x="186.343" y="-150.337" font-family="arial" font-size="14.00">Design</text>
</g>
<!-- svc -->
<g id="node2" class="node"><title>svc</title>
<ellipse fill="lightblue" stroke="black" cx="169.392" cy="-323.793" rx="46.5926" ry="18"/>
<text text-anchor="middle" x="169.392" y="-320.093" font-family="arial" font-size="14.00">Services</text>
</g>
<!-- mdd&#45;&gt;svc -->
<g id="edge1" class="edge"><title>mdd&#45;&gt;svc</title>
<path fill="none" stroke="black" d="M182.239,-206.499C179.252,-233.772 175.267,-270.156 172.531,-295.129"/>
<polygon fill="black" stroke="black" points="169.016,-295.078 171.406,-305.4 175.974,-295.84 169.016,-295.078"/>
<text text-anchor="middle" x="159.885" y="-275.814" font-family="arial" font-size="10.00">express</text>
<text text-anchor="middle" x="159.885" y="-264.814" font-family="arial" font-size="10.00">model</text>
<text text-anchor="middle" x="159.885" y="-253.814" font-family="arial" font-size="10.00">with</text>
</g>
<!-- de -->
<g id="node3" class="node"><title>de</title>
<ellipse fill="lightblue" stroke="black" cx="266.023" cy="-64.2978" rx="45.9239" ry="26.7407"/>
<text text-anchor="middle" x="266.023" y="-68.0978" font-family="arial" font-size="14.00">Domain</text>
<text text-anchor="middle" x="266.023" y="-53.0978" font-family="arial" font-size="14.00">Events</text>
</g>
<!-- mdd&#45;&gt;de -->
<g id="edge2" class="edge"><title>mdd&#45;&gt;de</title>
<path fill="none" stroke="black" d="M210.249,-137.612C219.951,-124.859 231.162,-110.122 240.977,-97.2207"/>
<polygon fill="black" stroke="black" points="243.926,-99.1248 247.195,-89.047 238.355,-94.8866 243.926,-99.1248"/>
<text text-anchor="middle" x="208.113" y="-109.416" font-family="arial" font-size="10.00">express</text>
<text text-anchor="middle" x="208.113" y="-98.4162" font-family="arial" font-size="10.00">change</text>
<text text-anchor="middle" x="208.113" y="-87.4162" font-family="arial" font-size="10.00">with</text>
</g>
<!-- e -->
<g id="node6" class="node"><title>e</title>
<ellipse fill="lightblue" stroke="black" cx="335.347" cy="-240.169" rx="40.8928" ry="18"/>
<text text-anchor="middle" x="335.347" y="-236.469" font-family="arial" font-size="14.00">Entities</text>
</g>
<!-- mdd&#45;&gt;e -->
<g id="edge3" class="edge"><title>mdd&#45;&gt;e</title>
<path fill="none" stroke="black" d="M224.715,-187.355C247.35,-198.161 275.855,-211.769 298.262,-222.465"/>
<polygon fill="black" stroke="black" points="296.925,-225.705 307.457,-226.855 299.94,-219.388 296.925,-225.705"/>
<text text-anchor="middle" x="278.989" y="-196.91" font-family="arial" font-size="10.00">express</text>
<text text-anchor="middle" x="278.989" y="-185.91" font-family="arial" font-size="10.00">identity</text>
<text text-anchor="middle" x="278.989" y="-174.91" font-family="arial" font-size="10.00">with</text>
</g>
<!-- vo -->
<g id="node7" class="node"><title>vo</title>
<ellipse fill="lightblue" stroke="black" cx="395.489" cy="-137.337" rx="46.8387" ry="26.7407"/>
<text text-anchor="middle" x="395.489" y="-141.137" font-family="arial" font-size="14.00">Value</text>
<text text-anchor="middle" x="395.489" y="-126.137" font-family="arial" font-size="14.00">Objects</text>
</g>
<!-- mdd&#45;&gt;vo -->
<g id="edge4" class="edge"><title>mdd&#45;&gt;vo</title>
<path fill="none" stroke="black" d="M229.678,-162.469C261.694,-157.616 305.535,-150.971 340.096,-145.733"/>
<polygon fill="black" stroke="black" points="340.676,-149.185 350.039,-144.226 339.627,-142.264 340.676,-149.185"/>
<text text-anchor="middle" x="257.887" y="-146.101" font-family="arial" font-size="10.00">express</text>
<text text-anchor="middle" x="257.887" y="-135.101" font-family="arial" font-size="10.00">state &amp;</text>
<text text-anchor="middle" x="257.887" y="-124.101" font-family="arial" font-size="10.00">computation</text>
<text text-anchor="middle" x="257.887" y="-113.101" font-family="arial" font-size="10.00">with</text>
</g>
<!-- sui -->
<g id="node9" class="node"><title>sui</title>
<ellipse fill="white" stroke="black" cx="38.2605" cy="-194.232" rx="38.3684" ry="26.7407"/>
<text text-anchor="middle" x="38.2605" y="-198.032" font-family="arial" font-size="14.00">Smart</text>
<text text-anchor="middle" x="38.2605" y="-183.032" font-family="arial" font-size="14.00">UI</text>
</g>
<!-- mdd&#45;&gt;sui -->
<g id="edge14" class="edge"><title>mdd&#45;&gt;sui</title>
<path fill="none" stroke="black" d="M143.113,-176.392C125.106,-179.456 104.139,-183.024 85.7077,-186.16"/>
<polygon fill="black" stroke="black" points="85.0351,-182.724 75.7639,-187.851 86.2093,-189.624 85.0351,-182.724"/>
<text text-anchor="middle" x="114.41" y="-173.276" font-family="arial" font-size="10.00">X</text>
<text text-anchor="middle" x="114.41" y="-162.276" font-family="arial" font-size="10.00">mutually</text>
<text text-anchor="middle" x="114.41" y="-151.276" font-family="arial" font-size="10.00">exclusive</text>
<text text-anchor="middle" x="114.41" y="-140.276" font-family="arial" font-size="10.00">choices</text>
</g>
<!-- la -->
<g id="node10" class="node"><title>la</title>
<ellipse fill="white" stroke="black" cx="118.257" cy="-26.7645" rx="65.1077" ry="26.7407"/>
<text text-anchor="middle" x="118.257" y="-30.5645" font-family="arial" font-size="14.00">Layered</text>
<text text-anchor="middle" x="118.257" y="-15.5645" font-family="arial" font-size="14.00">Architecture</text>
</g>
<!-- mdd&#45;&gt;la -->
<g id="edge15" class="edge"><title>mdd&#45;&gt;la</title>
<path fill="none" stroke="black" d="M169.687,-134.233C159.262,-112.448 145.863,-84.4496 135.355,-62.4922"/>
<polygon fill="black" stroke="black" points="138.373,-60.6904 130.899,-53.181 132.058,-63.7122 138.373,-60.6904"/>
<text text-anchor="middle" x="126.021" y="-90.3627" font-family="arial" font-size="10.00">isolate</text>
<text text-anchor="middle" x="126.021" y="-79.3627" font-family="arial" font-size="10.00">domain</text>
<text text-anchor="middle" x="126.021" y="-68.3627" font-family="arial" font-size="10.00">expressions</text>
<text text-anchor="middle" x="126.021" y="-57.3627" font-family="arial" font-size="10.00">with</text>
</g>
<!-- rep -->
<g id="node4" class="node"><title>rep</title>
<ellipse fill="lightblue" stroke="black" cx="331.197" cy="-378.298" rx="63.8893" ry="18"/>
<text text-anchor="middle" x="331.197" y="-374.598" font-family="arial" font-size="14.00">Repositories</text>
</g>
<!-- ag -->
<g id="node5" class="node"><title>ag</title>
<ellipse fill="white" stroke="black" cx="443.498" cy="-285.78" rx="59.2899" ry="18"/>
<text text-anchor="middle" x="443.498" y="-282.08" font-family="arial" font-size="14.00">Aggregates</text>
</g>
<!-- ag&#45;&gt;rep -->
<g id="edge10" class="edge"><title>ag&#45;&gt;rep</title>
<path fill="none" stroke="black" d="M422.9,-302.749C405.203,-317.329 379.5,-338.504 359.806,-354.729"/>
<polygon fill="black" stroke="black" points="357.537,-352.063 352.045,-361.123 361.988,-357.466 357.537,-352.063"/>
<text text-anchor="middle" x="375.353" y="-342.739" font-family="arial" font-size="10.00">access</text>
<text text-anchor="middle" x="375.353" y="-331.739" font-family="arial" font-size="10.00">with</text>
</g>
<!-- fct -->
<g id="node8" class="node"><title>fct</title>
<ellipse fill="lightblue" stroke="black" cx="499.564" cy="-183.941" rx="49.2915" ry="18"/>
<text text-anchor="middle" x="499.564" y="-180.241" font-family="arial" font-size="14.00">Factories</text>
</g>
<!-- ag&#45;&gt;fct -->
<g id="edge11" class="edge"><title>ag&#45;&gt;fct</title>
<path fill="none" stroke="black" d="M453.522,-267.573C462.266,-251.69 475.063,-228.444 484.948,-210.489"/>
<polygon fill="black" stroke="black" points="488.058,-212.097 489.815,-201.649 481.926,-208.721 488.058,-212.097"/>
<text text-anchor="middle" x="454.235" y="-231.031" font-family="arial" font-size="10.00">encap&#45;</text>
<text text-anchor="middle" x="454.235" y="-220.031" font-family="arial" font-size="10.00">sulate</text>
<text text-anchor="middle" x="454.235" y="-209.031" font-family="arial" font-size="10.00">with</text>
</g>
<!-- e&#45;&gt;de -->
<g id="edge5" class="edge"><title>e&#45;&gt;de</title>
<path fill="none" stroke="black" d="M328.318,-222.338C317.069,-193.799 294.801,-137.307 280.164,-100.172"/>
<polygon fill="black" stroke="black" points="283.359,-98.7335 276.436,-90.7137 276.847,-101.301 283.359,-98.7335"/>
<text text-anchor="middle" x="320.241" y="-197.255" font-family="arial" font-size="10.00">push</text>
<text text-anchor="middle" x="320.241" y="-186.255" font-family="arial" font-size="10.00">state</text>
<text text-anchor="middle" x="320.241" y="-175.255" font-family="arial" font-size="10.00">change</text>
<text text-anchor="middle" x="320.241" y="-164.255" font-family="arial" font-size="10.00">with</text>
</g>
<!-- e&#45;&gt;rep -->
<g id="edge6" class="edge"><title>e&#45;&gt;rep</title>
<path fill="none" stroke="black" d="M334.804,-258.227C334.102,-281.597 332.871,-322.572 332.045,-350.071"/>
<polygon fill="black" stroke="black" points="328.542,-350.135 331.74,-360.236 335.539,-350.346 328.542,-350.135"/>
<text text-anchor="middle" x="317.425" y="-318.149" font-family="arial" font-size="10.00">access</text>
<text text-anchor="middle" x="317.425" y="-307.149" font-family="arial" font-size="10.00">with</text>
</g>
<!-- e&#45;&gt;ag -->
<g id="edge7" class="edge"><title>e&#45;&gt;ag</title>
<path fill="none" stroke="black" d="M357.126,-255.562C366.371,-260.254 377.595,-265.359 388.851,-270.054"/>
<polygon fill="black" stroke="black" points="387.689,-273.36 398.271,-273.885 390.326,-266.876 387.689,-273.36"/>
<text text-anchor="middle" x="357.989" y="-287.808" font-family="arial" font-size="10.00">encap&#45;</text>
<text text-anchor="middle" x="357.989" y="-276.808" font-family="arial" font-size="10.00">sulate</text>
<text text-anchor="middle" x="357.989" y="-265.808" font-family="arial" font-size="10.00">with</text>
</g>
<!-- e&#45;&gt;ag -->
<g id="edge8" class="edge"><title>e&#45;&gt;ag</title>
<path fill="none" stroke="black" d="M371.724,-248.657C384.158,-253.302 397.991,-259.106 410.174,-264.785"/>
<polygon fill="black" stroke="black" points="409.003,-268.106 419.532,-269.287 412.038,-261.798 409.003,-268.106"/>
<text text-anchor="middle" x="404.949" y="-248.721" font-family="arial" font-size="10.00">act as</text>
<text text-anchor="middle" x="404.949" y="-237.721" font-family="arial" font-size="10.00">root of</text>
</g>
<!-- e&#45;&gt;fct -->
<g id="edge9" class="edge"><title>e&#45;&gt;fct</title>
<path fill="none" stroke="black" d="M367.791,-229.06C392.349,-220.651 426.403,-208.991 453.739,-199.631"/>
<polygon fill="black" stroke="black" points="455.15,-202.848 463.477,-196.297 452.882,-196.225 455.15,-202.848"/>
<text text-anchor="middle" x="395.765" y="-206.346" font-family="arial" font-size="10.00">encap&#45;</text>
<text text-anchor="middle" x="395.765" y="-195.346" font-family="arial" font-size="10.00">sulate</text>
<text text-anchor="middle" x="395.765" y="-184.346" font-family="arial" font-size="10.00">with</text>
</g>
<!-- vo&#45;&gt;ag -->
<g id="edge12" class="edge"><title>vo&#45;&gt;ag</title>
<path fill="none" stroke="black" d="M404.072,-163.875C412.682,-190.496 425.881,-231.309 434.601,-258.269"/>
<polygon fill="black" stroke="black" points="431.297,-259.427 437.704,-267.865 437.957,-257.273 431.297,-259.427"/>
<text text-anchor="middle" x="426.836" y="-203.072" font-family="arial" font-size="10.00">encap&#45;</text>
<text text-anchor="middle" x="426.836" y="-192.072" font-family="arial" font-size="10.00">sulate</text>
<text text-anchor="middle" x="426.836" y="-181.072" font-family="arial" font-size="10.00">with</text>
</g>
<!-- vo&#45;&gt;fct -->
<g id="edge13" class="edge"><title>vo&#45;&gt;fct</title>
<path fill="none" stroke="black" d="M432.475,-153.899C441.056,-157.741 450.235,-161.852 458.963,-165.76"/>
<polygon fill="black" stroke="black" points="457.649,-169.006 468.206,-169.899 460.51,-162.617 457.649,-169.006"/>
<text text-anchor="middle" x="460.719" y="-151.829" font-family="arial" font-size="10.00">encap&#45;</text>
<text text-anchor="middle" x="460.719" y="-140.829" font-family="arial" font-size="10.00">sulate</text>
<text text-anchor="middle" x="460.719" y="-129.829" font-family="arial" font-size="10.00">with</text>
</g>
</g>
</svg>
